%TF.GenerationSoftware,KiCad,Pcbnew,(5.1.6)-1*%
%TF.CreationDate,2021-01-22T22:51:17+01:00*%
%TF.ProjectId,LEDFlasher,4c454446-6c61-4736-9865-722e6b696361,v 0.3*%
%TF.SameCoordinates,Original*%
%TF.FileFunction,Copper,L1,Top*%
%TF.FilePolarity,Positive*%
%FSLAX46Y46*%
G04 Gerber Fmt 4.6, Leading zero omitted, Abs format (unit mm)*
G04 Created by KiCad (PCBNEW (5.1.6)-1) date 2021-01-22 22:51:17*
%MOMM*%
%LPD*%
G01*
G04 APERTURE LIST*
%TA.AperFunction,ComponentPad*%
%ADD10C,5.000000*%
%TD*%
%TA.AperFunction,ComponentPad*%
%ADD11C,2.000000*%
%TD*%
%TA.AperFunction,ComponentPad*%
%ADD12R,2.000000X2.000000*%
%TD*%
%TA.AperFunction,ComponentPad*%
%ADD13C,1.600000*%
%TD*%
%TA.AperFunction,ComponentPad*%
%ADD14R,1.600000X1.600000*%
%TD*%
%TA.AperFunction,ComponentPad*%
%ADD15R,1.800000X1.800000*%
%TD*%
%TA.AperFunction,ComponentPad*%
%ADD16C,1.800000*%
%TD*%
%TA.AperFunction,ComponentPad*%
%ADD17O,1.500000X1.050000*%
%TD*%
%TA.AperFunction,ComponentPad*%
%ADD18R,1.500000X1.050000*%
%TD*%
%TA.AperFunction,ComponentPad*%
%ADD19C,1.400000*%
%TD*%
%TA.AperFunction,ComponentPad*%
%ADD20O,1.400000X1.400000*%
%TD*%
%TA.AperFunction,SMDPad,CuDef*%
%ADD21R,1.500000X1.500000*%
%TD*%
%TA.AperFunction,ComponentPad*%
%ADD22R,1.600000X2.400000*%
%TD*%
%TA.AperFunction,ComponentPad*%
%ADD23O,1.600000X2.400000*%
%TD*%
%TA.AperFunction,Conductor*%
%ADD24C,1.000000*%
%TD*%
G04 APERTURE END LIST*
D10*
%TO.P,H3,1*%
%TO.N,N/C*%
X158623000Y-113284000D03*
%TD*%
%TO.P,H4,1*%
%TO.N,N/C*%
X103124000Y-113284000D03*
%TD*%
%TO.P,H2,1*%
%TO.N,N/C*%
X158623000Y-67564000D03*
%TD*%
%TO.P,H1,1*%
%TO.N,N/C*%
X103124000Y-67437000D03*
%TD*%
D11*
%TO.P,BT1,2*%
%TO.N,GND*%
X156845000Y-80772000D03*
D12*
%TO.P,BT1,1*%
%TO.N,Net-(BT1-Pad1)*%
X104855000Y-80772000D03*
%TD*%
D13*
%TO.P,C1,2*%
%TO.N,Net-(C1-Pad2)*%
X115872260Y-112994440D03*
%TO.P,C1,1*%
%TO.N,Net-(C1-Pad1)*%
X120872260Y-112994440D03*
%TD*%
%TO.P,C2,1*%
%TO.N,Net-(C2-Pad1)*%
X120940840Y-92041980D03*
%TO.P,C2,2*%
%TO.N,Net-(C2-Pad2)*%
X115940840Y-92041980D03*
%TD*%
D14*
%TO.P,C3,1*%
%TO.N,Net-(C3-Pad1)*%
X106735880Y-103769160D03*
D13*
%TO.P,C3,2*%
%TO.N,GND*%
X106735880Y-106269160D03*
%TD*%
D15*
%TO.P,D1,1*%
%TO.N,Net-(C3-Pad1)*%
X104772460Y-97149920D03*
D16*
%TO.P,D1,2*%
%TO.N,Net-(D1-Pad2)*%
X104772460Y-94609920D03*
%TD*%
D17*
%TO.P,Q1,2*%
%TO.N,Net-(Q1-Pad2)*%
X137287000Y-104955340D03*
%TO.P,Q1,3*%
%TO.N,Net-(D1-Pad2)*%
X137287000Y-103685340D03*
D18*
%TO.P,Q1,1*%
%TO.N,GND*%
X137287000Y-106225340D03*
%TD*%
D19*
%TO.P,R1,1*%
%TO.N,Net-(R1-Pad1)*%
X123482100Y-109260640D03*
D20*
%TO.P,R1,2*%
%TO.N,Net-(C1-Pad2)*%
X115862100Y-109260640D03*
%TD*%
D19*
%TO.P,R2,1*%
%TO.N,Net-(C2-Pad2)*%
X120929400Y-95633540D03*
D20*
%TO.P,R2,2*%
%TO.N,Net-(C3-Pad1)*%
X113309400Y-95633540D03*
%TD*%
%TO.P,R3,2*%
%TO.N,Net-(R3-Pad2)*%
X133281420Y-98572320D03*
D19*
%TO.P,R3,1*%
%TO.N,Net-(R3-Pad1)*%
X140901420Y-98572320D03*
%TD*%
D20*
%TO.P,R4,2*%
%TO.N,Net-(R4-Pad2)*%
X148277580Y-93245940D03*
D19*
%TO.P,R4,1*%
%TO.N,Net-(BT1-Pad1)*%
X155897580Y-93245940D03*
%TD*%
D21*
%TO.P,SW1,1*%
%TO.N,Net-(R4-Pad2)*%
X145305780Y-93256100D03*
%TO.P,SW1,2*%
%TO.N,Net-(R3-Pad1)*%
X137505780Y-93256100D03*
%TD*%
D11*
%TO.P,T1,1*%
%TO.N,Net-(R3-Pad1)*%
X144907740Y-104871520D03*
%TO.P,T1,2*%
%TO.N,Net-(Q1-Pad2)*%
X155907740Y-104871520D03*
%TO.P,T1,3*%
%TO.N,Net-(D1-Pad2)*%
X144907740Y-98871520D03*
%TO.P,T1,4*%
%TO.N,Net-(BT1-Pad1)*%
X155907740Y-98871520D03*
%TD*%
D22*
%TO.P,U1,1*%
%TO.N,Net-(C1-Pad2)*%
X113284000Y-106225340D03*
D23*
%TO.P,U1,8*%
%TO.N,Net-(C1-Pad1)*%
X128524000Y-98605340D03*
%TO.P,U1,2*%
%TO.N,Net-(C1-Pad2)*%
X115824000Y-106225340D03*
%TO.P,U1,9*%
%TO.N,Net-(R3-Pad2)*%
X125984000Y-98605340D03*
%TO.P,U1,3*%
%TO.N,Net-(R1-Pad1)*%
X118364000Y-106225340D03*
%TO.P,U1,10*%
%TO.N,Net-(C2-Pad1)*%
X123444000Y-98605340D03*
%TO.P,U1,4*%
%TO.N,Net-(C1-Pad1)*%
X120904000Y-106225340D03*
%TO.P,U1,11*%
%TO.N,Net-(R3-Pad2)*%
X120904000Y-98605340D03*
%TO.P,U1,5*%
%TO.N,Net-(R1-Pad1)*%
X123444000Y-106225340D03*
%TO.P,U1,12*%
%TO.N,Net-(C2-Pad2)*%
X118364000Y-98605340D03*
%TO.P,U1,6*%
%TO.N,Net-(R1-Pad1)*%
X125984000Y-106225340D03*
%TO.P,U1,13*%
%TO.N,Net-(C2-Pad2)*%
X115824000Y-98605340D03*
%TO.P,U1,7*%
%TO.N,GND*%
X128524000Y-106225340D03*
%TO.P,U1,14*%
%TO.N,Net-(C3-Pad1)*%
X113284000Y-98605340D03*
%TD*%
D24*
%TO.N,Net-(BT1-Pad1)*%
X155907740Y-93256100D02*
X155897580Y-93245940D01*
X155907740Y-98871520D02*
X155907740Y-93256100D01*
X143423640Y-80772000D02*
X155897580Y-93245940D01*
X104855000Y-80772000D02*
X143423640Y-80772000D01*
%TO.N,Net-(C1-Pad1)*%
X120872260Y-106257080D02*
X120904000Y-106225340D01*
X120872260Y-112994440D02*
X120872260Y-106257080D01*
%TO.N,Net-(C1-Pad2)*%
X113284000Y-106225340D02*
X115824000Y-106225340D01*
X115824000Y-109222540D02*
X115862100Y-109260640D01*
X115824000Y-106225340D02*
X115824000Y-109222540D01*
X115862100Y-112984280D02*
X115872260Y-112994440D01*
X115862100Y-109260640D02*
X115862100Y-112984280D01*
%TO.N,Net-(C2-Pad2)*%
X115824000Y-98605340D02*
X118364000Y-98605340D01*
X120929400Y-96039940D02*
X118364000Y-98605340D01*
X120929400Y-95633540D02*
X120929400Y-96039940D01*
X117337840Y-92041980D02*
X120929400Y-95633540D01*
X115940840Y-92041980D02*
X117337840Y-92041980D01*
%TO.N,Net-(C2-Pad1)*%
X123444000Y-94545140D02*
X120940840Y-92041980D01*
X123444000Y-98605340D02*
X123444000Y-94545140D01*
%TO.N,Net-(C3-Pad1)*%
X104772460Y-101805740D02*
X106735880Y-103769160D01*
X104772460Y-97149920D02*
X104772460Y-101805740D01*
X113309400Y-98579940D02*
X113284000Y-98605340D01*
X113309400Y-95633540D02*
X113309400Y-98579940D01*
%TO.N,Net-(D1-Pad2)*%
X137287000Y-103685340D02*
X136080500Y-103685340D01*
X136080500Y-103685340D02*
X134747000Y-102351840D01*
X105292462Y-94609920D02*
X104772460Y-94609920D01*
X113034382Y-102351840D02*
X105292462Y-94609920D01*
X134747000Y-102351840D02*
X113034382Y-102351840D01*
%TO.N,Net-(Q1-Pad2)*%
X154207739Y-106571521D02*
X155907740Y-104871520D01*
X144091739Y-106571521D02*
X154207739Y-106571521D01*
X142475558Y-104955340D02*
X144091739Y-106571521D01*
X137287000Y-104955340D02*
X142475558Y-104955340D01*
%TO.N,Net-(R1-Pad1)*%
X123444000Y-106225340D02*
X125984000Y-106225340D01*
X123482100Y-106263440D02*
X123444000Y-106225340D01*
X123482100Y-109260640D02*
X123482100Y-106263440D01*
%TO.N,Net-(R3-Pad1)*%
X137505780Y-95176680D02*
X140901420Y-98572320D01*
X137505780Y-93256100D02*
X137505780Y-95176680D01*
X140901420Y-100865200D02*
X144907740Y-104871520D01*
X140901420Y-98572320D02*
X140901420Y-100865200D01*
%TO.N,Net-(R3-Pad2)*%
X127884010Y-100505350D02*
X125984000Y-98605340D01*
X131348390Y-100505350D02*
X127884010Y-100505350D01*
X133281420Y-98572320D02*
X131348390Y-100505350D01*
%TO.N,Net-(R4-Pad2)*%
X145315940Y-93245940D02*
X145305780Y-93256100D01*
X148277580Y-93245940D02*
X145315940Y-93245940D01*
%TD*%
M02*
