M48
; DRILL file {KiCad (5.1.6)-1} date 01/22/21 22:49:25
; FORMAT={-:-/ absolute / inch / decimal}
; #@! TF.CreationDate,2021-01-22T22:49:25+01:00
; #@! TF.GenerationSoftware,Kicad,Pcbnew,(5.1.6)-1
; #@! TF.FileFunction,Plated,1,2,PTH
FMAT,2
INCH
T1C0.0276
T2C0.0295
T3C0.0315
T4C0.0354
T5C0.0394
T6C0.0402
T7C0.0984
%
G90
G05
T1
X5.8377Y-3.6711
X6.1377Y-3.6711
X5.2473Y-3.8808
X5.5473Y-3.8808
X4.461Y-3.7651
X4.761Y-3.7651
X4.5615Y-4.3016
X4.8615Y-4.3016
T2
X5.405Y-4.0821
X5.405Y-4.1321
X5.405Y-4.1821
T3
X4.2022Y-4.0854
X4.2022Y-4.1838
X4.46Y-3.8821
X4.46Y-4.1821
X4.56Y-3.8821
X4.56Y-4.1821
X4.66Y-3.8821
X4.66Y-4.1821
X4.76Y-3.8821
X4.76Y-4.1821
X4.86Y-3.8821
X4.86Y-4.1821
X4.96Y-3.8821
X4.96Y-4.1821
X5.06Y-3.8821
X5.06Y-4.1821
X4.5646Y-3.6237
X4.7615Y-3.6237
X4.5619Y-4.4486
X4.7588Y-4.4486
T4
X4.1249Y-3.7248
X4.1249Y-3.8248
T5
X5.705Y-3.8926
X5.705Y-4.1288
X6.1381Y-3.8926
X6.1381Y-4.1288
T6
X4.1281Y-3.18
X6.175Y-3.18
T7
X4.06Y-2.655
X6.245Y-2.66
X4.06Y-4.46
X6.245Y-4.46
T0
M30
