%TF.GenerationSoftware,KiCad,Pcbnew,(5.1.6)-1*%
%TF.CreationDate,2020-12-28T15:25:48+01:00*%
%TF.ProjectId,LEDFlasher,4c454446-6c61-4736-9865-722e6b696361,v 0.1*%
%TF.SameCoordinates,Original*%
%TF.FileFunction,Copper,L1,Top*%
%TF.FilePolarity,Positive*%
%FSLAX46Y46*%
G04 Gerber Fmt 4.6, Leading zero omitted, Abs format (unit mm)*
G04 Created by KiCad (PCBNEW (5.1.6)-1) date 2020-12-28 15:25:48*
%MOMM*%
%LPD*%
G01*
G04 APERTURE LIST*
%TA.AperFunction,EtchedComponent*%
%ADD10C,0.381000*%
%TD*%
%TA.AperFunction,EtchedComponent*%
%ADD11C,0.010000*%
%TD*%
%TA.AperFunction,ComponentPad*%
%ADD12C,5.000000*%
%TD*%
%TA.AperFunction,ComponentPad*%
%ADD13C,2.000000*%
%TD*%
%TA.AperFunction,ComponentPad*%
%ADD14R,2.000000X2.000000*%
%TD*%
%TA.AperFunction,ComponentPad*%
%ADD15C,1.600000*%
%TD*%
%TA.AperFunction,ComponentPad*%
%ADD16R,1.600000X1.600000*%
%TD*%
%TA.AperFunction,ComponentPad*%
%ADD17R,1.800000X1.800000*%
%TD*%
%TA.AperFunction,ComponentPad*%
%ADD18C,1.800000*%
%TD*%
%TA.AperFunction,ComponentPad*%
%ADD19O,1.500000X1.050000*%
%TD*%
%TA.AperFunction,ComponentPad*%
%ADD20R,1.500000X1.050000*%
%TD*%
%TA.AperFunction,ComponentPad*%
%ADD21C,1.400000*%
%TD*%
%TA.AperFunction,ComponentPad*%
%ADD22O,1.400000X1.400000*%
%TD*%
%TA.AperFunction,ComponentPad*%
%ADD23R,1.600000X2.400000*%
%TD*%
%TA.AperFunction,ComponentPad*%
%ADD24O,1.600000X2.400000*%
%TD*%
%TA.AperFunction,Conductor*%
%ADD25C,1.000000*%
%TD*%
G04 APERTURE END LIST*
D10*
%TO.C,REF\u002A\u002A*%
X153416000Y-104013000D02*
X153924000Y-104013000D01*
X153924000Y-107569000D02*
X153416000Y-104013000D01*
X154432000Y-104013000D02*
X153924000Y-107569000D01*
X153924000Y-104013000D02*
X154432000Y-104013000D01*
X153924000Y-107442000D02*
X154051000Y-104013000D01*
X153924000Y-107569000D02*
X153797000Y-104013000D01*
X154283210Y-108458000D02*
G75*
G03*
X154283210Y-108458000I-359210J0D01*
G01*
X154051000Y-108458000D02*
G75*
G03*
X154051000Y-108458000I-127000J0D01*
G01*
X149225000Y-109347000D02*
X153924000Y-102362000D01*
X158623000Y-109347000D02*
X149225000Y-109347000D01*
X153924000Y-102362000D02*
X158623000Y-109347000D01*
D11*
G36*
X160660823Y-96508533D02*
G01*
X160692202Y-96530776D01*
X160719911Y-96558485D01*
X160719911Y-96867920D01*
X160719838Y-96959799D01*
X160719495Y-97031840D01*
X160718692Y-97086780D01*
X160717241Y-97127360D01*
X160714952Y-97156317D01*
X160711636Y-97176391D01*
X160707105Y-97190321D01*
X160701169Y-97200845D01*
X160696514Y-97207100D01*
X160665783Y-97231673D01*
X160630496Y-97234341D01*
X160598245Y-97219271D01*
X160587588Y-97210374D01*
X160580464Y-97198557D01*
X160576167Y-97179526D01*
X160573991Y-97148992D01*
X160573228Y-97102662D01*
X160573155Y-97066871D01*
X160573155Y-96932045D01*
X160076444Y-96932045D01*
X160076444Y-97054700D01*
X160075931Y-97110787D01*
X160073876Y-97149333D01*
X160069508Y-97175361D01*
X160062056Y-97193897D01*
X160053047Y-97207100D01*
X160022144Y-97231604D01*
X159987196Y-97234506D01*
X159953738Y-97217089D01*
X159944604Y-97207959D01*
X159938152Y-97195855D01*
X159933897Y-97177001D01*
X159931352Y-97147620D01*
X159930029Y-97103937D01*
X159929443Y-97042175D01*
X159929375Y-97028000D01*
X159928891Y-96911631D01*
X159928641Y-96815727D01*
X159928723Y-96738177D01*
X159929231Y-96676869D01*
X159930262Y-96629690D01*
X159931913Y-96594530D01*
X159934279Y-96569276D01*
X159937457Y-96551817D01*
X159941544Y-96540041D01*
X159946634Y-96531835D01*
X159952266Y-96525645D01*
X159984128Y-96505844D01*
X160017357Y-96508533D01*
X160048735Y-96530776D01*
X160061433Y-96545126D01*
X160069526Y-96560978D01*
X160074042Y-96583554D01*
X160076006Y-96618078D01*
X160076444Y-96669776D01*
X160076444Y-96785289D01*
X160573155Y-96785289D01*
X160573155Y-96666756D01*
X160573662Y-96612148D01*
X160575698Y-96575275D01*
X160580035Y-96551307D01*
X160587447Y-96535415D01*
X160595733Y-96525645D01*
X160627594Y-96505844D01*
X160660823Y-96508533D01*
G37*
X160660823Y-96508533D02*
X160692202Y-96530776D01*
X160719911Y-96558485D01*
X160719911Y-96867920D01*
X160719838Y-96959799D01*
X160719495Y-97031840D01*
X160718692Y-97086780D01*
X160717241Y-97127360D01*
X160714952Y-97156317D01*
X160711636Y-97176391D01*
X160707105Y-97190321D01*
X160701169Y-97200845D01*
X160696514Y-97207100D01*
X160665783Y-97231673D01*
X160630496Y-97234341D01*
X160598245Y-97219271D01*
X160587588Y-97210374D01*
X160580464Y-97198557D01*
X160576167Y-97179526D01*
X160573991Y-97148992D01*
X160573228Y-97102662D01*
X160573155Y-97066871D01*
X160573155Y-96932045D01*
X160076444Y-96932045D01*
X160076444Y-97054700D01*
X160075931Y-97110787D01*
X160073876Y-97149333D01*
X160069508Y-97175361D01*
X160062056Y-97193897D01*
X160053047Y-97207100D01*
X160022144Y-97231604D01*
X159987196Y-97234506D01*
X159953738Y-97217089D01*
X159944604Y-97207959D01*
X159938152Y-97195855D01*
X159933897Y-97177001D01*
X159931352Y-97147620D01*
X159930029Y-97103937D01*
X159929443Y-97042175D01*
X159929375Y-97028000D01*
X159928891Y-96911631D01*
X159928641Y-96815727D01*
X159928723Y-96738177D01*
X159929231Y-96676869D01*
X159930262Y-96629690D01*
X159931913Y-96594530D01*
X159934279Y-96569276D01*
X159937457Y-96551817D01*
X159941544Y-96540041D01*
X159946634Y-96531835D01*
X159952266Y-96525645D01*
X159984128Y-96505844D01*
X160017357Y-96508533D01*
X160048735Y-96530776D01*
X160061433Y-96545126D01*
X160069526Y-96560978D01*
X160074042Y-96583554D01*
X160076006Y-96618078D01*
X160076444Y-96669776D01*
X160076444Y-96785289D01*
X160573155Y-96785289D01*
X160573155Y-96666756D01*
X160573662Y-96612148D01*
X160575698Y-96575275D01*
X160580035Y-96551307D01*
X160587447Y-96535415D01*
X160595733Y-96525645D01*
X160627594Y-96505844D01*
X160660823Y-96508533D01*
G36*
X159395065Y-96503163D02*
G01*
X159473772Y-96503542D01*
X159534863Y-96504333D01*
X159580817Y-96505670D01*
X159614114Y-96507683D01*
X159637236Y-96510506D01*
X159652662Y-96514269D01*
X159662871Y-96519105D01*
X159667813Y-96522822D01*
X159693457Y-96555358D01*
X159696559Y-96589138D01*
X159680711Y-96619826D01*
X159670348Y-96632089D01*
X159659196Y-96640450D01*
X159643035Y-96645657D01*
X159617642Y-96648457D01*
X159578798Y-96649596D01*
X159522280Y-96649821D01*
X159511180Y-96649822D01*
X159365244Y-96649822D01*
X159365244Y-96920756D01*
X159365148Y-97006154D01*
X159364711Y-97071864D01*
X159363712Y-97120774D01*
X159361928Y-97155773D01*
X159359137Y-97179749D01*
X159355117Y-97195593D01*
X159349645Y-97206191D01*
X159342666Y-97214267D01*
X159309734Y-97234112D01*
X159275354Y-97232548D01*
X159244176Y-97209906D01*
X159241886Y-97207100D01*
X159234429Y-97196492D01*
X159228747Y-97184081D01*
X159224601Y-97166850D01*
X159221750Y-97141784D01*
X159219954Y-97105867D01*
X159218972Y-97056083D01*
X159218564Y-96989417D01*
X159218489Y-96913589D01*
X159218489Y-96649822D01*
X159079127Y-96649822D01*
X159019322Y-96649418D01*
X158977918Y-96647840D01*
X158950748Y-96644547D01*
X158933646Y-96638992D01*
X158922443Y-96630631D01*
X158921083Y-96629178D01*
X158904725Y-96595939D01*
X158906172Y-96558362D01*
X158924978Y-96525645D01*
X158932250Y-96519298D01*
X158941627Y-96514266D01*
X158955609Y-96510396D01*
X158976696Y-96507537D01*
X159007389Y-96505535D01*
X159050189Y-96504239D01*
X159107595Y-96503498D01*
X159182110Y-96503158D01*
X159276233Y-96503068D01*
X159296260Y-96503067D01*
X159395065Y-96503163D01*
G37*
X159395065Y-96503163D02*
X159473772Y-96503542D01*
X159534863Y-96504333D01*
X159580817Y-96505670D01*
X159614114Y-96507683D01*
X159637236Y-96510506D01*
X159652662Y-96514269D01*
X159662871Y-96519105D01*
X159667813Y-96522822D01*
X159693457Y-96555358D01*
X159696559Y-96589138D01*
X159680711Y-96619826D01*
X159670348Y-96632089D01*
X159659196Y-96640450D01*
X159643035Y-96645657D01*
X159617642Y-96648457D01*
X159578798Y-96649596D01*
X159522280Y-96649821D01*
X159511180Y-96649822D01*
X159365244Y-96649822D01*
X159365244Y-96920756D01*
X159365148Y-97006154D01*
X159364711Y-97071864D01*
X159363712Y-97120774D01*
X159361928Y-97155773D01*
X159359137Y-97179749D01*
X159355117Y-97195593D01*
X159349645Y-97206191D01*
X159342666Y-97214267D01*
X159309734Y-97234112D01*
X159275354Y-97232548D01*
X159244176Y-97209906D01*
X159241886Y-97207100D01*
X159234429Y-97196492D01*
X159228747Y-97184081D01*
X159224601Y-97166850D01*
X159221750Y-97141784D01*
X159219954Y-97105867D01*
X159218972Y-97056083D01*
X159218564Y-96989417D01*
X159218489Y-96913589D01*
X159218489Y-96649822D01*
X159079127Y-96649822D01*
X159019322Y-96649418D01*
X158977918Y-96647840D01*
X158950748Y-96644547D01*
X158933646Y-96638992D01*
X158922443Y-96630631D01*
X158921083Y-96629178D01*
X158904725Y-96595939D01*
X158906172Y-96558362D01*
X158924978Y-96525645D01*
X158932250Y-96519298D01*
X158941627Y-96514266D01*
X158955609Y-96510396D01*
X158976696Y-96507537D01*
X159007389Y-96505535D01*
X159050189Y-96504239D01*
X159107595Y-96503498D01*
X159182110Y-96503158D01*
X159276233Y-96503068D01*
X159296260Y-96503067D01*
X159395065Y-96503163D01*
G36*
X158620614Y-96509877D02*
G01*
X158644327Y-96524647D01*
X158670978Y-96546227D01*
X158670978Y-96867773D01*
X158670893Y-96961830D01*
X158670529Y-97035932D01*
X158669724Y-97092704D01*
X158668313Y-97134768D01*
X158666133Y-97164748D01*
X158663021Y-97185267D01*
X158658814Y-97198949D01*
X158653348Y-97208416D01*
X158649472Y-97213082D01*
X158618034Y-97233575D01*
X158582233Y-97232739D01*
X158550873Y-97215264D01*
X158524222Y-97193684D01*
X158524222Y-96546227D01*
X158550873Y-96524647D01*
X158576594Y-96508949D01*
X158597600Y-96503067D01*
X158620614Y-96509877D01*
G37*
X158620614Y-96509877D02*
X158644327Y-96524647D01*
X158670978Y-96546227D01*
X158670978Y-96867773D01*
X158670893Y-96961830D01*
X158670529Y-97035932D01*
X158669724Y-97092704D01*
X158668313Y-97134768D01*
X158666133Y-97164748D01*
X158663021Y-97185267D01*
X158658814Y-97198949D01*
X158653348Y-97208416D01*
X158649472Y-97213082D01*
X158618034Y-97233575D01*
X158582233Y-97232739D01*
X158550873Y-97215264D01*
X158524222Y-97193684D01*
X158524222Y-96546227D01*
X158550873Y-96524647D01*
X158576594Y-96508949D01*
X158597600Y-96503067D01*
X158620614Y-96509877D01*
G36*
X158176665Y-96505034D02*
G01*
X158196255Y-96512035D01*
X158197010Y-96512377D01*
X158223613Y-96532678D01*
X158238270Y-96553561D01*
X158241138Y-96563352D01*
X158240996Y-96576361D01*
X158236961Y-96594895D01*
X158228146Y-96621257D01*
X158213669Y-96657752D01*
X158192645Y-96706687D01*
X158164188Y-96770365D01*
X158127415Y-96851093D01*
X158107175Y-96895216D01*
X158070625Y-96973985D01*
X158036315Y-97046423D01*
X158005552Y-97109880D01*
X157979648Y-97161708D01*
X157959910Y-97199259D01*
X157947650Y-97219884D01*
X157945224Y-97222733D01*
X157914183Y-97235302D01*
X157879121Y-97233619D01*
X157851000Y-97218332D01*
X157849854Y-97217089D01*
X157838668Y-97200154D01*
X157819904Y-97167170D01*
X157795875Y-97122380D01*
X157768897Y-97070032D01*
X157759201Y-97050742D01*
X157686014Y-96904150D01*
X157606240Y-97063393D01*
X157577767Y-97118415D01*
X157551350Y-97166132D01*
X157529148Y-97202893D01*
X157513319Y-97225044D01*
X157507954Y-97229741D01*
X157466257Y-97236102D01*
X157431849Y-97222733D01*
X157421728Y-97208446D01*
X157404214Y-97176692D01*
X157380735Y-97130597D01*
X157352720Y-97073285D01*
X157321599Y-97007880D01*
X157288799Y-96937507D01*
X157255750Y-96865291D01*
X157223881Y-96794355D01*
X157194619Y-96727825D01*
X157169395Y-96668826D01*
X157149636Y-96620481D01*
X157136772Y-96585915D01*
X157132231Y-96568253D01*
X157132277Y-96567613D01*
X157143326Y-96545388D01*
X157165410Y-96522753D01*
X157166710Y-96521768D01*
X157193853Y-96506425D01*
X157218958Y-96506574D01*
X157228368Y-96509466D01*
X157239834Y-96515718D01*
X157252010Y-96528014D01*
X157266357Y-96548908D01*
X157284336Y-96580949D01*
X157307407Y-96626688D01*
X157337030Y-96688677D01*
X157363745Y-96745898D01*
X157394480Y-96812226D01*
X157422021Y-96871874D01*
X157444938Y-96921725D01*
X157461798Y-96958664D01*
X157471173Y-96979573D01*
X157472540Y-96982845D01*
X157478689Y-96977497D01*
X157492822Y-96955109D01*
X157513057Y-96918946D01*
X157537515Y-96872277D01*
X157547248Y-96853022D01*
X157580217Y-96788004D01*
X157605643Y-96740654D01*
X157625612Y-96708219D01*
X157642210Y-96687946D01*
X157657524Y-96677082D01*
X157673640Y-96672875D01*
X157684143Y-96672400D01*
X157702670Y-96674042D01*
X157718904Y-96680831D01*
X157735035Y-96695566D01*
X157753251Y-96721044D01*
X157775739Y-96760061D01*
X157804689Y-96815414D01*
X157820662Y-96846903D01*
X157846570Y-96897087D01*
X157869167Y-96938704D01*
X157886458Y-96968242D01*
X157896450Y-96982189D01*
X157897809Y-96982770D01*
X157904261Y-96971793D01*
X157918708Y-96943290D01*
X157939703Y-96900244D01*
X157965797Y-96845638D01*
X157995546Y-96782454D01*
X158010180Y-96751071D01*
X158048250Y-96670078D01*
X158078905Y-96607756D01*
X158103737Y-96562071D01*
X158124337Y-96530989D01*
X158142298Y-96512478D01*
X158159210Y-96504504D01*
X158176665Y-96505034D01*
G37*
X158176665Y-96505034D02*
X158196255Y-96512035D01*
X158197010Y-96512377D01*
X158223613Y-96532678D01*
X158238270Y-96553561D01*
X158241138Y-96563352D01*
X158240996Y-96576361D01*
X158236961Y-96594895D01*
X158228146Y-96621257D01*
X158213669Y-96657752D01*
X158192645Y-96706687D01*
X158164188Y-96770365D01*
X158127415Y-96851093D01*
X158107175Y-96895216D01*
X158070625Y-96973985D01*
X158036315Y-97046423D01*
X158005552Y-97109880D01*
X157979648Y-97161708D01*
X157959910Y-97199259D01*
X157947650Y-97219884D01*
X157945224Y-97222733D01*
X157914183Y-97235302D01*
X157879121Y-97233619D01*
X157851000Y-97218332D01*
X157849854Y-97217089D01*
X157838668Y-97200154D01*
X157819904Y-97167170D01*
X157795875Y-97122380D01*
X157768897Y-97070032D01*
X157759201Y-97050742D01*
X157686014Y-96904150D01*
X157606240Y-97063393D01*
X157577767Y-97118415D01*
X157551350Y-97166132D01*
X157529148Y-97202893D01*
X157513319Y-97225044D01*
X157507954Y-97229741D01*
X157466257Y-97236102D01*
X157431849Y-97222733D01*
X157421728Y-97208446D01*
X157404214Y-97176692D01*
X157380735Y-97130597D01*
X157352720Y-97073285D01*
X157321599Y-97007880D01*
X157288799Y-96937507D01*
X157255750Y-96865291D01*
X157223881Y-96794355D01*
X157194619Y-96727825D01*
X157169395Y-96668826D01*
X157149636Y-96620481D01*
X157136772Y-96585915D01*
X157132231Y-96568253D01*
X157132277Y-96567613D01*
X157143326Y-96545388D01*
X157165410Y-96522753D01*
X157166710Y-96521768D01*
X157193853Y-96506425D01*
X157218958Y-96506574D01*
X157228368Y-96509466D01*
X157239834Y-96515718D01*
X157252010Y-96528014D01*
X157266357Y-96548908D01*
X157284336Y-96580949D01*
X157307407Y-96626688D01*
X157337030Y-96688677D01*
X157363745Y-96745898D01*
X157394480Y-96812226D01*
X157422021Y-96871874D01*
X157444938Y-96921725D01*
X157461798Y-96958664D01*
X157471173Y-96979573D01*
X157472540Y-96982845D01*
X157478689Y-96977497D01*
X157492822Y-96955109D01*
X157513057Y-96918946D01*
X157537515Y-96872277D01*
X157547248Y-96853022D01*
X157580217Y-96788004D01*
X157605643Y-96740654D01*
X157625612Y-96708219D01*
X157642210Y-96687946D01*
X157657524Y-96677082D01*
X157673640Y-96672875D01*
X157684143Y-96672400D01*
X157702670Y-96674042D01*
X157718904Y-96680831D01*
X157735035Y-96695566D01*
X157753251Y-96721044D01*
X157775739Y-96760061D01*
X157804689Y-96815414D01*
X157820662Y-96846903D01*
X157846570Y-96897087D01*
X157869167Y-96938704D01*
X157886458Y-96968242D01*
X157896450Y-96982189D01*
X157897809Y-96982770D01*
X157904261Y-96971793D01*
X157918708Y-96943290D01*
X157939703Y-96900244D01*
X157965797Y-96845638D01*
X157995546Y-96782454D01*
X158010180Y-96751071D01*
X158048250Y-96670078D01*
X158078905Y-96607756D01*
X158103737Y-96562071D01*
X158124337Y-96530989D01*
X158142298Y-96512478D01*
X158159210Y-96504504D01*
X158176665Y-96505034D01*
G36*
X155450309Y-96503275D02*
G01*
X155579288Y-96507636D01*
X155688991Y-96520861D01*
X155781226Y-96543741D01*
X155857802Y-96577070D01*
X155920527Y-96621638D01*
X155971212Y-96678236D01*
X156011663Y-96747658D01*
X156012459Y-96749351D01*
X156036601Y-96811483D01*
X156045203Y-96866509D01*
X156038231Y-96921887D01*
X156015654Y-96985073D01*
X156011372Y-96994689D01*
X155982172Y-97050966D01*
X155949356Y-97094451D01*
X155907002Y-97131417D01*
X155849190Y-97168135D01*
X155845831Y-97170052D01*
X155795504Y-97194227D01*
X155738621Y-97212282D01*
X155671527Y-97224839D01*
X155590565Y-97232522D01*
X155492082Y-97235953D01*
X155457286Y-97236251D01*
X155291594Y-97236845D01*
X155268197Y-97207100D01*
X155261257Y-97197319D01*
X155255842Y-97185897D01*
X155251765Y-97170095D01*
X155248837Y-97147175D01*
X155246867Y-97114396D01*
X155246225Y-97090089D01*
X155402844Y-97090089D01*
X155496726Y-97090089D01*
X155551664Y-97088483D01*
X155608060Y-97084255D01*
X155654345Y-97078292D01*
X155657139Y-97077790D01*
X155739348Y-97055736D01*
X155803114Y-97022600D01*
X155850452Y-96976847D01*
X155883382Y-96916939D01*
X155889108Y-96901061D01*
X155894721Y-96876333D01*
X155892291Y-96851902D01*
X155880467Y-96819400D01*
X155873340Y-96803434D01*
X155850000Y-96761006D01*
X155821880Y-96731240D01*
X155790940Y-96710511D01*
X155728966Y-96683537D01*
X155649651Y-96663998D01*
X155557253Y-96652746D01*
X155490333Y-96650270D01*
X155402844Y-96649822D01*
X155402844Y-97090089D01*
X155246225Y-97090089D01*
X155245668Y-97069021D01*
X155245050Y-97008311D01*
X155244825Y-96929526D01*
X155244800Y-96867920D01*
X155244800Y-96558485D01*
X155272509Y-96530776D01*
X155284806Y-96519544D01*
X155298103Y-96511853D01*
X155316672Y-96507040D01*
X155344786Y-96504446D01*
X155386717Y-96503410D01*
X155446737Y-96503270D01*
X155450309Y-96503275D01*
G37*
X155450309Y-96503275D02*
X155579288Y-96507636D01*
X155688991Y-96520861D01*
X155781226Y-96543741D01*
X155857802Y-96577070D01*
X155920527Y-96621638D01*
X155971212Y-96678236D01*
X156011663Y-96747658D01*
X156012459Y-96749351D01*
X156036601Y-96811483D01*
X156045203Y-96866509D01*
X156038231Y-96921887D01*
X156015654Y-96985073D01*
X156011372Y-96994689D01*
X155982172Y-97050966D01*
X155949356Y-97094451D01*
X155907002Y-97131417D01*
X155849190Y-97168135D01*
X155845831Y-97170052D01*
X155795504Y-97194227D01*
X155738621Y-97212282D01*
X155671527Y-97224839D01*
X155590565Y-97232522D01*
X155492082Y-97235953D01*
X155457286Y-97236251D01*
X155291594Y-97236845D01*
X155268197Y-97207100D01*
X155261257Y-97197319D01*
X155255842Y-97185897D01*
X155251765Y-97170095D01*
X155248837Y-97147175D01*
X155246867Y-97114396D01*
X155246225Y-97090089D01*
X155402844Y-97090089D01*
X155496726Y-97090089D01*
X155551664Y-97088483D01*
X155608060Y-97084255D01*
X155654345Y-97078292D01*
X155657139Y-97077790D01*
X155739348Y-97055736D01*
X155803114Y-97022600D01*
X155850452Y-96976847D01*
X155883382Y-96916939D01*
X155889108Y-96901061D01*
X155894721Y-96876333D01*
X155892291Y-96851902D01*
X155880467Y-96819400D01*
X155873340Y-96803434D01*
X155850000Y-96761006D01*
X155821880Y-96731240D01*
X155790940Y-96710511D01*
X155728966Y-96683537D01*
X155649651Y-96663998D01*
X155557253Y-96652746D01*
X155490333Y-96650270D01*
X155402844Y-96649822D01*
X155402844Y-97090089D01*
X155246225Y-97090089D01*
X155245668Y-97069021D01*
X155245050Y-97008311D01*
X155244825Y-96929526D01*
X155244800Y-96867920D01*
X155244800Y-96558485D01*
X155272509Y-96530776D01*
X155284806Y-96519544D01*
X155298103Y-96511853D01*
X155316672Y-96507040D01*
X155344786Y-96504446D01*
X155386717Y-96503410D01*
X155446737Y-96503270D01*
X155450309Y-96503275D01*
G36*
X154662343Y-96503260D02*
G01*
X154738701Y-96504174D01*
X154797217Y-96506311D01*
X154840255Y-96510175D01*
X154870183Y-96516267D01*
X154889368Y-96525090D01*
X154900176Y-96537146D01*
X154904973Y-96552939D01*
X154906127Y-96572970D01*
X154906133Y-96575335D01*
X154905131Y-96597992D01*
X154900396Y-96615503D01*
X154889333Y-96628574D01*
X154869348Y-96637913D01*
X154837846Y-96644227D01*
X154792232Y-96648222D01*
X154729913Y-96650606D01*
X154648293Y-96652086D01*
X154623277Y-96652414D01*
X154381200Y-96655467D01*
X154377814Y-96720378D01*
X154374429Y-96785289D01*
X154542576Y-96785289D01*
X154608266Y-96785531D01*
X154655172Y-96786556D01*
X154687083Y-96788811D01*
X154707791Y-96792742D01*
X154721084Y-96798798D01*
X154730755Y-96807424D01*
X154730817Y-96807493D01*
X154748356Y-96841112D01*
X154747722Y-96877448D01*
X154729314Y-96908423D01*
X154725671Y-96911607D01*
X154712741Y-96919812D01*
X154695024Y-96925521D01*
X154668570Y-96929162D01*
X154629432Y-96931167D01*
X154573662Y-96931964D01*
X154537994Y-96932045D01*
X154375555Y-96932045D01*
X154375555Y-97090089D01*
X154622161Y-97090089D01*
X154703580Y-97090231D01*
X154765410Y-97090814D01*
X154810637Y-97092068D01*
X154842248Y-97094227D01*
X154863231Y-97097523D01*
X154876573Y-97102189D01*
X154885261Y-97108457D01*
X154887450Y-97110733D01*
X154903614Y-97142280D01*
X154904797Y-97178168D01*
X154891536Y-97209285D01*
X154881043Y-97219271D01*
X154870129Y-97224769D01*
X154853217Y-97229022D01*
X154827633Y-97232180D01*
X154790701Y-97234392D01*
X154739746Y-97235806D01*
X154672094Y-97236572D01*
X154585069Y-97236838D01*
X154565394Y-97236845D01*
X154476911Y-97236787D01*
X154408227Y-97236467D01*
X154356564Y-97235667D01*
X154319145Y-97234167D01*
X154293190Y-97231749D01*
X154275922Y-97228194D01*
X154264562Y-97223282D01*
X154256332Y-97216795D01*
X154251817Y-97212138D01*
X154245021Y-97203889D01*
X154239712Y-97193669D01*
X154235706Y-97178800D01*
X154232821Y-97156602D01*
X154230874Y-97124393D01*
X154229681Y-97079496D01*
X154229061Y-97019228D01*
X154228829Y-96940911D01*
X154228800Y-96874994D01*
X154228871Y-96782628D01*
X154229208Y-96710117D01*
X154229998Y-96654737D01*
X154231426Y-96613765D01*
X154233679Y-96584478D01*
X154236943Y-96564153D01*
X154241404Y-96550066D01*
X154247248Y-96539495D01*
X154252197Y-96532811D01*
X154275594Y-96503067D01*
X154565774Y-96503067D01*
X154662343Y-96503260D01*
G37*
X154662343Y-96503260D02*
X154738701Y-96504174D01*
X154797217Y-96506311D01*
X154840255Y-96510175D01*
X154870183Y-96516267D01*
X154889368Y-96525090D01*
X154900176Y-96537146D01*
X154904973Y-96552939D01*
X154906127Y-96572970D01*
X154906133Y-96575335D01*
X154905131Y-96597992D01*
X154900396Y-96615503D01*
X154889333Y-96628574D01*
X154869348Y-96637913D01*
X154837846Y-96644227D01*
X154792232Y-96648222D01*
X154729913Y-96650606D01*
X154648293Y-96652086D01*
X154623277Y-96652414D01*
X154381200Y-96655467D01*
X154377814Y-96720378D01*
X154374429Y-96785289D01*
X154542576Y-96785289D01*
X154608266Y-96785531D01*
X154655172Y-96786556D01*
X154687083Y-96788811D01*
X154707791Y-96792742D01*
X154721084Y-96798798D01*
X154730755Y-96807424D01*
X154730817Y-96807493D01*
X154748356Y-96841112D01*
X154747722Y-96877448D01*
X154729314Y-96908423D01*
X154725671Y-96911607D01*
X154712741Y-96919812D01*
X154695024Y-96925521D01*
X154668570Y-96929162D01*
X154629432Y-96931167D01*
X154573662Y-96931964D01*
X154537994Y-96932045D01*
X154375555Y-96932045D01*
X154375555Y-97090089D01*
X154622161Y-97090089D01*
X154703580Y-97090231D01*
X154765410Y-97090814D01*
X154810637Y-97092068D01*
X154842248Y-97094227D01*
X154863231Y-97097523D01*
X154876573Y-97102189D01*
X154885261Y-97108457D01*
X154887450Y-97110733D01*
X154903614Y-97142280D01*
X154904797Y-97178168D01*
X154891536Y-97209285D01*
X154881043Y-97219271D01*
X154870129Y-97224769D01*
X154853217Y-97229022D01*
X154827633Y-97232180D01*
X154790701Y-97234392D01*
X154739746Y-97235806D01*
X154672094Y-97236572D01*
X154585069Y-97236838D01*
X154565394Y-97236845D01*
X154476911Y-97236787D01*
X154408227Y-97236467D01*
X154356564Y-97235667D01*
X154319145Y-97234167D01*
X154293190Y-97231749D01*
X154275922Y-97228194D01*
X154264562Y-97223282D01*
X154256332Y-97216795D01*
X154251817Y-97212138D01*
X154245021Y-97203889D01*
X154239712Y-97193669D01*
X154235706Y-97178800D01*
X154232821Y-97156602D01*
X154230874Y-97124393D01*
X154229681Y-97079496D01*
X154229061Y-97019228D01*
X154228829Y-96940911D01*
X154228800Y-96874994D01*
X154228871Y-96782628D01*
X154229208Y-96710117D01*
X154229998Y-96654737D01*
X154231426Y-96613765D01*
X154233679Y-96584478D01*
X154236943Y-96564153D01*
X154241404Y-96550066D01*
X154247248Y-96539495D01*
X154252197Y-96532811D01*
X154275594Y-96503067D01*
X154565774Y-96503067D01*
X154662343Y-96503260D01*
G36*
X153131886Y-96507448D02*
G01*
X153155452Y-96521273D01*
X153186265Y-96543881D01*
X153225922Y-96576338D01*
X153276020Y-96619708D01*
X153338157Y-96675058D01*
X153413928Y-96743451D01*
X153500666Y-96822084D01*
X153681289Y-96985878D01*
X153686933Y-96766029D01*
X153688971Y-96690351D01*
X153690937Y-96633994D01*
X153693266Y-96593706D01*
X153696394Y-96566235D01*
X153700755Y-96548329D01*
X153706784Y-96536737D01*
X153714916Y-96528208D01*
X153719228Y-96524623D01*
X153753759Y-96505670D01*
X153786617Y-96508441D01*
X153812682Y-96524633D01*
X153839333Y-96546199D01*
X153842648Y-96861151D01*
X153843565Y-96953779D01*
X153844032Y-97026544D01*
X153843887Y-97082161D01*
X153842968Y-97123342D01*
X153841113Y-97152803D01*
X153838161Y-97173255D01*
X153833950Y-97187413D01*
X153828318Y-97197991D01*
X153822073Y-97206474D01*
X153808561Y-97222207D01*
X153795117Y-97232636D01*
X153779876Y-97236639D01*
X153760974Y-97233094D01*
X153736545Y-97220879D01*
X153704727Y-97198871D01*
X153663652Y-97165949D01*
X153611458Y-97120991D01*
X153546278Y-97062875D01*
X153472444Y-96996099D01*
X153207155Y-96755458D01*
X153201511Y-96974589D01*
X153199469Y-97050128D01*
X153197498Y-97106354D01*
X153195161Y-97146524D01*
X153192019Y-97173896D01*
X153187636Y-97191728D01*
X153181576Y-97203279D01*
X153173400Y-97211807D01*
X153169216Y-97215282D01*
X153132235Y-97234372D01*
X153097292Y-97231493D01*
X153066864Y-97207100D01*
X153059903Y-97197286D01*
X153054477Y-97185826D01*
X153050397Y-97169968D01*
X153047471Y-97146963D01*
X153045508Y-97114062D01*
X153044317Y-97068516D01*
X153043708Y-97007573D01*
X153043489Y-96928486D01*
X153043466Y-96869956D01*
X153043540Y-96778407D01*
X153043887Y-96706687D01*
X153044699Y-96652045D01*
X153046167Y-96611732D01*
X153048481Y-96582998D01*
X153051833Y-96563093D01*
X153056412Y-96549268D01*
X153062411Y-96538772D01*
X153066864Y-96532811D01*
X153078150Y-96518691D01*
X153088699Y-96508029D01*
X153100107Y-96501892D01*
X153113970Y-96501343D01*
X153131886Y-96507448D01*
G37*
X153131886Y-96507448D02*
X153155452Y-96521273D01*
X153186265Y-96543881D01*
X153225922Y-96576338D01*
X153276020Y-96619708D01*
X153338157Y-96675058D01*
X153413928Y-96743451D01*
X153500666Y-96822084D01*
X153681289Y-96985878D01*
X153686933Y-96766029D01*
X153688971Y-96690351D01*
X153690937Y-96633994D01*
X153693266Y-96593706D01*
X153696394Y-96566235D01*
X153700755Y-96548329D01*
X153706784Y-96536737D01*
X153714916Y-96528208D01*
X153719228Y-96524623D01*
X153753759Y-96505670D01*
X153786617Y-96508441D01*
X153812682Y-96524633D01*
X153839333Y-96546199D01*
X153842648Y-96861151D01*
X153843565Y-96953779D01*
X153844032Y-97026544D01*
X153843887Y-97082161D01*
X153842968Y-97123342D01*
X153841113Y-97152803D01*
X153838161Y-97173255D01*
X153833950Y-97187413D01*
X153828318Y-97197991D01*
X153822073Y-97206474D01*
X153808561Y-97222207D01*
X153795117Y-97232636D01*
X153779876Y-97236639D01*
X153760974Y-97233094D01*
X153736545Y-97220879D01*
X153704727Y-97198871D01*
X153663652Y-97165949D01*
X153611458Y-97120991D01*
X153546278Y-97062875D01*
X153472444Y-96996099D01*
X153207155Y-96755458D01*
X153201511Y-96974589D01*
X153199469Y-97050128D01*
X153197498Y-97106354D01*
X153195161Y-97146524D01*
X153192019Y-97173896D01*
X153187636Y-97191728D01*
X153181576Y-97203279D01*
X153173400Y-97211807D01*
X153169216Y-97215282D01*
X153132235Y-97234372D01*
X153097292Y-97231493D01*
X153066864Y-97207100D01*
X153059903Y-97197286D01*
X153054477Y-97185826D01*
X153050397Y-97169968D01*
X153047471Y-97146963D01*
X153045508Y-97114062D01*
X153044317Y-97068516D01*
X153043708Y-97007573D01*
X153043489Y-96928486D01*
X153043466Y-96869956D01*
X153043540Y-96778407D01*
X153043887Y-96706687D01*
X153044699Y-96652045D01*
X153046167Y-96611732D01*
X153048481Y-96582998D01*
X153051833Y-96563093D01*
X153056412Y-96549268D01*
X153062411Y-96538772D01*
X153066864Y-96532811D01*
X153078150Y-96518691D01*
X153088699Y-96508029D01*
X153100107Y-96501892D01*
X153113970Y-96501343D01*
X153131886Y-96507448D01*
G36*
X152481919Y-96508599D02*
G01*
X152550435Y-96520095D01*
X152603057Y-96537967D01*
X152637292Y-96561499D01*
X152646621Y-96574924D01*
X152656107Y-96606148D01*
X152649723Y-96634395D01*
X152629570Y-96661182D01*
X152598255Y-96673713D01*
X152552817Y-96672696D01*
X152517674Y-96665906D01*
X152439581Y-96652971D01*
X152359774Y-96651742D01*
X152270445Y-96662241D01*
X152245771Y-96666690D01*
X152162709Y-96690108D01*
X152097727Y-96724945D01*
X152051539Y-96770604D01*
X152024855Y-96826494D01*
X152019337Y-96855388D01*
X152022949Y-96914012D01*
X152046271Y-96965879D01*
X152087176Y-97009978D01*
X152143541Y-97045299D01*
X152213240Y-97070829D01*
X152294148Y-97085559D01*
X152384140Y-97088478D01*
X152481090Y-97078575D01*
X152486564Y-97077641D01*
X152525125Y-97070459D01*
X152546506Y-97063521D01*
X152555773Y-97053227D01*
X152557994Y-97035976D01*
X152558044Y-97026841D01*
X152558044Y-96988489D01*
X152489569Y-96988489D01*
X152429100Y-96984347D01*
X152387835Y-96971147D01*
X152363825Y-96947730D01*
X152355123Y-96912936D01*
X152355017Y-96908394D01*
X152360108Y-96878654D01*
X152377567Y-96857419D01*
X152410061Y-96843366D01*
X152460257Y-96835173D01*
X152508877Y-96832161D01*
X152579544Y-96830433D01*
X152630802Y-96833070D01*
X152665761Y-96842800D01*
X152687530Y-96862353D01*
X152699220Y-96894456D01*
X152703940Y-96941838D01*
X152704800Y-97004071D01*
X152703391Y-97073535D01*
X152699152Y-97120786D01*
X152692064Y-97146012D01*
X152690689Y-97147988D01*
X152651772Y-97179508D01*
X152594714Y-97204470D01*
X152523131Y-97222340D01*
X152440642Y-97232586D01*
X152350861Y-97234673D01*
X152257408Y-97228068D01*
X152202444Y-97219956D01*
X152116234Y-97195554D01*
X152036108Y-97155662D01*
X151969023Y-97103887D01*
X151958827Y-97093539D01*
X151925698Y-97050035D01*
X151895806Y-96996118D01*
X151872643Y-96939592D01*
X151859702Y-96888259D01*
X151858142Y-96868544D01*
X151864782Y-96827419D01*
X151882432Y-96776252D01*
X151907703Y-96722394D01*
X151937211Y-96673195D01*
X151963281Y-96640334D01*
X152024235Y-96591452D01*
X152103031Y-96552545D01*
X152196843Y-96524494D01*
X152302850Y-96508179D01*
X152400000Y-96504192D01*
X152481919Y-96508599D01*
G37*
X152481919Y-96508599D02*
X152550435Y-96520095D01*
X152603057Y-96537967D01*
X152637292Y-96561499D01*
X152646621Y-96574924D01*
X152656107Y-96606148D01*
X152649723Y-96634395D01*
X152629570Y-96661182D01*
X152598255Y-96673713D01*
X152552817Y-96672696D01*
X152517674Y-96665906D01*
X152439581Y-96652971D01*
X152359774Y-96651742D01*
X152270445Y-96662241D01*
X152245771Y-96666690D01*
X152162709Y-96690108D01*
X152097727Y-96724945D01*
X152051539Y-96770604D01*
X152024855Y-96826494D01*
X152019337Y-96855388D01*
X152022949Y-96914012D01*
X152046271Y-96965879D01*
X152087176Y-97009978D01*
X152143541Y-97045299D01*
X152213240Y-97070829D01*
X152294148Y-97085559D01*
X152384140Y-97088478D01*
X152481090Y-97078575D01*
X152486564Y-97077641D01*
X152525125Y-97070459D01*
X152546506Y-97063521D01*
X152555773Y-97053227D01*
X152557994Y-97035976D01*
X152558044Y-97026841D01*
X152558044Y-96988489D01*
X152489569Y-96988489D01*
X152429100Y-96984347D01*
X152387835Y-96971147D01*
X152363825Y-96947730D01*
X152355123Y-96912936D01*
X152355017Y-96908394D01*
X152360108Y-96878654D01*
X152377567Y-96857419D01*
X152410061Y-96843366D01*
X152460257Y-96835173D01*
X152508877Y-96832161D01*
X152579544Y-96830433D01*
X152630802Y-96833070D01*
X152665761Y-96842800D01*
X152687530Y-96862353D01*
X152699220Y-96894456D01*
X152703940Y-96941838D01*
X152704800Y-97004071D01*
X152703391Y-97073535D01*
X152699152Y-97120786D01*
X152692064Y-97146012D01*
X152690689Y-97147988D01*
X152651772Y-97179508D01*
X152594714Y-97204470D01*
X152523131Y-97222340D01*
X152440642Y-97232586D01*
X152350861Y-97234673D01*
X152257408Y-97228068D01*
X152202444Y-97219956D01*
X152116234Y-97195554D01*
X152036108Y-97155662D01*
X151969023Y-97103887D01*
X151958827Y-97093539D01*
X151925698Y-97050035D01*
X151895806Y-96996118D01*
X151872643Y-96939592D01*
X151859702Y-96888259D01*
X151858142Y-96868544D01*
X151864782Y-96827419D01*
X151882432Y-96776252D01*
X151907703Y-96722394D01*
X151937211Y-96673195D01*
X151963281Y-96640334D01*
X152024235Y-96591452D01*
X152103031Y-96552545D01*
X152196843Y-96524494D01*
X152302850Y-96508179D01*
X152400000Y-96504192D01*
X152481919Y-96508599D01*
G36*
X151508178Y-96525645D02*
G01*
X151514758Y-96533218D01*
X151519921Y-96542987D01*
X151523836Y-96557571D01*
X151526676Y-96579585D01*
X151528613Y-96611648D01*
X151529817Y-96656375D01*
X151530461Y-96716385D01*
X151530716Y-96794294D01*
X151530755Y-96869956D01*
X151530686Y-96963802D01*
X151530362Y-97037689D01*
X151529614Y-97094232D01*
X151528268Y-97136049D01*
X151526154Y-97165757D01*
X151523100Y-97185973D01*
X151518934Y-97199314D01*
X151513484Y-97208398D01*
X151508178Y-97214267D01*
X151475174Y-97233947D01*
X151440009Y-97232181D01*
X151408545Y-97210717D01*
X151401316Y-97202337D01*
X151395666Y-97192614D01*
X151391401Y-97178861D01*
X151388327Y-97158389D01*
X151386248Y-97128512D01*
X151384970Y-97086541D01*
X151384299Y-97029789D01*
X151384041Y-96955567D01*
X151384000Y-96871537D01*
X151384000Y-96558485D01*
X151411709Y-96530776D01*
X151445863Y-96507463D01*
X151478994Y-96506623D01*
X151508178Y-96525645D01*
G37*
X151508178Y-96525645D02*
X151514758Y-96533218D01*
X151519921Y-96542987D01*
X151523836Y-96557571D01*
X151526676Y-96579585D01*
X151528613Y-96611648D01*
X151529817Y-96656375D01*
X151530461Y-96716385D01*
X151530716Y-96794294D01*
X151530755Y-96869956D01*
X151530686Y-96963802D01*
X151530362Y-97037689D01*
X151529614Y-97094232D01*
X151528268Y-97136049D01*
X151526154Y-97165757D01*
X151523100Y-97185973D01*
X151518934Y-97199314D01*
X151513484Y-97208398D01*
X151508178Y-97214267D01*
X151475174Y-97233947D01*
X151440009Y-97232181D01*
X151408545Y-97210717D01*
X151401316Y-97202337D01*
X151395666Y-97192614D01*
X151391401Y-97178861D01*
X151388327Y-97158389D01*
X151386248Y-97128512D01*
X151384970Y-97086541D01*
X151384299Y-97029789D01*
X151384041Y-96955567D01*
X151384000Y-96871537D01*
X151384000Y-96558485D01*
X151411709Y-96530776D01*
X151445863Y-96507463D01*
X151478994Y-96506623D01*
X151508178Y-96525645D01*
G36*
X150740297Y-96504351D02*
G01*
X150815112Y-96509581D01*
X150884694Y-96517750D01*
X150944998Y-96528550D01*
X150991980Y-96541673D01*
X151021594Y-96556813D01*
X151026140Y-96561269D01*
X151041946Y-96595850D01*
X151037153Y-96631351D01*
X151012636Y-96661725D01*
X151011466Y-96662596D01*
X150997046Y-96671954D01*
X150981992Y-96676876D01*
X150960995Y-96677473D01*
X150928743Y-96673861D01*
X150879927Y-96666154D01*
X150876000Y-96665505D01*
X150803261Y-96656569D01*
X150724783Y-96652161D01*
X150646073Y-96652119D01*
X150572639Y-96656279D01*
X150509989Y-96664479D01*
X150463630Y-96676557D01*
X150460584Y-96677771D01*
X150426952Y-96696615D01*
X150415136Y-96715685D01*
X150424386Y-96734439D01*
X150453953Y-96752337D01*
X150503089Y-96768837D01*
X150571043Y-96783396D01*
X150616355Y-96790406D01*
X150710544Y-96803889D01*
X150785456Y-96816214D01*
X150844283Y-96828449D01*
X150890215Y-96841661D01*
X150926445Y-96856917D01*
X150956162Y-96875285D01*
X150982558Y-96897831D01*
X151003770Y-96919971D01*
X151028935Y-96950819D01*
X151041319Y-96977345D01*
X151045192Y-97010026D01*
X151045333Y-97021995D01*
X151042424Y-97061712D01*
X151030798Y-97091259D01*
X151010677Y-97117486D01*
X150969784Y-97157576D01*
X150924183Y-97188149D01*
X150870487Y-97210203D01*
X150805308Y-97224735D01*
X150725256Y-97232741D01*
X150626943Y-97235218D01*
X150610711Y-97235177D01*
X150545151Y-97233818D01*
X150480134Y-97230730D01*
X150422748Y-97226356D01*
X150380078Y-97221140D01*
X150376628Y-97220541D01*
X150334204Y-97210491D01*
X150298220Y-97197796D01*
X150277850Y-97186190D01*
X150258893Y-97155572D01*
X150257573Y-97119918D01*
X150273915Y-97088144D01*
X150277571Y-97084551D01*
X150292685Y-97073876D01*
X150311585Y-97069276D01*
X150340838Y-97070059D01*
X150376349Y-97074127D01*
X150416030Y-97077762D01*
X150471655Y-97080828D01*
X150536594Y-97083053D01*
X150604215Y-97084164D01*
X150622000Y-97084237D01*
X150689872Y-97083964D01*
X150739546Y-97082646D01*
X150775390Y-97079827D01*
X150801776Y-97075050D01*
X150823074Y-97067857D01*
X150835874Y-97061867D01*
X150864000Y-97045233D01*
X150881932Y-97030168D01*
X150884553Y-97025897D01*
X150879024Y-97008263D01*
X150852740Y-96991192D01*
X150807522Y-96975458D01*
X150745192Y-96961838D01*
X150726829Y-96958804D01*
X150630910Y-96943738D01*
X150554359Y-96931146D01*
X150494220Y-96920111D01*
X150447540Y-96909720D01*
X150411363Y-96899056D01*
X150382735Y-96887205D01*
X150358702Y-96873251D01*
X150336308Y-96856281D01*
X150312598Y-96835378D01*
X150304620Y-96828049D01*
X150276647Y-96800699D01*
X150261840Y-96779029D01*
X150256048Y-96754232D01*
X150255111Y-96722983D01*
X150265425Y-96661705D01*
X150296248Y-96609640D01*
X150347405Y-96566958D01*
X150418717Y-96533825D01*
X150469600Y-96518964D01*
X150524900Y-96509366D01*
X150591147Y-96503936D01*
X150664294Y-96502367D01*
X150740297Y-96504351D01*
G37*
X150740297Y-96504351D02*
X150815112Y-96509581D01*
X150884694Y-96517750D01*
X150944998Y-96528550D01*
X150991980Y-96541673D01*
X151021594Y-96556813D01*
X151026140Y-96561269D01*
X151041946Y-96595850D01*
X151037153Y-96631351D01*
X151012636Y-96661725D01*
X151011466Y-96662596D01*
X150997046Y-96671954D01*
X150981992Y-96676876D01*
X150960995Y-96677473D01*
X150928743Y-96673861D01*
X150879927Y-96666154D01*
X150876000Y-96665505D01*
X150803261Y-96656569D01*
X150724783Y-96652161D01*
X150646073Y-96652119D01*
X150572639Y-96656279D01*
X150509989Y-96664479D01*
X150463630Y-96676557D01*
X150460584Y-96677771D01*
X150426952Y-96696615D01*
X150415136Y-96715685D01*
X150424386Y-96734439D01*
X150453953Y-96752337D01*
X150503089Y-96768837D01*
X150571043Y-96783396D01*
X150616355Y-96790406D01*
X150710544Y-96803889D01*
X150785456Y-96816214D01*
X150844283Y-96828449D01*
X150890215Y-96841661D01*
X150926445Y-96856917D01*
X150956162Y-96875285D01*
X150982558Y-96897831D01*
X151003770Y-96919971D01*
X151028935Y-96950819D01*
X151041319Y-96977345D01*
X151045192Y-97010026D01*
X151045333Y-97021995D01*
X151042424Y-97061712D01*
X151030798Y-97091259D01*
X151010677Y-97117486D01*
X150969784Y-97157576D01*
X150924183Y-97188149D01*
X150870487Y-97210203D01*
X150805308Y-97224735D01*
X150725256Y-97232741D01*
X150626943Y-97235218D01*
X150610711Y-97235177D01*
X150545151Y-97233818D01*
X150480134Y-97230730D01*
X150422748Y-97226356D01*
X150380078Y-97221140D01*
X150376628Y-97220541D01*
X150334204Y-97210491D01*
X150298220Y-97197796D01*
X150277850Y-97186190D01*
X150258893Y-97155572D01*
X150257573Y-97119918D01*
X150273915Y-97088144D01*
X150277571Y-97084551D01*
X150292685Y-97073876D01*
X150311585Y-97069276D01*
X150340838Y-97070059D01*
X150376349Y-97074127D01*
X150416030Y-97077762D01*
X150471655Y-97080828D01*
X150536594Y-97083053D01*
X150604215Y-97084164D01*
X150622000Y-97084237D01*
X150689872Y-97083964D01*
X150739546Y-97082646D01*
X150775390Y-97079827D01*
X150801776Y-97075050D01*
X150823074Y-97067857D01*
X150835874Y-97061867D01*
X150864000Y-97045233D01*
X150881932Y-97030168D01*
X150884553Y-97025897D01*
X150879024Y-97008263D01*
X150852740Y-96991192D01*
X150807522Y-96975458D01*
X150745192Y-96961838D01*
X150726829Y-96958804D01*
X150630910Y-96943738D01*
X150554359Y-96931146D01*
X150494220Y-96920111D01*
X150447540Y-96909720D01*
X150411363Y-96899056D01*
X150382735Y-96887205D01*
X150358702Y-96873251D01*
X150336308Y-96856281D01*
X150312598Y-96835378D01*
X150304620Y-96828049D01*
X150276647Y-96800699D01*
X150261840Y-96779029D01*
X150256048Y-96754232D01*
X150255111Y-96722983D01*
X150265425Y-96661705D01*
X150296248Y-96609640D01*
X150347405Y-96566958D01*
X150418717Y-96533825D01*
X150469600Y-96518964D01*
X150524900Y-96509366D01*
X150591147Y-96503936D01*
X150664294Y-96502367D01*
X150740297Y-96504351D01*
G36*
X149719206Y-96503146D02*
G01*
X149788614Y-96503518D01*
X149841003Y-96504385D01*
X149879153Y-96505946D01*
X149905841Y-96508403D01*
X149923847Y-96511957D01*
X149935951Y-96516810D01*
X149944931Y-96523161D01*
X149948182Y-96526084D01*
X149967957Y-96557142D01*
X149971518Y-96592828D01*
X149958509Y-96624510D01*
X149952494Y-96630913D01*
X149942765Y-96637121D01*
X149927099Y-96641910D01*
X149902592Y-96645514D01*
X149866339Y-96648164D01*
X149815435Y-96650095D01*
X149746974Y-96651539D01*
X149684383Y-96652418D01*
X149436666Y-96655467D01*
X149433281Y-96720378D01*
X149429895Y-96785289D01*
X149598042Y-96785289D01*
X149671041Y-96785919D01*
X149724483Y-96788553D01*
X149761372Y-96794309D01*
X149784712Y-96804304D01*
X149797506Y-96819656D01*
X149802758Y-96841482D01*
X149803555Y-96861738D01*
X149801077Y-96886592D01*
X149791723Y-96904906D01*
X149772617Y-96917637D01*
X149740882Y-96925741D01*
X149693641Y-96930176D01*
X149628017Y-96931899D01*
X149592199Y-96932045D01*
X149431022Y-96932045D01*
X149431022Y-97090089D01*
X149679378Y-97090089D01*
X149760787Y-97090202D01*
X149822658Y-97090712D01*
X149868032Y-97091870D01*
X149899946Y-97093930D01*
X149921441Y-97097146D01*
X149935557Y-97101772D01*
X149945332Y-97108059D01*
X149950311Y-97112667D01*
X149967390Y-97139560D01*
X149972889Y-97163467D01*
X149965037Y-97192667D01*
X149950311Y-97214267D01*
X149942454Y-97221066D01*
X149932312Y-97226346D01*
X149917156Y-97230298D01*
X149894259Y-97233113D01*
X149860891Y-97234982D01*
X149814325Y-97236098D01*
X149751833Y-97236651D01*
X149670686Y-97236833D01*
X149628578Y-97236845D01*
X149538402Y-97236765D01*
X149468076Y-97236398D01*
X149414871Y-97235552D01*
X149376060Y-97234036D01*
X149348913Y-97231659D01*
X149330702Y-97228229D01*
X149318700Y-97223554D01*
X149310178Y-97217444D01*
X149306844Y-97214267D01*
X149300245Y-97206670D01*
X149295073Y-97196870D01*
X149291154Y-97182239D01*
X149288316Y-97160152D01*
X149286385Y-97127982D01*
X149285188Y-97083103D01*
X149284552Y-97022889D01*
X149284303Y-96944713D01*
X149284266Y-96871923D01*
X149284300Y-96778707D01*
X149284535Y-96705431D01*
X149285170Y-96649458D01*
X149286406Y-96608151D01*
X149288444Y-96578872D01*
X149291483Y-96558984D01*
X149295723Y-96545850D01*
X149301365Y-96536832D01*
X149308609Y-96529293D01*
X149310394Y-96527612D01*
X149319055Y-96520172D01*
X149329118Y-96514409D01*
X149343375Y-96510112D01*
X149364617Y-96507064D01*
X149395636Y-96505051D01*
X149439223Y-96503860D01*
X149498169Y-96503275D01*
X149575266Y-96503083D01*
X149629999Y-96503067D01*
X149719206Y-96503146D01*
G37*
X149719206Y-96503146D02*
X149788614Y-96503518D01*
X149841003Y-96504385D01*
X149879153Y-96505946D01*
X149905841Y-96508403D01*
X149923847Y-96511957D01*
X149935951Y-96516810D01*
X149944931Y-96523161D01*
X149948182Y-96526084D01*
X149967957Y-96557142D01*
X149971518Y-96592828D01*
X149958509Y-96624510D01*
X149952494Y-96630913D01*
X149942765Y-96637121D01*
X149927099Y-96641910D01*
X149902592Y-96645514D01*
X149866339Y-96648164D01*
X149815435Y-96650095D01*
X149746974Y-96651539D01*
X149684383Y-96652418D01*
X149436666Y-96655467D01*
X149433281Y-96720378D01*
X149429895Y-96785289D01*
X149598042Y-96785289D01*
X149671041Y-96785919D01*
X149724483Y-96788553D01*
X149761372Y-96794309D01*
X149784712Y-96804304D01*
X149797506Y-96819656D01*
X149802758Y-96841482D01*
X149803555Y-96861738D01*
X149801077Y-96886592D01*
X149791723Y-96904906D01*
X149772617Y-96917637D01*
X149740882Y-96925741D01*
X149693641Y-96930176D01*
X149628017Y-96931899D01*
X149592199Y-96932045D01*
X149431022Y-96932045D01*
X149431022Y-97090089D01*
X149679378Y-97090089D01*
X149760787Y-97090202D01*
X149822658Y-97090712D01*
X149868032Y-97091870D01*
X149899946Y-97093930D01*
X149921441Y-97097146D01*
X149935557Y-97101772D01*
X149945332Y-97108059D01*
X149950311Y-97112667D01*
X149967390Y-97139560D01*
X149972889Y-97163467D01*
X149965037Y-97192667D01*
X149950311Y-97214267D01*
X149942454Y-97221066D01*
X149932312Y-97226346D01*
X149917156Y-97230298D01*
X149894259Y-97233113D01*
X149860891Y-97234982D01*
X149814325Y-97236098D01*
X149751833Y-97236651D01*
X149670686Y-97236833D01*
X149628578Y-97236845D01*
X149538402Y-97236765D01*
X149468076Y-97236398D01*
X149414871Y-97235552D01*
X149376060Y-97234036D01*
X149348913Y-97231659D01*
X149330702Y-97228229D01*
X149318700Y-97223554D01*
X149310178Y-97217444D01*
X149306844Y-97214267D01*
X149300245Y-97206670D01*
X149295073Y-97196870D01*
X149291154Y-97182239D01*
X149288316Y-97160152D01*
X149286385Y-97127982D01*
X149285188Y-97083103D01*
X149284552Y-97022889D01*
X149284303Y-96944713D01*
X149284266Y-96871923D01*
X149284300Y-96778707D01*
X149284535Y-96705431D01*
X149285170Y-96649458D01*
X149286406Y-96608151D01*
X149288444Y-96578872D01*
X149291483Y-96558984D01*
X149295723Y-96545850D01*
X149301365Y-96536832D01*
X149308609Y-96529293D01*
X149310394Y-96527612D01*
X149319055Y-96520172D01*
X149329118Y-96514409D01*
X149343375Y-96510112D01*
X149364617Y-96507064D01*
X149395636Y-96505051D01*
X149439223Y-96503860D01*
X149498169Y-96503275D01*
X149575266Y-96503083D01*
X149629999Y-96503067D01*
X149719206Y-96503146D01*
G36*
X148310629Y-96503066D02*
G01*
X148350111Y-96503467D01*
X148465800Y-96506259D01*
X148562689Y-96514550D01*
X148644081Y-96529232D01*
X148713277Y-96551193D01*
X148773580Y-96581322D01*
X148828292Y-96620510D01*
X148847833Y-96637532D01*
X148880250Y-96677363D01*
X148909480Y-96731413D01*
X148932009Y-96791323D01*
X148944321Y-96848739D01*
X148945600Y-96869956D01*
X148937583Y-96928769D01*
X148916101Y-96993013D01*
X148885001Y-97053821D01*
X148848134Y-97102330D01*
X148842146Y-97108182D01*
X148791421Y-97149321D01*
X148735875Y-97181435D01*
X148672304Y-97205365D01*
X148597506Y-97221953D01*
X148508278Y-97232041D01*
X148401418Y-97236469D01*
X148352472Y-97236845D01*
X148290238Y-97236545D01*
X148246472Y-97235292D01*
X148217069Y-97232554D01*
X148197921Y-97227801D01*
X148184923Y-97220501D01*
X148177955Y-97214267D01*
X148171374Y-97206694D01*
X148166212Y-97196924D01*
X148162297Y-97182340D01*
X148159457Y-97160326D01*
X148157520Y-97128264D01*
X148156316Y-97083536D01*
X148155672Y-97023526D01*
X148155417Y-96945617D01*
X148155378Y-96869956D01*
X148155130Y-96769041D01*
X148155183Y-96688427D01*
X148156143Y-96649822D01*
X148302133Y-96649822D01*
X148302133Y-97090089D01*
X148395266Y-97090004D01*
X148451307Y-97088396D01*
X148510001Y-97084256D01*
X148558972Y-97078464D01*
X148560462Y-97078226D01*
X148639608Y-97059090D01*
X148700998Y-97029287D01*
X148747695Y-96986878D01*
X148777365Y-96940961D01*
X148795647Y-96890026D01*
X148794229Y-96842200D01*
X148773012Y-96790933D01*
X148731511Y-96737899D01*
X148674002Y-96698600D01*
X148599250Y-96672331D01*
X148549292Y-96663035D01*
X148492584Y-96656507D01*
X148432481Y-96651782D01*
X148381361Y-96649817D01*
X148378333Y-96649808D01*
X148302133Y-96649822D01*
X148156143Y-96649822D01*
X148156740Y-96625851D01*
X148161002Y-96579055D01*
X148169170Y-96545778D01*
X148182444Y-96523759D01*
X148202026Y-96510739D01*
X148229117Y-96504457D01*
X148264918Y-96502653D01*
X148310629Y-96503066D01*
G37*
X148310629Y-96503066D02*
X148350111Y-96503467D01*
X148465800Y-96506259D01*
X148562689Y-96514550D01*
X148644081Y-96529232D01*
X148713277Y-96551193D01*
X148773580Y-96581322D01*
X148828292Y-96620510D01*
X148847833Y-96637532D01*
X148880250Y-96677363D01*
X148909480Y-96731413D01*
X148932009Y-96791323D01*
X148944321Y-96848739D01*
X148945600Y-96869956D01*
X148937583Y-96928769D01*
X148916101Y-96993013D01*
X148885001Y-97053821D01*
X148848134Y-97102330D01*
X148842146Y-97108182D01*
X148791421Y-97149321D01*
X148735875Y-97181435D01*
X148672304Y-97205365D01*
X148597506Y-97221953D01*
X148508278Y-97232041D01*
X148401418Y-97236469D01*
X148352472Y-97236845D01*
X148290238Y-97236545D01*
X148246472Y-97235292D01*
X148217069Y-97232554D01*
X148197921Y-97227801D01*
X148184923Y-97220501D01*
X148177955Y-97214267D01*
X148171374Y-97206694D01*
X148166212Y-97196924D01*
X148162297Y-97182340D01*
X148159457Y-97160326D01*
X148157520Y-97128264D01*
X148156316Y-97083536D01*
X148155672Y-97023526D01*
X148155417Y-96945617D01*
X148155378Y-96869956D01*
X148155130Y-96769041D01*
X148155183Y-96688427D01*
X148156143Y-96649822D01*
X148302133Y-96649822D01*
X148302133Y-97090089D01*
X148395266Y-97090004D01*
X148451307Y-97088396D01*
X148510001Y-97084256D01*
X148558972Y-97078464D01*
X148560462Y-97078226D01*
X148639608Y-97059090D01*
X148700998Y-97029287D01*
X148747695Y-96986878D01*
X148777365Y-96940961D01*
X148795647Y-96890026D01*
X148794229Y-96842200D01*
X148773012Y-96790933D01*
X148731511Y-96737899D01*
X148674002Y-96698600D01*
X148599250Y-96672331D01*
X148549292Y-96663035D01*
X148492584Y-96656507D01*
X148432481Y-96651782D01*
X148381361Y-96649817D01*
X148378333Y-96649808D01*
X148302133Y-96649822D01*
X148156143Y-96649822D01*
X148156740Y-96625851D01*
X148161002Y-96579055D01*
X148169170Y-96545778D01*
X148182444Y-96523759D01*
X148202026Y-96510739D01*
X148229117Y-96504457D01*
X148264918Y-96502653D01*
X148310629Y-96503066D01*
G36*
X152158957Y-91260571D02*
G01*
X152255232Y-91284809D01*
X152341816Y-91327641D01*
X152416627Y-91387419D01*
X152477582Y-91462494D01*
X152522601Y-91551220D01*
X152548864Y-91647530D01*
X152554714Y-91744795D01*
X152539860Y-91838654D01*
X152506160Y-91926511D01*
X152455472Y-92005770D01*
X152389655Y-92073836D01*
X152310566Y-92128112D01*
X152220066Y-92166002D01*
X152168800Y-92178426D01*
X152124302Y-92185947D01*
X152090001Y-92188919D01*
X152057040Y-92187094D01*
X152016566Y-92180225D01*
X151983469Y-92173250D01*
X151890053Y-92141741D01*
X151806381Y-92090617D01*
X151734335Y-92021429D01*
X151675800Y-91935728D01*
X151661852Y-91908489D01*
X151645414Y-91872122D01*
X151635106Y-91841582D01*
X151629540Y-91809450D01*
X151627331Y-91768307D01*
X151627052Y-91722222D01*
X151631139Y-91637865D01*
X151644554Y-91568586D01*
X151669744Y-91507961D01*
X151709154Y-91449567D01*
X151747702Y-91405302D01*
X151819594Y-91339484D01*
X151894687Y-91294053D01*
X151977438Y-91266850D01*
X152055072Y-91256576D01*
X152158957Y-91260571D01*
G37*
X152158957Y-91260571D02*
X152255232Y-91284809D01*
X152341816Y-91327641D01*
X152416627Y-91387419D01*
X152477582Y-91462494D01*
X152522601Y-91551220D01*
X152548864Y-91647530D01*
X152554714Y-91744795D01*
X152539860Y-91838654D01*
X152506160Y-91926511D01*
X152455472Y-92005770D01*
X152389655Y-92073836D01*
X152310566Y-92128112D01*
X152220066Y-92166002D01*
X152168800Y-92178426D01*
X152124302Y-92185947D01*
X152090001Y-92188919D01*
X152057040Y-92187094D01*
X152016566Y-92180225D01*
X151983469Y-92173250D01*
X151890053Y-92141741D01*
X151806381Y-92090617D01*
X151734335Y-92021429D01*
X151675800Y-91935728D01*
X151661852Y-91908489D01*
X151645414Y-91872122D01*
X151635106Y-91841582D01*
X151629540Y-91809450D01*
X151627331Y-91768307D01*
X151627052Y-91722222D01*
X151631139Y-91637865D01*
X151644554Y-91568586D01*
X151669744Y-91507961D01*
X151709154Y-91449567D01*
X151747702Y-91405302D01*
X151819594Y-91339484D01*
X151894687Y-91294053D01*
X151977438Y-91266850D01*
X152055072Y-91256576D01*
X152158957Y-91260571D01*
G36*
X160618507Y-93706245D02*
G01*
X160618526Y-93940662D01*
X160618552Y-94153603D01*
X160618625Y-94346168D01*
X160618782Y-94519459D01*
X160619064Y-94674576D01*
X160619509Y-94812620D01*
X160620156Y-94934692D01*
X160621045Y-95041894D01*
X160622213Y-95135326D01*
X160623701Y-95216090D01*
X160625546Y-95285286D01*
X160627789Y-95344015D01*
X160630469Y-95393379D01*
X160633623Y-95434478D01*
X160637292Y-95468413D01*
X160641513Y-95496286D01*
X160646327Y-95519198D01*
X160651773Y-95538249D01*
X160657888Y-95554540D01*
X160664712Y-95569173D01*
X160672285Y-95583249D01*
X160680645Y-95597868D01*
X160685839Y-95606974D01*
X160720104Y-95667689D01*
X159861955Y-95667689D01*
X159861955Y-95571733D01*
X159861224Y-95528370D01*
X159859272Y-95495205D01*
X159856463Y-95477424D01*
X159855221Y-95475778D01*
X159843799Y-95482662D01*
X159821084Y-95500505D01*
X159798385Y-95519879D01*
X159743800Y-95560614D01*
X159674321Y-95601617D01*
X159597270Y-95639123D01*
X159519965Y-95669364D01*
X159489113Y-95679012D01*
X159420616Y-95693578D01*
X159337764Y-95703539D01*
X159248371Y-95708583D01*
X159160248Y-95708396D01*
X159081207Y-95702666D01*
X159043511Y-95696858D01*
X158905414Y-95658797D01*
X158778113Y-95601073D01*
X158662292Y-95524211D01*
X158558637Y-95428739D01*
X158467833Y-95315179D01*
X158401031Y-95204381D01*
X158346164Y-95087625D01*
X158304163Y-94968276D01*
X158274167Y-94842283D01*
X158255311Y-94705594D01*
X158246732Y-94554158D01*
X158246006Y-94476711D01*
X158248100Y-94419934D01*
X159077217Y-94419934D01*
X159077424Y-94513002D01*
X159080337Y-94600692D01*
X159086000Y-94677772D01*
X159094455Y-94739009D01*
X159097038Y-94751350D01*
X159128840Y-94858633D01*
X159170498Y-94945658D01*
X159222363Y-95012642D01*
X159284781Y-95059805D01*
X159358100Y-95087365D01*
X159442669Y-95095541D01*
X159538835Y-95084551D01*
X159602311Y-95068829D01*
X159651454Y-95050639D01*
X159705583Y-95024791D01*
X159746244Y-95001089D01*
X159816800Y-94954721D01*
X159816800Y-93804530D01*
X159749392Y-93760962D01*
X159670867Y-93720040D01*
X159586681Y-93693389D01*
X159501557Y-93681465D01*
X159420216Y-93684722D01*
X159347380Y-93703615D01*
X159315426Y-93719184D01*
X159257501Y-93762181D01*
X159208544Y-93818953D01*
X159167390Y-93891575D01*
X159132874Y-93982121D01*
X159103833Y-94092666D01*
X159102552Y-94098533D01*
X159092381Y-94160788D01*
X159084739Y-94238594D01*
X159079670Y-94326720D01*
X159077217Y-94419934D01*
X158248100Y-94419934D01*
X158253857Y-94263895D01*
X158275802Y-94068059D01*
X158311786Y-93889332D01*
X158361759Y-93727845D01*
X158425668Y-93583726D01*
X158503462Y-93457106D01*
X158595089Y-93348115D01*
X158700497Y-93256883D01*
X158745662Y-93225932D01*
X158846611Y-93169785D01*
X158949901Y-93130174D01*
X159059989Y-93106014D01*
X159181330Y-93096219D01*
X159273836Y-93097265D01*
X159403490Y-93108231D01*
X159516084Y-93130046D01*
X159614875Y-93163714D01*
X159703121Y-93210236D01*
X159751986Y-93244448D01*
X159781353Y-93266362D01*
X159803043Y-93281333D01*
X159811253Y-93285733D01*
X159812868Y-93274904D01*
X159814159Y-93244251D01*
X159815138Y-93196526D01*
X159815817Y-93134479D01*
X159816210Y-93060862D01*
X159816330Y-92978427D01*
X159816188Y-92889925D01*
X159815797Y-92798107D01*
X159815171Y-92705724D01*
X159814320Y-92615528D01*
X159813260Y-92530271D01*
X159812001Y-92452703D01*
X159810556Y-92385576D01*
X159808938Y-92331641D01*
X159807161Y-92293650D01*
X159806669Y-92286667D01*
X159799092Y-92216251D01*
X159787531Y-92161102D01*
X159769792Y-92113981D01*
X159743682Y-92067647D01*
X159737415Y-92058067D01*
X159712983Y-92021378D01*
X160618311Y-92021378D01*
X160618507Y-93706245D01*
G37*
X160618507Y-93706245D02*
X160618526Y-93940662D01*
X160618552Y-94153603D01*
X160618625Y-94346168D01*
X160618782Y-94519459D01*
X160619064Y-94674576D01*
X160619509Y-94812620D01*
X160620156Y-94934692D01*
X160621045Y-95041894D01*
X160622213Y-95135326D01*
X160623701Y-95216090D01*
X160625546Y-95285286D01*
X160627789Y-95344015D01*
X160630469Y-95393379D01*
X160633623Y-95434478D01*
X160637292Y-95468413D01*
X160641513Y-95496286D01*
X160646327Y-95519198D01*
X160651773Y-95538249D01*
X160657888Y-95554540D01*
X160664712Y-95569173D01*
X160672285Y-95583249D01*
X160680645Y-95597868D01*
X160685839Y-95606974D01*
X160720104Y-95667689D01*
X159861955Y-95667689D01*
X159861955Y-95571733D01*
X159861224Y-95528370D01*
X159859272Y-95495205D01*
X159856463Y-95477424D01*
X159855221Y-95475778D01*
X159843799Y-95482662D01*
X159821084Y-95500505D01*
X159798385Y-95519879D01*
X159743800Y-95560614D01*
X159674321Y-95601617D01*
X159597270Y-95639123D01*
X159519965Y-95669364D01*
X159489113Y-95679012D01*
X159420616Y-95693578D01*
X159337764Y-95703539D01*
X159248371Y-95708583D01*
X159160248Y-95708396D01*
X159081207Y-95702666D01*
X159043511Y-95696858D01*
X158905414Y-95658797D01*
X158778113Y-95601073D01*
X158662292Y-95524211D01*
X158558637Y-95428739D01*
X158467833Y-95315179D01*
X158401031Y-95204381D01*
X158346164Y-95087625D01*
X158304163Y-94968276D01*
X158274167Y-94842283D01*
X158255311Y-94705594D01*
X158246732Y-94554158D01*
X158246006Y-94476711D01*
X158248100Y-94419934D01*
X159077217Y-94419934D01*
X159077424Y-94513002D01*
X159080337Y-94600692D01*
X159086000Y-94677772D01*
X159094455Y-94739009D01*
X159097038Y-94751350D01*
X159128840Y-94858633D01*
X159170498Y-94945658D01*
X159222363Y-95012642D01*
X159284781Y-95059805D01*
X159358100Y-95087365D01*
X159442669Y-95095541D01*
X159538835Y-95084551D01*
X159602311Y-95068829D01*
X159651454Y-95050639D01*
X159705583Y-95024791D01*
X159746244Y-95001089D01*
X159816800Y-94954721D01*
X159816800Y-93804530D01*
X159749392Y-93760962D01*
X159670867Y-93720040D01*
X159586681Y-93693389D01*
X159501557Y-93681465D01*
X159420216Y-93684722D01*
X159347380Y-93703615D01*
X159315426Y-93719184D01*
X159257501Y-93762181D01*
X159208544Y-93818953D01*
X159167390Y-93891575D01*
X159132874Y-93982121D01*
X159103833Y-94092666D01*
X159102552Y-94098533D01*
X159092381Y-94160788D01*
X159084739Y-94238594D01*
X159079670Y-94326720D01*
X159077217Y-94419934D01*
X158248100Y-94419934D01*
X158253857Y-94263895D01*
X158275802Y-94068059D01*
X158311786Y-93889332D01*
X158361759Y-93727845D01*
X158425668Y-93583726D01*
X158503462Y-93457106D01*
X158595089Y-93348115D01*
X158700497Y-93256883D01*
X158745662Y-93225932D01*
X158846611Y-93169785D01*
X158949901Y-93130174D01*
X159059989Y-93106014D01*
X159181330Y-93096219D01*
X159273836Y-93097265D01*
X159403490Y-93108231D01*
X159516084Y-93130046D01*
X159614875Y-93163714D01*
X159703121Y-93210236D01*
X159751986Y-93244448D01*
X159781353Y-93266362D01*
X159803043Y-93281333D01*
X159811253Y-93285733D01*
X159812868Y-93274904D01*
X159814159Y-93244251D01*
X159815138Y-93196526D01*
X159815817Y-93134479D01*
X159816210Y-93060862D01*
X159816330Y-92978427D01*
X159816188Y-92889925D01*
X159815797Y-92798107D01*
X159815171Y-92705724D01*
X159814320Y-92615528D01*
X159813260Y-92530271D01*
X159812001Y-92452703D01*
X159810556Y-92385576D01*
X159808938Y-92331641D01*
X159807161Y-92293650D01*
X159806669Y-92286667D01*
X159799092Y-92216251D01*
X159787531Y-92161102D01*
X159769792Y-92113981D01*
X159743682Y-92067647D01*
X159737415Y-92058067D01*
X159712983Y-92021378D01*
X160618311Y-92021378D01*
X160618507Y-93706245D01*
G36*
X157105574Y-93100552D02*
G01*
X157257492Y-93120567D01*
X157392756Y-93154202D01*
X157512239Y-93201725D01*
X157616815Y-93263405D01*
X157694424Y-93326965D01*
X157763265Y-93401099D01*
X157817006Y-93480871D01*
X157859910Y-93573091D01*
X157875384Y-93616161D01*
X157888244Y-93655142D01*
X157899446Y-93691289D01*
X157909120Y-93726434D01*
X157917396Y-93762410D01*
X157924403Y-93801050D01*
X157930272Y-93844185D01*
X157935131Y-93893649D01*
X157939110Y-93951273D01*
X157942340Y-94018891D01*
X157944949Y-94098334D01*
X157947067Y-94191436D01*
X157948824Y-94300027D01*
X157950349Y-94425942D01*
X157951772Y-94571012D01*
X157953025Y-94713778D01*
X157954351Y-94869968D01*
X157955556Y-95005239D01*
X157956766Y-95121246D01*
X157958106Y-95219645D01*
X157959700Y-95302093D01*
X157961675Y-95370246D01*
X157964156Y-95425760D01*
X157967269Y-95470292D01*
X157971138Y-95505498D01*
X157975889Y-95533034D01*
X157981648Y-95554556D01*
X157988539Y-95571722D01*
X157996689Y-95586186D01*
X158006223Y-95599606D01*
X158017266Y-95613638D01*
X158021566Y-95619071D01*
X158037386Y-95641910D01*
X158044422Y-95657463D01*
X158044444Y-95657922D01*
X158033567Y-95660121D01*
X158002582Y-95662147D01*
X157953957Y-95663942D01*
X157890163Y-95665451D01*
X157813669Y-95666616D01*
X157726944Y-95667380D01*
X157632457Y-95667686D01*
X157621550Y-95667689D01*
X157198657Y-95667689D01*
X157195395Y-95571622D01*
X157192133Y-95475556D01*
X157130044Y-95526543D01*
X157032714Y-95594057D01*
X156922813Y-95648749D01*
X156836349Y-95678978D01*
X156767278Y-95693666D01*
X156683925Y-95703659D01*
X156594159Y-95708646D01*
X156505845Y-95708313D01*
X156426851Y-95702351D01*
X156390622Y-95696638D01*
X156250603Y-95658776D01*
X156124178Y-95603932D01*
X156012260Y-95532924D01*
X155915762Y-95446568D01*
X155835600Y-95345679D01*
X155772687Y-95231076D01*
X155728312Y-95104984D01*
X155715978Y-95048401D01*
X155708368Y-94986202D01*
X155704739Y-94911363D01*
X155704245Y-94877467D01*
X155704310Y-94874282D01*
X156464248Y-94874282D01*
X156473541Y-94949333D01*
X156501728Y-95013160D01*
X156550197Y-95068798D01*
X156555254Y-95073211D01*
X156603548Y-95108037D01*
X156655257Y-95130620D01*
X156715989Y-95142540D01*
X156791352Y-95145383D01*
X156809459Y-95144978D01*
X156863278Y-95142325D01*
X156903308Y-95136909D01*
X156938324Y-95126745D01*
X156977103Y-95109850D01*
X156987745Y-95104672D01*
X157048396Y-95068844D01*
X157095215Y-95026212D01*
X157107952Y-95010973D01*
X157152622Y-94954462D01*
X157152622Y-94758586D01*
X157152086Y-94679939D01*
X157150396Y-94621988D01*
X157147428Y-94582875D01*
X157143057Y-94560741D01*
X157138972Y-94554274D01*
X157123047Y-94551111D01*
X157089264Y-94548488D01*
X157042340Y-94546655D01*
X156986993Y-94545857D01*
X156978106Y-94545842D01*
X156857330Y-94551096D01*
X156754660Y-94567263D01*
X156668106Y-94594961D01*
X156595681Y-94634808D01*
X156540751Y-94681758D01*
X156496204Y-94739645D01*
X156471480Y-94802693D01*
X156464248Y-94874282D01*
X155704310Y-94874282D01*
X155706178Y-94783712D01*
X155714522Y-94704812D01*
X155730768Y-94633590D01*
X155756405Y-94562864D01*
X155780401Y-94510493D01*
X155839020Y-94415196D01*
X155917117Y-94327170D01*
X156012315Y-94248017D01*
X156122238Y-94179340D01*
X156244510Y-94122741D01*
X156376755Y-94079821D01*
X156441422Y-94064882D01*
X156577604Y-94042777D01*
X156726049Y-94028194D01*
X156877505Y-94021813D01*
X157004064Y-94023445D01*
X157165950Y-94030224D01*
X157158530Y-93971245D01*
X157139238Y-93872092D01*
X157108104Y-93791372D01*
X157064269Y-93728466D01*
X157006871Y-93682756D01*
X156935048Y-93653622D01*
X156847941Y-93640447D01*
X156744686Y-93642611D01*
X156706711Y-93646612D01*
X156565520Y-93671780D01*
X156428707Y-93712814D01*
X156334178Y-93750815D01*
X156289018Y-93770190D01*
X156250585Y-93785760D01*
X156224234Y-93795405D01*
X156216546Y-93797452D01*
X156206802Y-93788374D01*
X156190083Y-93759405D01*
X156166232Y-93710217D01*
X156135093Y-93640484D01*
X156096507Y-93549879D01*
X156089910Y-93534089D01*
X156059853Y-93461772D01*
X156032874Y-93396425D01*
X156010136Y-93340906D01*
X155992806Y-93298072D01*
X155982048Y-93270781D01*
X155978941Y-93261942D01*
X155988940Y-93257187D01*
X156015217Y-93251910D01*
X156043489Y-93248231D01*
X156073646Y-93243474D01*
X156121433Y-93234028D01*
X156182612Y-93220820D01*
X156252946Y-93204776D01*
X156328194Y-93186820D01*
X156356755Y-93179797D01*
X156461816Y-93154209D01*
X156549480Y-93134147D01*
X156624068Y-93118969D01*
X156689903Y-93108035D01*
X156751307Y-93100704D01*
X156812602Y-93096335D01*
X156878110Y-93094287D01*
X156936128Y-93093889D01*
X157105574Y-93100552D01*
G37*
X157105574Y-93100552D02*
X157257492Y-93120567D01*
X157392756Y-93154202D01*
X157512239Y-93201725D01*
X157616815Y-93263405D01*
X157694424Y-93326965D01*
X157763265Y-93401099D01*
X157817006Y-93480871D01*
X157859910Y-93573091D01*
X157875384Y-93616161D01*
X157888244Y-93655142D01*
X157899446Y-93691289D01*
X157909120Y-93726434D01*
X157917396Y-93762410D01*
X157924403Y-93801050D01*
X157930272Y-93844185D01*
X157935131Y-93893649D01*
X157939110Y-93951273D01*
X157942340Y-94018891D01*
X157944949Y-94098334D01*
X157947067Y-94191436D01*
X157948824Y-94300027D01*
X157950349Y-94425942D01*
X157951772Y-94571012D01*
X157953025Y-94713778D01*
X157954351Y-94869968D01*
X157955556Y-95005239D01*
X157956766Y-95121246D01*
X157958106Y-95219645D01*
X157959700Y-95302093D01*
X157961675Y-95370246D01*
X157964156Y-95425760D01*
X157967269Y-95470292D01*
X157971138Y-95505498D01*
X157975889Y-95533034D01*
X157981648Y-95554556D01*
X157988539Y-95571722D01*
X157996689Y-95586186D01*
X158006223Y-95599606D01*
X158017266Y-95613638D01*
X158021566Y-95619071D01*
X158037386Y-95641910D01*
X158044422Y-95657463D01*
X158044444Y-95657922D01*
X158033567Y-95660121D01*
X158002582Y-95662147D01*
X157953957Y-95663942D01*
X157890163Y-95665451D01*
X157813669Y-95666616D01*
X157726944Y-95667380D01*
X157632457Y-95667686D01*
X157621550Y-95667689D01*
X157198657Y-95667689D01*
X157195395Y-95571622D01*
X157192133Y-95475556D01*
X157130044Y-95526543D01*
X157032714Y-95594057D01*
X156922813Y-95648749D01*
X156836349Y-95678978D01*
X156767278Y-95693666D01*
X156683925Y-95703659D01*
X156594159Y-95708646D01*
X156505845Y-95708313D01*
X156426851Y-95702351D01*
X156390622Y-95696638D01*
X156250603Y-95658776D01*
X156124178Y-95603932D01*
X156012260Y-95532924D01*
X155915762Y-95446568D01*
X155835600Y-95345679D01*
X155772687Y-95231076D01*
X155728312Y-95104984D01*
X155715978Y-95048401D01*
X155708368Y-94986202D01*
X155704739Y-94911363D01*
X155704245Y-94877467D01*
X155704310Y-94874282D01*
X156464248Y-94874282D01*
X156473541Y-94949333D01*
X156501728Y-95013160D01*
X156550197Y-95068798D01*
X156555254Y-95073211D01*
X156603548Y-95108037D01*
X156655257Y-95130620D01*
X156715989Y-95142540D01*
X156791352Y-95145383D01*
X156809459Y-95144978D01*
X156863278Y-95142325D01*
X156903308Y-95136909D01*
X156938324Y-95126745D01*
X156977103Y-95109850D01*
X156987745Y-95104672D01*
X157048396Y-95068844D01*
X157095215Y-95026212D01*
X157107952Y-95010973D01*
X157152622Y-94954462D01*
X157152622Y-94758586D01*
X157152086Y-94679939D01*
X157150396Y-94621988D01*
X157147428Y-94582875D01*
X157143057Y-94560741D01*
X157138972Y-94554274D01*
X157123047Y-94551111D01*
X157089264Y-94548488D01*
X157042340Y-94546655D01*
X156986993Y-94545857D01*
X156978106Y-94545842D01*
X156857330Y-94551096D01*
X156754660Y-94567263D01*
X156668106Y-94594961D01*
X156595681Y-94634808D01*
X156540751Y-94681758D01*
X156496204Y-94739645D01*
X156471480Y-94802693D01*
X156464248Y-94874282D01*
X155704310Y-94874282D01*
X155706178Y-94783712D01*
X155714522Y-94704812D01*
X155730768Y-94633590D01*
X155756405Y-94562864D01*
X155780401Y-94510493D01*
X155839020Y-94415196D01*
X155917117Y-94327170D01*
X156012315Y-94248017D01*
X156122238Y-94179340D01*
X156244510Y-94122741D01*
X156376755Y-94079821D01*
X156441422Y-94064882D01*
X156577604Y-94042777D01*
X156726049Y-94028194D01*
X156877505Y-94021813D01*
X157004064Y-94023445D01*
X157165950Y-94030224D01*
X157158530Y-93971245D01*
X157139238Y-93872092D01*
X157108104Y-93791372D01*
X157064269Y-93728466D01*
X157006871Y-93682756D01*
X156935048Y-93653622D01*
X156847941Y-93640447D01*
X156744686Y-93642611D01*
X156706711Y-93646612D01*
X156565520Y-93671780D01*
X156428707Y-93712814D01*
X156334178Y-93750815D01*
X156289018Y-93770190D01*
X156250585Y-93785760D01*
X156224234Y-93795405D01*
X156216546Y-93797452D01*
X156206802Y-93788374D01*
X156190083Y-93759405D01*
X156166232Y-93710217D01*
X156135093Y-93640484D01*
X156096507Y-93549879D01*
X156089910Y-93534089D01*
X156059853Y-93461772D01*
X156032874Y-93396425D01*
X156010136Y-93340906D01*
X155992806Y-93298072D01*
X155982048Y-93270781D01*
X155978941Y-93261942D01*
X155988940Y-93257187D01*
X156015217Y-93251910D01*
X156043489Y-93248231D01*
X156073646Y-93243474D01*
X156121433Y-93234028D01*
X156182612Y-93220820D01*
X156252946Y-93204776D01*
X156328194Y-93186820D01*
X156356755Y-93179797D01*
X156461816Y-93154209D01*
X156549480Y-93134147D01*
X156624068Y-93118969D01*
X156689903Y-93108035D01*
X156751307Y-93100704D01*
X156812602Y-93096335D01*
X156878110Y-93094287D01*
X156936128Y-93093889D01*
X157105574Y-93100552D01*
G36*
X154760429Y-92183071D02*
G01*
X154920570Y-92204245D01*
X155084510Y-92244385D01*
X155254313Y-92303889D01*
X155432043Y-92383154D01*
X155443310Y-92388699D01*
X155501005Y-92416725D01*
X155552552Y-92440802D01*
X155594191Y-92459249D01*
X155622162Y-92470386D01*
X155631733Y-92472933D01*
X155650950Y-92477941D01*
X155655561Y-92482147D01*
X155650458Y-92492580D01*
X155634418Y-92518868D01*
X155609288Y-92558257D01*
X155576914Y-92607991D01*
X155539143Y-92665315D01*
X155497822Y-92727476D01*
X155454798Y-92791718D01*
X155411917Y-92855285D01*
X155371026Y-92915425D01*
X155333971Y-92969380D01*
X155302600Y-93014397D01*
X155278759Y-93047721D01*
X155264294Y-93066597D01*
X155262309Y-93068787D01*
X155252191Y-93064138D01*
X155229850Y-93046962D01*
X155199280Y-93020440D01*
X155183536Y-93005964D01*
X155087047Y-92930682D01*
X154980336Y-92875241D01*
X154864832Y-92840141D01*
X154741962Y-92825880D01*
X154672561Y-92827051D01*
X154551423Y-92844212D01*
X154442205Y-92880094D01*
X154344582Y-92934959D01*
X154258228Y-93009070D01*
X154182815Y-93102688D01*
X154118018Y-93216076D01*
X154080601Y-93302667D01*
X154036748Y-93438366D01*
X154004428Y-93585850D01*
X153983557Y-93741314D01*
X153974051Y-93900956D01*
X153975827Y-94060973D01*
X153988803Y-94217561D01*
X154012894Y-94366918D01*
X154048018Y-94505240D01*
X154094092Y-94628724D01*
X154110373Y-94662978D01*
X154178620Y-94777064D01*
X154259079Y-94873557D01*
X154350570Y-94951670D01*
X154451911Y-95010617D01*
X154561920Y-95049612D01*
X154679415Y-95067868D01*
X154720883Y-95069211D01*
X154842441Y-95058290D01*
X154962878Y-95025474D01*
X155080666Y-94971439D01*
X155194277Y-94896865D01*
X155285685Y-94818539D01*
X155332215Y-94774008D01*
X155513483Y-95071271D01*
X155558580Y-95145433D01*
X155599819Y-95213646D01*
X155635735Y-95273459D01*
X155664866Y-95322420D01*
X155685750Y-95358079D01*
X155696924Y-95377984D01*
X155698375Y-95381079D01*
X155690146Y-95390718D01*
X155664567Y-95407999D01*
X155624873Y-95431283D01*
X155574297Y-95458934D01*
X155516074Y-95489315D01*
X155453437Y-95520790D01*
X155389621Y-95551722D01*
X155327860Y-95580473D01*
X155271388Y-95605408D01*
X155223438Y-95624889D01*
X155199986Y-95633318D01*
X155066221Y-95671133D01*
X154928327Y-95696136D01*
X154780622Y-95709140D01*
X154653833Y-95711468D01*
X154585878Y-95710373D01*
X154520277Y-95708275D01*
X154462847Y-95705434D01*
X154419403Y-95702106D01*
X154405298Y-95700422D01*
X154266284Y-95671587D01*
X154124757Y-95626468D01*
X153987275Y-95567750D01*
X153860394Y-95498120D01*
X153782889Y-95445441D01*
X153655481Y-95337239D01*
X153537178Y-95210671D01*
X153430172Y-95068866D01*
X153336652Y-94914951D01*
X153258810Y-94752053D01*
X153214956Y-94634756D01*
X153164708Y-94451128D01*
X153131209Y-94256581D01*
X153114449Y-94055325D01*
X153114416Y-93851568D01*
X153131101Y-93649521D01*
X153164493Y-93453392D01*
X153214580Y-93267391D01*
X153218397Y-93255803D01*
X153281281Y-93093750D01*
X153358028Y-92945832D01*
X153451242Y-92807865D01*
X153563527Y-92675661D01*
X153607392Y-92630399D01*
X153743534Y-92506457D01*
X153883491Y-92403915D01*
X154029411Y-92321656D01*
X154183442Y-92258564D01*
X154347732Y-92213523D01*
X154443289Y-92196033D01*
X154602023Y-92180466D01*
X154760429Y-92183071D01*
G37*
X154760429Y-92183071D02*
X154920570Y-92204245D01*
X155084510Y-92244385D01*
X155254313Y-92303889D01*
X155432043Y-92383154D01*
X155443310Y-92388699D01*
X155501005Y-92416725D01*
X155552552Y-92440802D01*
X155594191Y-92459249D01*
X155622162Y-92470386D01*
X155631733Y-92472933D01*
X155650950Y-92477941D01*
X155655561Y-92482147D01*
X155650458Y-92492580D01*
X155634418Y-92518868D01*
X155609288Y-92558257D01*
X155576914Y-92607991D01*
X155539143Y-92665315D01*
X155497822Y-92727476D01*
X155454798Y-92791718D01*
X155411917Y-92855285D01*
X155371026Y-92915425D01*
X155333971Y-92969380D01*
X155302600Y-93014397D01*
X155278759Y-93047721D01*
X155264294Y-93066597D01*
X155262309Y-93068787D01*
X155252191Y-93064138D01*
X155229850Y-93046962D01*
X155199280Y-93020440D01*
X155183536Y-93005964D01*
X155087047Y-92930682D01*
X154980336Y-92875241D01*
X154864832Y-92840141D01*
X154741962Y-92825880D01*
X154672561Y-92827051D01*
X154551423Y-92844212D01*
X154442205Y-92880094D01*
X154344582Y-92934959D01*
X154258228Y-93009070D01*
X154182815Y-93102688D01*
X154118018Y-93216076D01*
X154080601Y-93302667D01*
X154036748Y-93438366D01*
X154004428Y-93585850D01*
X153983557Y-93741314D01*
X153974051Y-93900956D01*
X153975827Y-94060973D01*
X153988803Y-94217561D01*
X154012894Y-94366918D01*
X154048018Y-94505240D01*
X154094092Y-94628724D01*
X154110373Y-94662978D01*
X154178620Y-94777064D01*
X154259079Y-94873557D01*
X154350570Y-94951670D01*
X154451911Y-95010617D01*
X154561920Y-95049612D01*
X154679415Y-95067868D01*
X154720883Y-95069211D01*
X154842441Y-95058290D01*
X154962878Y-95025474D01*
X155080666Y-94971439D01*
X155194277Y-94896865D01*
X155285685Y-94818539D01*
X155332215Y-94774008D01*
X155513483Y-95071271D01*
X155558580Y-95145433D01*
X155599819Y-95213646D01*
X155635735Y-95273459D01*
X155664866Y-95322420D01*
X155685750Y-95358079D01*
X155696924Y-95377984D01*
X155698375Y-95381079D01*
X155690146Y-95390718D01*
X155664567Y-95407999D01*
X155624873Y-95431283D01*
X155574297Y-95458934D01*
X155516074Y-95489315D01*
X155453437Y-95520790D01*
X155389621Y-95551722D01*
X155327860Y-95580473D01*
X155271388Y-95605408D01*
X155223438Y-95624889D01*
X155199986Y-95633318D01*
X155066221Y-95671133D01*
X154928327Y-95696136D01*
X154780622Y-95709140D01*
X154653833Y-95711468D01*
X154585878Y-95710373D01*
X154520277Y-95708275D01*
X154462847Y-95705434D01*
X154419403Y-95702106D01*
X154405298Y-95700422D01*
X154266284Y-95671587D01*
X154124757Y-95626468D01*
X153987275Y-95567750D01*
X153860394Y-95498120D01*
X153782889Y-95445441D01*
X153655481Y-95337239D01*
X153537178Y-95210671D01*
X153430172Y-95068866D01*
X153336652Y-94914951D01*
X153258810Y-94752053D01*
X153214956Y-94634756D01*
X153164708Y-94451128D01*
X153131209Y-94256581D01*
X153114449Y-94055325D01*
X153114416Y-93851568D01*
X153131101Y-93649521D01*
X153164493Y-93453392D01*
X153214580Y-93267391D01*
X153218397Y-93255803D01*
X153281281Y-93093750D01*
X153358028Y-92945832D01*
X153451242Y-92807865D01*
X153563527Y-92675661D01*
X153607392Y-92630399D01*
X153743534Y-92506457D01*
X153883491Y-92403915D01*
X154029411Y-92321656D01*
X154183442Y-92258564D01*
X154347732Y-92213523D01*
X154443289Y-92196033D01*
X154602023Y-92180466D01*
X154760429Y-92183071D01*
G36*
X151485600Y-91723054D02*
G01*
X151496465Y-91836993D01*
X151528082Y-91944616D01*
X151578985Y-92043615D01*
X151647707Y-92131684D01*
X151732781Y-92206516D01*
X151829768Y-92264384D01*
X151936036Y-92304005D01*
X152043050Y-92322573D01*
X152148700Y-92321434D01*
X152250875Y-92301930D01*
X152347466Y-92265406D01*
X152436362Y-92213205D01*
X152515454Y-92146673D01*
X152582631Y-92067152D01*
X152635783Y-91975987D01*
X152672801Y-91874523D01*
X152691573Y-91764102D01*
X152693511Y-91714206D01*
X152693511Y-91626267D01*
X152745440Y-91626267D01*
X152781747Y-91629111D01*
X152808645Y-91640911D01*
X152835751Y-91664649D01*
X152874133Y-91703031D01*
X152874133Y-93894602D01*
X152874124Y-94156739D01*
X152874092Y-94397241D01*
X152874028Y-94617048D01*
X152873924Y-94817101D01*
X152873773Y-94998344D01*
X152873566Y-95161716D01*
X152873294Y-95308160D01*
X152872950Y-95438617D01*
X152872526Y-95554029D01*
X152872013Y-95655338D01*
X152871403Y-95743484D01*
X152870688Y-95819410D01*
X152869860Y-95884057D01*
X152868911Y-95938367D01*
X152867833Y-95983280D01*
X152866617Y-96019740D01*
X152865255Y-96048687D01*
X152863739Y-96071063D01*
X152862062Y-96087809D01*
X152860214Y-96099868D01*
X152858187Y-96108180D01*
X152855975Y-96113687D01*
X152854892Y-96115537D01*
X152850729Y-96122549D01*
X152847195Y-96128996D01*
X152843365Y-96134900D01*
X152838318Y-96140286D01*
X152831129Y-96145178D01*
X152820877Y-96149598D01*
X152806636Y-96153572D01*
X152787486Y-96157121D01*
X152762501Y-96160270D01*
X152730760Y-96163042D01*
X152691338Y-96165461D01*
X152643314Y-96167551D01*
X152585763Y-96169335D01*
X152517763Y-96170837D01*
X152438390Y-96172080D01*
X152346721Y-96173089D01*
X152241834Y-96173885D01*
X152122804Y-96174494D01*
X151988710Y-96174939D01*
X151838627Y-96175243D01*
X151671633Y-96175430D01*
X151486804Y-96175524D01*
X151283217Y-96175548D01*
X151059950Y-96175525D01*
X150816078Y-96175480D01*
X150550679Y-96175437D01*
X150512296Y-96175432D01*
X150245318Y-96175389D01*
X149999998Y-96175318D01*
X149775417Y-96175213D01*
X149570655Y-96175066D01*
X149384794Y-96174869D01*
X149216912Y-96174616D01*
X149066092Y-96174300D01*
X148931413Y-96173913D01*
X148811956Y-96173447D01*
X148706801Y-96172897D01*
X148615029Y-96172253D01*
X148535721Y-96171511D01*
X148467957Y-96170661D01*
X148410818Y-96169697D01*
X148363383Y-96168611D01*
X148324734Y-96167397D01*
X148293951Y-96166047D01*
X148270115Y-96164555D01*
X148252306Y-96162911D01*
X148239605Y-96161111D01*
X148231092Y-96159145D01*
X148226734Y-96157477D01*
X148218272Y-96153906D01*
X148210503Y-96151270D01*
X148203398Y-96148634D01*
X148196927Y-96145062D01*
X148191061Y-96139621D01*
X148185771Y-96131375D01*
X148181026Y-96119390D01*
X148176798Y-96102731D01*
X148173057Y-96080463D01*
X148169773Y-96051652D01*
X148166917Y-96015363D01*
X148164460Y-95970661D01*
X148162371Y-95916611D01*
X148160622Y-95852279D01*
X148159183Y-95776730D01*
X148158024Y-95689030D01*
X148157117Y-95588243D01*
X148156431Y-95473434D01*
X148155937Y-95343670D01*
X148155605Y-95198015D01*
X148155407Y-95035535D01*
X148155313Y-94855295D01*
X148155292Y-94656360D01*
X148155315Y-94437796D01*
X148155354Y-94198668D01*
X148155378Y-93938040D01*
X148155378Y-93895889D01*
X148155364Y-93632992D01*
X148155339Y-93391732D01*
X148155329Y-93171165D01*
X148155358Y-92970352D01*
X148155452Y-92788349D01*
X148155638Y-92624216D01*
X148155941Y-92477011D01*
X148156386Y-92345792D01*
X148156966Y-92235867D01*
X148459803Y-92235867D01*
X148499593Y-92293711D01*
X148510764Y-92309479D01*
X148520834Y-92323441D01*
X148529862Y-92336784D01*
X148537903Y-92350693D01*
X148545014Y-92366356D01*
X148551253Y-92384958D01*
X148556675Y-92407686D01*
X148561338Y-92435727D01*
X148565299Y-92470267D01*
X148568615Y-92512492D01*
X148571341Y-92563589D01*
X148573536Y-92624744D01*
X148575255Y-92697144D01*
X148576556Y-92781975D01*
X148577495Y-92880422D01*
X148578130Y-92993674D01*
X148578516Y-93122916D01*
X148578712Y-93269334D01*
X148578773Y-93434116D01*
X148578757Y-93618447D01*
X148578720Y-93823513D01*
X148578711Y-93946133D01*
X148578735Y-94163082D01*
X148578769Y-94358642D01*
X148578757Y-94533999D01*
X148578642Y-94690341D01*
X148578370Y-94828857D01*
X148577882Y-94950734D01*
X148577124Y-95057160D01*
X148576038Y-95149322D01*
X148574569Y-95228409D01*
X148572660Y-95295608D01*
X148570256Y-95352107D01*
X148567299Y-95399093D01*
X148563734Y-95437755D01*
X148559505Y-95469280D01*
X148554554Y-95494855D01*
X148548827Y-95515670D01*
X148542267Y-95532911D01*
X148534817Y-95547765D01*
X148526421Y-95561422D01*
X148517024Y-95575069D01*
X148506568Y-95589893D01*
X148500477Y-95598783D01*
X148461704Y-95656400D01*
X148993268Y-95656400D01*
X149116517Y-95656365D01*
X149219013Y-95656215D01*
X149302580Y-95655878D01*
X149369044Y-95655286D01*
X149420229Y-95654367D01*
X149457959Y-95653051D01*
X149484060Y-95651269D01*
X149500356Y-95648951D01*
X149508672Y-95646026D01*
X149510832Y-95642424D01*
X149508661Y-95638075D01*
X149507465Y-95636645D01*
X149482315Y-95599573D01*
X149456417Y-95546772D01*
X149432808Y-95484770D01*
X149424539Y-95458357D01*
X149419922Y-95440416D01*
X149416021Y-95419355D01*
X149412752Y-95393089D01*
X149410034Y-95359532D01*
X149407785Y-95316599D01*
X149405923Y-95262204D01*
X149404364Y-95194262D01*
X149403028Y-95110688D01*
X149401831Y-95009395D01*
X149400692Y-94888300D01*
X149400315Y-94843600D01*
X149399298Y-94718449D01*
X149398540Y-94614082D01*
X149398097Y-94528707D01*
X149398030Y-94460533D01*
X149398395Y-94407765D01*
X149399252Y-94368614D01*
X149400659Y-94341285D01*
X149402675Y-94323986D01*
X149405357Y-94314926D01*
X149408764Y-94312312D01*
X149412956Y-94314351D01*
X149417429Y-94318667D01*
X149427784Y-94331602D01*
X149449842Y-94360676D01*
X149482043Y-94403759D01*
X149522826Y-94458718D01*
X149570630Y-94523423D01*
X149623895Y-94595742D01*
X149681060Y-94673544D01*
X149740563Y-94754698D01*
X149800845Y-94837072D01*
X149860345Y-94918536D01*
X149917502Y-94996957D01*
X149970755Y-95070204D01*
X150018543Y-95136147D01*
X150059307Y-95192654D01*
X150091484Y-95237593D01*
X150113515Y-95268834D01*
X150118083Y-95275466D01*
X150141004Y-95312369D01*
X150167812Y-95360359D01*
X150193211Y-95409897D01*
X150196432Y-95416577D01*
X150218110Y-95464772D01*
X150230696Y-95502334D01*
X150236426Y-95538160D01*
X150237544Y-95580200D01*
X150236910Y-95656400D01*
X151391349Y-95656400D01*
X151300185Y-95562669D01*
X151253388Y-95512775D01*
X151203101Y-95456295D01*
X151157056Y-95402026D01*
X151136631Y-95376673D01*
X151106193Y-95337128D01*
X151066138Y-95283916D01*
X151017639Y-95218667D01*
X150961865Y-95143011D01*
X150899989Y-95058577D01*
X150833181Y-94966994D01*
X150762613Y-94869892D01*
X150689455Y-94768901D01*
X150614879Y-94665650D01*
X150540056Y-94561768D01*
X150466157Y-94458885D01*
X150394354Y-94358631D01*
X150325816Y-94262636D01*
X150261716Y-94172527D01*
X150203225Y-94089936D01*
X150151514Y-94016492D01*
X150107753Y-93953824D01*
X150073115Y-93903561D01*
X150048770Y-93867334D01*
X150035889Y-93846771D01*
X150034131Y-93842668D01*
X150042090Y-93831342D01*
X150062885Y-93804162D01*
X150095153Y-93762829D01*
X150137530Y-93709044D01*
X150188653Y-93644506D01*
X150247159Y-93570918D01*
X150311686Y-93489978D01*
X150380869Y-93403388D01*
X150453347Y-93312848D01*
X150527754Y-93220060D01*
X150587483Y-93145702D01*
X151598489Y-93145702D01*
X151604398Y-93158659D01*
X151618728Y-93180908D01*
X151619775Y-93182391D01*
X151638562Y-93212544D01*
X151658209Y-93249375D01*
X151662108Y-93257511D01*
X151665644Y-93265940D01*
X151668770Y-93276059D01*
X151671514Y-93289260D01*
X151673908Y-93306938D01*
X151675981Y-93330484D01*
X151677765Y-93361293D01*
X151679288Y-93400757D01*
X151680581Y-93450269D01*
X151681674Y-93511223D01*
X151682597Y-93585011D01*
X151683381Y-93673028D01*
X151684055Y-93776665D01*
X151684650Y-93897316D01*
X151685195Y-94036374D01*
X151685721Y-94195232D01*
X151686255Y-94374089D01*
X151686794Y-94559207D01*
X151687228Y-94723145D01*
X151687491Y-94867303D01*
X151687516Y-94993079D01*
X151687235Y-95101871D01*
X151686581Y-95195077D01*
X151685486Y-95274097D01*
X151683882Y-95340328D01*
X151681703Y-95395170D01*
X151678881Y-95440021D01*
X151675349Y-95476278D01*
X151671039Y-95505341D01*
X151665883Y-95528609D01*
X151659815Y-95547479D01*
X151652767Y-95563351D01*
X151644671Y-95577622D01*
X151635460Y-95591691D01*
X151626960Y-95604158D01*
X151609824Y-95630452D01*
X151599678Y-95648037D01*
X151598489Y-95651257D01*
X151609396Y-95652334D01*
X151640589Y-95653335D01*
X151689777Y-95654235D01*
X151754667Y-95655010D01*
X151832970Y-95655637D01*
X151922393Y-95656091D01*
X152020644Y-95656349D01*
X152089555Y-95656400D01*
X152194548Y-95656180D01*
X152291390Y-95655548D01*
X152377893Y-95654549D01*
X152451868Y-95653227D01*
X152511126Y-95651626D01*
X152553480Y-95649791D01*
X152576740Y-95647765D01*
X152580622Y-95646493D01*
X152572924Y-95631591D01*
X152564926Y-95623560D01*
X152551754Y-95606434D01*
X152534515Y-95576183D01*
X152522593Y-95551622D01*
X152495955Y-95492711D01*
X152492880Y-94315845D01*
X152489805Y-93138978D01*
X152044147Y-93138978D01*
X151946330Y-93139142D01*
X151855936Y-93139611D01*
X151775370Y-93140347D01*
X151707038Y-93141316D01*
X151653344Y-93142480D01*
X151616695Y-93143803D01*
X151599496Y-93145249D01*
X151598489Y-93145702D01*
X150587483Y-93145702D01*
X150602730Y-93126722D01*
X150676910Y-93034537D01*
X150748931Y-92945204D01*
X150817431Y-92860424D01*
X150881045Y-92781898D01*
X150938412Y-92711326D01*
X150988167Y-92650409D01*
X151028948Y-92600847D01*
X151046112Y-92580178D01*
X151132404Y-92479516D01*
X151209003Y-92396259D01*
X151277817Y-92328438D01*
X151340752Y-92274089D01*
X151350133Y-92266722D01*
X151389644Y-92236117D01*
X150257884Y-92235867D01*
X150263173Y-92283844D01*
X150259870Y-92341188D01*
X150238339Y-92409463D01*
X150198365Y-92489212D01*
X150153057Y-92561495D01*
X150136839Y-92584140D01*
X150108786Y-92621696D01*
X150070570Y-92672021D01*
X150023863Y-92732973D01*
X149970339Y-92802411D01*
X149911669Y-92878194D01*
X149849525Y-92958180D01*
X149785579Y-93040228D01*
X149721505Y-93122196D01*
X149658973Y-93201943D01*
X149599657Y-93277327D01*
X149545229Y-93346207D01*
X149497361Y-93406442D01*
X149457725Y-93455889D01*
X149427994Y-93492408D01*
X149409839Y-93513858D01*
X149406780Y-93517156D01*
X149403921Y-93509149D01*
X149401707Y-93478855D01*
X149400143Y-93426556D01*
X149399233Y-93352531D01*
X149398980Y-93257063D01*
X149399387Y-93140434D01*
X149400296Y-93020445D01*
X149401618Y-92888333D01*
X149403143Y-92776594D01*
X149405119Y-92683025D01*
X149407794Y-92605419D01*
X149411418Y-92541574D01*
X149416239Y-92489283D01*
X149422506Y-92446344D01*
X149430468Y-92410551D01*
X149440373Y-92379700D01*
X149452469Y-92351586D01*
X149467007Y-92324005D01*
X149481689Y-92298966D01*
X149519686Y-92235867D01*
X148459803Y-92235867D01*
X148156966Y-92235867D01*
X148156999Y-92229617D01*
X148157805Y-92127544D01*
X148158830Y-92038633D01*
X148160100Y-91961941D01*
X148161640Y-91896527D01*
X148163476Y-91841449D01*
X148165633Y-91795765D01*
X148168137Y-91758534D01*
X148171013Y-91728813D01*
X148174287Y-91705662D01*
X148177985Y-91688139D01*
X148182131Y-91675301D01*
X148186753Y-91666208D01*
X148191874Y-91659918D01*
X148197522Y-91655488D01*
X148203721Y-91651978D01*
X148210496Y-91648445D01*
X148216492Y-91644876D01*
X148221725Y-91642300D01*
X148229901Y-91639972D01*
X148242114Y-91637878D01*
X148259459Y-91636007D01*
X148283031Y-91634347D01*
X148313923Y-91632884D01*
X148353232Y-91631608D01*
X148402050Y-91630504D01*
X148461473Y-91629561D01*
X148532596Y-91628767D01*
X148616512Y-91628109D01*
X148714317Y-91627575D01*
X148827106Y-91627153D01*
X148955971Y-91626829D01*
X149102009Y-91626592D01*
X149266314Y-91626430D01*
X149449980Y-91626330D01*
X149654103Y-91626280D01*
X149865247Y-91626267D01*
X151485600Y-91626267D01*
X151485600Y-91723054D01*
G37*
X151485600Y-91723054D02*
X151496465Y-91836993D01*
X151528082Y-91944616D01*
X151578985Y-92043615D01*
X151647707Y-92131684D01*
X151732781Y-92206516D01*
X151829768Y-92264384D01*
X151936036Y-92304005D01*
X152043050Y-92322573D01*
X152148700Y-92321434D01*
X152250875Y-92301930D01*
X152347466Y-92265406D01*
X152436362Y-92213205D01*
X152515454Y-92146673D01*
X152582631Y-92067152D01*
X152635783Y-91975987D01*
X152672801Y-91874523D01*
X152691573Y-91764102D01*
X152693511Y-91714206D01*
X152693511Y-91626267D01*
X152745440Y-91626267D01*
X152781747Y-91629111D01*
X152808645Y-91640911D01*
X152835751Y-91664649D01*
X152874133Y-91703031D01*
X152874133Y-93894602D01*
X152874124Y-94156739D01*
X152874092Y-94397241D01*
X152874028Y-94617048D01*
X152873924Y-94817101D01*
X152873773Y-94998344D01*
X152873566Y-95161716D01*
X152873294Y-95308160D01*
X152872950Y-95438617D01*
X152872526Y-95554029D01*
X152872013Y-95655338D01*
X152871403Y-95743484D01*
X152870688Y-95819410D01*
X152869860Y-95884057D01*
X152868911Y-95938367D01*
X152867833Y-95983280D01*
X152866617Y-96019740D01*
X152865255Y-96048687D01*
X152863739Y-96071063D01*
X152862062Y-96087809D01*
X152860214Y-96099868D01*
X152858187Y-96108180D01*
X152855975Y-96113687D01*
X152854892Y-96115537D01*
X152850729Y-96122549D01*
X152847195Y-96128996D01*
X152843365Y-96134900D01*
X152838318Y-96140286D01*
X152831129Y-96145178D01*
X152820877Y-96149598D01*
X152806636Y-96153572D01*
X152787486Y-96157121D01*
X152762501Y-96160270D01*
X152730760Y-96163042D01*
X152691338Y-96165461D01*
X152643314Y-96167551D01*
X152585763Y-96169335D01*
X152517763Y-96170837D01*
X152438390Y-96172080D01*
X152346721Y-96173089D01*
X152241834Y-96173885D01*
X152122804Y-96174494D01*
X151988710Y-96174939D01*
X151838627Y-96175243D01*
X151671633Y-96175430D01*
X151486804Y-96175524D01*
X151283217Y-96175548D01*
X151059950Y-96175525D01*
X150816078Y-96175480D01*
X150550679Y-96175437D01*
X150512296Y-96175432D01*
X150245318Y-96175389D01*
X149999998Y-96175318D01*
X149775417Y-96175213D01*
X149570655Y-96175066D01*
X149384794Y-96174869D01*
X149216912Y-96174616D01*
X149066092Y-96174300D01*
X148931413Y-96173913D01*
X148811956Y-96173447D01*
X148706801Y-96172897D01*
X148615029Y-96172253D01*
X148535721Y-96171511D01*
X148467957Y-96170661D01*
X148410818Y-96169697D01*
X148363383Y-96168611D01*
X148324734Y-96167397D01*
X148293951Y-96166047D01*
X148270115Y-96164555D01*
X148252306Y-96162911D01*
X148239605Y-96161111D01*
X148231092Y-96159145D01*
X148226734Y-96157477D01*
X148218272Y-96153906D01*
X148210503Y-96151270D01*
X148203398Y-96148634D01*
X148196927Y-96145062D01*
X148191061Y-96139621D01*
X148185771Y-96131375D01*
X148181026Y-96119390D01*
X148176798Y-96102731D01*
X148173057Y-96080463D01*
X148169773Y-96051652D01*
X148166917Y-96015363D01*
X148164460Y-95970661D01*
X148162371Y-95916611D01*
X148160622Y-95852279D01*
X148159183Y-95776730D01*
X148158024Y-95689030D01*
X148157117Y-95588243D01*
X148156431Y-95473434D01*
X148155937Y-95343670D01*
X148155605Y-95198015D01*
X148155407Y-95035535D01*
X148155313Y-94855295D01*
X148155292Y-94656360D01*
X148155315Y-94437796D01*
X148155354Y-94198668D01*
X148155378Y-93938040D01*
X148155378Y-93895889D01*
X148155364Y-93632992D01*
X148155339Y-93391732D01*
X148155329Y-93171165D01*
X148155358Y-92970352D01*
X148155452Y-92788349D01*
X148155638Y-92624216D01*
X148155941Y-92477011D01*
X148156386Y-92345792D01*
X148156966Y-92235867D01*
X148459803Y-92235867D01*
X148499593Y-92293711D01*
X148510764Y-92309479D01*
X148520834Y-92323441D01*
X148529862Y-92336784D01*
X148537903Y-92350693D01*
X148545014Y-92366356D01*
X148551253Y-92384958D01*
X148556675Y-92407686D01*
X148561338Y-92435727D01*
X148565299Y-92470267D01*
X148568615Y-92512492D01*
X148571341Y-92563589D01*
X148573536Y-92624744D01*
X148575255Y-92697144D01*
X148576556Y-92781975D01*
X148577495Y-92880422D01*
X148578130Y-92993674D01*
X148578516Y-93122916D01*
X148578712Y-93269334D01*
X148578773Y-93434116D01*
X148578757Y-93618447D01*
X148578720Y-93823513D01*
X148578711Y-93946133D01*
X148578735Y-94163082D01*
X148578769Y-94358642D01*
X148578757Y-94533999D01*
X148578642Y-94690341D01*
X148578370Y-94828857D01*
X148577882Y-94950734D01*
X148577124Y-95057160D01*
X148576038Y-95149322D01*
X148574569Y-95228409D01*
X148572660Y-95295608D01*
X148570256Y-95352107D01*
X148567299Y-95399093D01*
X148563734Y-95437755D01*
X148559505Y-95469280D01*
X148554554Y-95494855D01*
X148548827Y-95515670D01*
X148542267Y-95532911D01*
X148534817Y-95547765D01*
X148526421Y-95561422D01*
X148517024Y-95575069D01*
X148506568Y-95589893D01*
X148500477Y-95598783D01*
X148461704Y-95656400D01*
X148993268Y-95656400D01*
X149116517Y-95656365D01*
X149219013Y-95656215D01*
X149302580Y-95655878D01*
X149369044Y-95655286D01*
X149420229Y-95654367D01*
X149457959Y-95653051D01*
X149484060Y-95651269D01*
X149500356Y-95648951D01*
X149508672Y-95646026D01*
X149510832Y-95642424D01*
X149508661Y-95638075D01*
X149507465Y-95636645D01*
X149482315Y-95599573D01*
X149456417Y-95546772D01*
X149432808Y-95484770D01*
X149424539Y-95458357D01*
X149419922Y-95440416D01*
X149416021Y-95419355D01*
X149412752Y-95393089D01*
X149410034Y-95359532D01*
X149407785Y-95316599D01*
X149405923Y-95262204D01*
X149404364Y-95194262D01*
X149403028Y-95110688D01*
X149401831Y-95009395D01*
X149400692Y-94888300D01*
X149400315Y-94843600D01*
X149399298Y-94718449D01*
X149398540Y-94614082D01*
X149398097Y-94528707D01*
X149398030Y-94460533D01*
X149398395Y-94407765D01*
X149399252Y-94368614D01*
X149400659Y-94341285D01*
X149402675Y-94323986D01*
X149405357Y-94314926D01*
X149408764Y-94312312D01*
X149412956Y-94314351D01*
X149417429Y-94318667D01*
X149427784Y-94331602D01*
X149449842Y-94360676D01*
X149482043Y-94403759D01*
X149522826Y-94458718D01*
X149570630Y-94523423D01*
X149623895Y-94595742D01*
X149681060Y-94673544D01*
X149740563Y-94754698D01*
X149800845Y-94837072D01*
X149860345Y-94918536D01*
X149917502Y-94996957D01*
X149970755Y-95070204D01*
X150018543Y-95136147D01*
X150059307Y-95192654D01*
X150091484Y-95237593D01*
X150113515Y-95268834D01*
X150118083Y-95275466D01*
X150141004Y-95312369D01*
X150167812Y-95360359D01*
X150193211Y-95409897D01*
X150196432Y-95416577D01*
X150218110Y-95464772D01*
X150230696Y-95502334D01*
X150236426Y-95538160D01*
X150237544Y-95580200D01*
X150236910Y-95656400D01*
X151391349Y-95656400D01*
X151300185Y-95562669D01*
X151253388Y-95512775D01*
X151203101Y-95456295D01*
X151157056Y-95402026D01*
X151136631Y-95376673D01*
X151106193Y-95337128D01*
X151066138Y-95283916D01*
X151017639Y-95218667D01*
X150961865Y-95143011D01*
X150899989Y-95058577D01*
X150833181Y-94966994D01*
X150762613Y-94869892D01*
X150689455Y-94768901D01*
X150614879Y-94665650D01*
X150540056Y-94561768D01*
X150466157Y-94458885D01*
X150394354Y-94358631D01*
X150325816Y-94262636D01*
X150261716Y-94172527D01*
X150203225Y-94089936D01*
X150151514Y-94016492D01*
X150107753Y-93953824D01*
X150073115Y-93903561D01*
X150048770Y-93867334D01*
X150035889Y-93846771D01*
X150034131Y-93842668D01*
X150042090Y-93831342D01*
X150062885Y-93804162D01*
X150095153Y-93762829D01*
X150137530Y-93709044D01*
X150188653Y-93644506D01*
X150247159Y-93570918D01*
X150311686Y-93489978D01*
X150380869Y-93403388D01*
X150453347Y-93312848D01*
X150527754Y-93220060D01*
X150587483Y-93145702D01*
X151598489Y-93145702D01*
X151604398Y-93158659D01*
X151618728Y-93180908D01*
X151619775Y-93182391D01*
X151638562Y-93212544D01*
X151658209Y-93249375D01*
X151662108Y-93257511D01*
X151665644Y-93265940D01*
X151668770Y-93276059D01*
X151671514Y-93289260D01*
X151673908Y-93306938D01*
X151675981Y-93330484D01*
X151677765Y-93361293D01*
X151679288Y-93400757D01*
X151680581Y-93450269D01*
X151681674Y-93511223D01*
X151682597Y-93585011D01*
X151683381Y-93673028D01*
X151684055Y-93776665D01*
X151684650Y-93897316D01*
X151685195Y-94036374D01*
X151685721Y-94195232D01*
X151686255Y-94374089D01*
X151686794Y-94559207D01*
X151687228Y-94723145D01*
X151687491Y-94867303D01*
X151687516Y-94993079D01*
X151687235Y-95101871D01*
X151686581Y-95195077D01*
X151685486Y-95274097D01*
X151683882Y-95340328D01*
X151681703Y-95395170D01*
X151678881Y-95440021D01*
X151675349Y-95476278D01*
X151671039Y-95505341D01*
X151665883Y-95528609D01*
X151659815Y-95547479D01*
X151652767Y-95563351D01*
X151644671Y-95577622D01*
X151635460Y-95591691D01*
X151626960Y-95604158D01*
X151609824Y-95630452D01*
X151599678Y-95648037D01*
X151598489Y-95651257D01*
X151609396Y-95652334D01*
X151640589Y-95653335D01*
X151689777Y-95654235D01*
X151754667Y-95655010D01*
X151832970Y-95655637D01*
X151922393Y-95656091D01*
X152020644Y-95656349D01*
X152089555Y-95656400D01*
X152194548Y-95656180D01*
X152291390Y-95655548D01*
X152377893Y-95654549D01*
X152451868Y-95653227D01*
X152511126Y-95651626D01*
X152553480Y-95649791D01*
X152576740Y-95647765D01*
X152580622Y-95646493D01*
X152572924Y-95631591D01*
X152564926Y-95623560D01*
X152551754Y-95606434D01*
X152534515Y-95576183D01*
X152522593Y-95551622D01*
X152495955Y-95492711D01*
X152492880Y-94315845D01*
X152489805Y-93138978D01*
X152044147Y-93138978D01*
X151946330Y-93139142D01*
X151855936Y-93139611D01*
X151775370Y-93140347D01*
X151707038Y-93141316D01*
X151653344Y-93142480D01*
X151616695Y-93143803D01*
X151599496Y-93145249D01*
X151598489Y-93145702D01*
X150587483Y-93145702D01*
X150602730Y-93126722D01*
X150676910Y-93034537D01*
X150748931Y-92945204D01*
X150817431Y-92860424D01*
X150881045Y-92781898D01*
X150938412Y-92711326D01*
X150988167Y-92650409D01*
X151028948Y-92600847D01*
X151046112Y-92580178D01*
X151132404Y-92479516D01*
X151209003Y-92396259D01*
X151277817Y-92328438D01*
X151340752Y-92274089D01*
X151350133Y-92266722D01*
X151389644Y-92236117D01*
X150257884Y-92235867D01*
X150263173Y-92283844D01*
X150259870Y-92341188D01*
X150238339Y-92409463D01*
X150198365Y-92489212D01*
X150153057Y-92561495D01*
X150136839Y-92584140D01*
X150108786Y-92621696D01*
X150070570Y-92672021D01*
X150023863Y-92732973D01*
X149970339Y-92802411D01*
X149911669Y-92878194D01*
X149849525Y-92958180D01*
X149785579Y-93040228D01*
X149721505Y-93122196D01*
X149658973Y-93201943D01*
X149599657Y-93277327D01*
X149545229Y-93346207D01*
X149497361Y-93406442D01*
X149457725Y-93455889D01*
X149427994Y-93492408D01*
X149409839Y-93513858D01*
X149406780Y-93517156D01*
X149403921Y-93509149D01*
X149401707Y-93478855D01*
X149400143Y-93426556D01*
X149399233Y-93352531D01*
X149398980Y-93257063D01*
X149399387Y-93140434D01*
X149400296Y-93020445D01*
X149401618Y-92888333D01*
X149403143Y-92776594D01*
X149405119Y-92683025D01*
X149407794Y-92605419D01*
X149411418Y-92541574D01*
X149416239Y-92489283D01*
X149422506Y-92446344D01*
X149430468Y-92410551D01*
X149440373Y-92379700D01*
X149452469Y-92351586D01*
X149467007Y-92324005D01*
X149481689Y-92298966D01*
X149519686Y-92235867D01*
X148459803Y-92235867D01*
X148156966Y-92235867D01*
X148156999Y-92229617D01*
X148157805Y-92127544D01*
X148158830Y-92038633D01*
X148160100Y-91961941D01*
X148161640Y-91896527D01*
X148163476Y-91841449D01*
X148165633Y-91795765D01*
X148168137Y-91758534D01*
X148171013Y-91728813D01*
X148174287Y-91705662D01*
X148177985Y-91688139D01*
X148182131Y-91675301D01*
X148186753Y-91666208D01*
X148191874Y-91659918D01*
X148197522Y-91655488D01*
X148203721Y-91651978D01*
X148210496Y-91648445D01*
X148216492Y-91644876D01*
X148221725Y-91642300D01*
X148229901Y-91639972D01*
X148242114Y-91637878D01*
X148259459Y-91636007D01*
X148283031Y-91634347D01*
X148313923Y-91632884D01*
X148353232Y-91631608D01*
X148402050Y-91630504D01*
X148461473Y-91629561D01*
X148532596Y-91628767D01*
X148616512Y-91628109D01*
X148714317Y-91627575D01*
X148827106Y-91627153D01*
X148955971Y-91626829D01*
X149102009Y-91626592D01*
X149266314Y-91626430D01*
X149449980Y-91626330D01*
X149654103Y-91626280D01*
X149865247Y-91626267D01*
X151485600Y-91626267D01*
X151485600Y-91723054D01*
%TD*%
D12*
%TO.P,H4,1*%
%TO.N,N/C*%
X103124000Y-113284000D03*
%TD*%
%TO.P,H3,1*%
%TO.N,N/C*%
X158623000Y-113284000D03*
%TD*%
%TO.P,H2,1*%
%TO.N,N/C*%
X158623000Y-67564000D03*
%TD*%
%TO.P,H1,1*%
%TO.N,N/C*%
X103124000Y-67437000D03*
%TD*%
D13*
%TO.P,BT1,2*%
%TO.N,GND*%
X157603200Y-79806800D03*
D14*
%TO.P,BT1,1*%
%TO.N,Net-(BT1-Pad1)*%
X105613200Y-79806800D03*
%TD*%
D15*
%TO.P,C1,1*%
%TO.N,Net-(C1-Pad1)*%
X119757200Y-108051600D03*
%TO.P,C1,2*%
%TO.N,Net-(C1-Pad2)*%
X114757200Y-108051600D03*
%TD*%
%TO.P,C2,2*%
%TO.N,Net-(C2-Pad2)*%
X114808000Y-91541600D03*
%TO.P,C2,1*%
%TO.N,Net-(C2-Pad1)*%
X119808000Y-91541600D03*
%TD*%
D16*
%TO.P,C3,1*%
%TO.N,Net-(C3-Pad1)*%
X106070400Y-98069400D03*
D15*
%TO.P,C3,2*%
%TO.N,GND*%
X106070400Y-95569400D03*
%TD*%
D17*
%TO.P,D1,1*%
%TO.N,Net-(C3-Pad1)*%
X106070400Y-102285800D03*
D18*
%TO.P,D1,2*%
%TO.N,Net-(D1-Pad2)*%
X106070400Y-104825800D03*
%TD*%
D19*
%TO.P,Q1,2*%
%TO.N,Net-(Q1-Pad2)*%
X127736600Y-109524800D03*
%TO.P,Q1,3*%
%TO.N,Net-(D1-Pad2)*%
X127736600Y-110794800D03*
D20*
%TO.P,Q1,1*%
%TO.N,GND*%
X127736600Y-108254800D03*
%TD*%
D21*
%TO.P,R1,1*%
%TO.N,Net-(R1-Pad1)*%
X122377200Y-111658400D03*
D22*
%TO.P,R1,2*%
%TO.N,Net-(C1-Pad2)*%
X114757200Y-111658400D03*
%TD*%
D21*
%TO.P,R2,1*%
%TO.N,Net-(C2-Pad2)*%
X111937800Y-91490800D03*
D22*
%TO.P,R2,2*%
%TO.N,Net-(C3-Pad1)*%
X104317800Y-91490800D03*
%TD*%
%TO.P,R3,2*%
%TO.N,Net-(BT1-Pad1)*%
X124917200Y-91567000D03*
D21*
%TO.P,R3,1*%
%TO.N,Net-(R3-Pad1)*%
X132537200Y-91567000D03*
%TD*%
D13*
%TO.P,T1,1*%
%TO.N,Net-(R3-Pad1)*%
X136570200Y-98118400D03*
%TO.P,T1,2*%
%TO.N,Net-(Q1-Pad2)*%
X136570200Y-109118400D03*
%TO.P,T1,3*%
%TO.N,Net-(D1-Pad2)*%
X142570200Y-98118400D03*
%TO.P,T1,4*%
%TO.N,Net-(BT1-Pad1)*%
X142570200Y-109118400D03*
%TD*%
D23*
%TO.P,U1,1*%
%TO.N,Net-(C1-Pad2)*%
X112242600Y-103505000D03*
D24*
%TO.P,U1,8*%
%TO.N,Net-(C1-Pad1)*%
X127482600Y-95885000D03*
%TO.P,U1,2*%
%TO.N,Net-(C1-Pad2)*%
X114782600Y-103505000D03*
%TO.P,U1,9*%
%TO.N,Net-(BT1-Pad1)*%
X124942600Y-95885000D03*
%TO.P,U1,3*%
%TO.N,Net-(R1-Pad1)*%
X117322600Y-103505000D03*
%TO.P,U1,10*%
%TO.N,Net-(C2-Pad1)*%
X122402600Y-95885000D03*
%TO.P,U1,4*%
%TO.N,Net-(C1-Pad1)*%
X119862600Y-103505000D03*
%TO.P,U1,11*%
%TO.N,Net-(BT1-Pad1)*%
X119862600Y-95885000D03*
%TO.P,U1,5*%
%TO.N,Net-(R1-Pad1)*%
X122402600Y-103505000D03*
%TO.P,U1,12*%
%TO.N,Net-(C2-Pad2)*%
X117322600Y-95885000D03*
%TO.P,U1,6*%
%TO.N,Net-(R1-Pad1)*%
X124942600Y-103505000D03*
%TO.P,U1,13*%
%TO.N,Net-(C2-Pad2)*%
X114782600Y-95885000D03*
%TO.P,U1,7*%
%TO.N,GND*%
X127482600Y-103505000D03*
%TO.P,U1,14*%
%TO.N,Net-(C3-Pad1)*%
X112242600Y-95885000D03*
%TD*%
D25*
%TO.N,Net-(BT1-Pad1)*%
X124942600Y-97002600D02*
X124942600Y-95885000D01*
X123799600Y-98145600D02*
X124942600Y-97002600D01*
X119862600Y-95885000D02*
X119862600Y-97332800D01*
X120675400Y-98145600D02*
X123799600Y-98145600D01*
X119862600Y-97332800D02*
X120675400Y-98145600D01*
X124917200Y-95859600D02*
X124942600Y-95885000D01*
X142570200Y-109118400D02*
X142570200Y-107111800D01*
X129082800Y-93624400D02*
X124917200Y-93624400D01*
X142570200Y-107111800D02*
X129082800Y-93624400D01*
X124917200Y-91567000D02*
X124917200Y-93624400D01*
X124917200Y-93624400D02*
X124917200Y-95859600D01*
X119862600Y-95885000D02*
X119862600Y-94945200D01*
X119862600Y-94945200D02*
X117398800Y-92481400D01*
X117398800Y-92481400D02*
X117398800Y-83362800D01*
X113842800Y-79806800D02*
X105613200Y-79806800D01*
X117398800Y-83362800D02*
X113842800Y-79806800D01*
%TO.N,Net-(C1-Pad1)*%
X121716800Y-99898200D02*
X119862600Y-101752400D01*
X124968000Y-99898200D02*
X121716800Y-99898200D01*
X127482600Y-95885000D02*
X127482600Y-97383600D01*
X119862600Y-101752400D02*
X119862600Y-103505000D01*
X127482600Y-97383600D02*
X124968000Y-99898200D01*
X119757200Y-103610400D02*
X119862600Y-103505000D01*
X119757200Y-108051600D02*
X119757200Y-103610400D01*
%TO.N,Net-(C1-Pad2)*%
X112242600Y-103505000D02*
X114782600Y-103505000D01*
X114757200Y-103530400D02*
X114782600Y-103505000D01*
X114757200Y-108051600D02*
X114757200Y-103530400D01*
X114757200Y-108051600D02*
X114757200Y-111658400D01*
%TO.N,Net-(C2-Pad2)*%
X117322600Y-95885000D02*
X114782600Y-95885000D01*
X114808000Y-95859600D02*
X114782600Y-95885000D01*
X114808000Y-91541600D02*
X114808000Y-95859600D01*
X114757200Y-91490800D02*
X114808000Y-91541600D01*
X111937800Y-91490800D02*
X114757200Y-91490800D01*
%TO.N,Net-(C2-Pad1)*%
X119808000Y-91541600D02*
X121132600Y-91541600D01*
X122402600Y-92811600D02*
X122402600Y-95885000D01*
X121132600Y-91541600D02*
X122402600Y-92811600D01*
%TO.N,Net-(C3-Pad1)*%
X104317800Y-96316800D02*
X106070400Y-98069400D01*
X104317800Y-91490800D02*
X104317800Y-96316800D01*
X112242600Y-95885000D02*
X112242600Y-96672400D01*
X110845600Y-98069400D02*
X106070400Y-98069400D01*
X112242600Y-96672400D02*
X110845600Y-98069400D01*
X106070400Y-98069400D02*
X106070400Y-102285800D01*
%TO.N,Net-(D1-Pad2)*%
X144270201Y-99818401D02*
X142570200Y-98118400D01*
X143386201Y-110818401D02*
X144270201Y-109934401D01*
X127760201Y-110818401D02*
X143386201Y-110818401D01*
X144270201Y-109934401D02*
X144270201Y-99818401D01*
X127736600Y-110794800D02*
X127760201Y-110818401D01*
%TO.N,Net-(Q1-Pad2)*%
X136163800Y-109524800D02*
X127736600Y-109524800D01*
X136570200Y-109118400D02*
X136163800Y-109524800D01*
%TO.N,Net-(R1-Pad1)*%
X122402600Y-103505000D02*
X124942600Y-103505000D01*
X117322600Y-103505000D02*
X117322600Y-109321600D01*
X119659400Y-111658400D02*
X122377200Y-111658400D01*
X117322600Y-109321600D02*
X119659400Y-111658400D01*
X122377200Y-103530400D02*
X122402600Y-103505000D01*
X122377200Y-111658400D02*
X122377200Y-103530400D01*
%TO.N,Net-(R3-Pad1)*%
X132537200Y-94085400D02*
X136570200Y-98118400D01*
X132537200Y-91567000D02*
X132537200Y-94085400D01*
%TD*%
M02*
