%TF.GenerationSoftware,KiCad,Pcbnew,(5.1.6)-1*%
%TF.CreationDate,2021-01-25T23:31:43+01:00*%
%TF.ProjectId,LEDFlasher,4c454446-6c61-4736-9865-722e6b696361,v 0.3*%
%TF.SameCoordinates,Original*%
%TF.FileFunction,Legend,Bot*%
%TF.FilePolarity,Positive*%
%FSLAX46Y46*%
G04 Gerber Fmt 4.6, Leading zero omitted, Abs format (unit mm)*
G04 Created by KiCad (PCBNEW (5.1.6)-1) date 2021-01-25 23:31:43*
%MOMM*%
%LPD*%
G01*
G04 APERTURE LIST*
%ADD10C,0.150000*%
%ADD11C,0.010000*%
G04 APERTURE END LIST*
D10*
X145421905Y-111321340D02*
X145898096Y-111321340D01*
X145898096Y-110321340D01*
X145088572Y-110797531D02*
X144755239Y-110797531D01*
X144612381Y-111321340D02*
X145088572Y-111321340D01*
X145088572Y-110321340D01*
X144612381Y-110321340D01*
X144183810Y-111321340D02*
X144183810Y-110321340D01*
X143945715Y-110321340D01*
X143802858Y-110368960D01*
X143707620Y-110464198D01*
X143660000Y-110559436D01*
X143612381Y-110749912D01*
X143612381Y-110892769D01*
X143660000Y-111083245D01*
X143707620Y-111178483D01*
X143802858Y-111273721D01*
X143945715Y-111321340D01*
X144183810Y-111321340D01*
X142088572Y-110797531D02*
X142421905Y-110797531D01*
X142421905Y-111321340D02*
X142421905Y-110321340D01*
X141945715Y-110321340D01*
X141421905Y-111321340D02*
X141517143Y-111273721D01*
X141564762Y-111178483D01*
X141564762Y-110321340D01*
X140612381Y-111321340D02*
X140612381Y-110797531D01*
X140660000Y-110702293D01*
X140755239Y-110654674D01*
X140945715Y-110654674D01*
X141040953Y-110702293D01*
X140612381Y-111273721D02*
X140707620Y-111321340D01*
X140945715Y-111321340D01*
X141040953Y-111273721D01*
X141088572Y-111178483D01*
X141088572Y-111083245D01*
X141040953Y-110988007D01*
X140945715Y-110940388D01*
X140707620Y-110940388D01*
X140612381Y-110892769D01*
X140183810Y-111273721D02*
X140088572Y-111321340D01*
X139898096Y-111321340D01*
X139802858Y-111273721D01*
X139755239Y-111178483D01*
X139755239Y-111130864D01*
X139802858Y-111035626D01*
X139898096Y-110988007D01*
X140040953Y-110988007D01*
X140136191Y-110940388D01*
X140183810Y-110845150D01*
X140183810Y-110797531D01*
X140136191Y-110702293D01*
X140040953Y-110654674D01*
X139898096Y-110654674D01*
X139802858Y-110702293D01*
X139326667Y-111321340D02*
X139326667Y-110321340D01*
X138898096Y-111321340D02*
X138898096Y-110797531D01*
X138945715Y-110702293D01*
X139040953Y-110654674D01*
X139183810Y-110654674D01*
X139279048Y-110702293D01*
X139326667Y-110749912D01*
X138040953Y-111273721D02*
X138136191Y-111321340D01*
X138326667Y-111321340D01*
X138421905Y-111273721D01*
X138469524Y-111178483D01*
X138469524Y-110797531D01*
X138421905Y-110702293D01*
X138326667Y-110654674D01*
X138136191Y-110654674D01*
X138040953Y-110702293D01*
X137993334Y-110797531D01*
X137993334Y-110892769D01*
X138469524Y-110988007D01*
X137564762Y-111321340D02*
X137564762Y-110654674D01*
X137564762Y-110845150D02*
X137517143Y-110749912D01*
X137469524Y-110702293D01*
X137374286Y-110654674D01*
X137279048Y-110654674D01*
X136279048Y-110654674D02*
X136040953Y-111321340D01*
X135802858Y-110654674D01*
X135231429Y-110321340D02*
X135136191Y-110321340D01*
X135040953Y-110368960D01*
X134993334Y-110416579D01*
X134945715Y-110511817D01*
X134898096Y-110702293D01*
X134898096Y-110940388D01*
X134945715Y-111130864D01*
X134993334Y-111226102D01*
X135040953Y-111273721D01*
X135136191Y-111321340D01*
X135231429Y-111321340D01*
X135326667Y-111273721D01*
X135374286Y-111226102D01*
X135421905Y-111130864D01*
X135469524Y-110940388D01*
X135469524Y-110702293D01*
X135421905Y-110511817D01*
X135374286Y-110416579D01*
X135326667Y-110368960D01*
X135231429Y-110321340D01*
X134469524Y-111226102D02*
X134421905Y-111273721D01*
X134469524Y-111321340D01*
X134517143Y-111273721D01*
X134469524Y-111226102D01*
X134469524Y-111321340D01*
X134088572Y-110321340D02*
X133469524Y-110321340D01*
X133802858Y-110702293D01*
X133660000Y-110702293D01*
X133564762Y-110749912D01*
X133517143Y-110797531D01*
X133469524Y-110892769D01*
X133469524Y-111130864D01*
X133517143Y-111226102D01*
X133564762Y-111273721D01*
X133660000Y-111321340D01*
X133945715Y-111321340D01*
X134040953Y-111273721D01*
X134088572Y-111226102D01*
X145636191Y-112971340D02*
X145636191Y-111971340D01*
X145398096Y-111971340D01*
X145255239Y-112018960D01*
X145160000Y-112114198D01*
X145112381Y-112209436D01*
X145064762Y-112399912D01*
X145064762Y-112542769D01*
X145112381Y-112733245D01*
X145160000Y-112828483D01*
X145255239Y-112923721D01*
X145398096Y-112971340D01*
X145636191Y-112971340D01*
X144255239Y-112923721D02*
X144350477Y-112971340D01*
X144540953Y-112971340D01*
X144636191Y-112923721D01*
X144683810Y-112828483D01*
X144683810Y-112447531D01*
X144636191Y-112352293D01*
X144540953Y-112304674D01*
X144350477Y-112304674D01*
X144255239Y-112352293D01*
X144207620Y-112447531D01*
X144207620Y-112542769D01*
X144683810Y-112638007D01*
X143826667Y-112923721D02*
X143731429Y-112971340D01*
X143540953Y-112971340D01*
X143445715Y-112923721D01*
X143398096Y-112828483D01*
X143398096Y-112780864D01*
X143445715Y-112685626D01*
X143540953Y-112638007D01*
X143683810Y-112638007D01*
X143779048Y-112590388D01*
X143826667Y-112495150D01*
X143826667Y-112447531D01*
X143779048Y-112352293D01*
X143683810Y-112304674D01*
X143540953Y-112304674D01*
X143445715Y-112352293D01*
X142969524Y-112971340D02*
X142969524Y-112304674D01*
X142969524Y-111971340D02*
X143017143Y-112018960D01*
X142969524Y-112066579D01*
X142921905Y-112018960D01*
X142969524Y-111971340D01*
X142969524Y-112066579D01*
X142064762Y-112304674D02*
X142064762Y-113114198D01*
X142112381Y-113209436D01*
X142160000Y-113257055D01*
X142255239Y-113304674D01*
X142398096Y-113304674D01*
X142493334Y-113257055D01*
X142064762Y-112923721D02*
X142160000Y-112971340D01*
X142350477Y-112971340D01*
X142445715Y-112923721D01*
X142493334Y-112876102D01*
X142540953Y-112780864D01*
X142540953Y-112495150D01*
X142493334Y-112399912D01*
X142445715Y-112352293D01*
X142350477Y-112304674D01*
X142160000Y-112304674D01*
X142064762Y-112352293D01*
X141588572Y-112304674D02*
X141588572Y-112971340D01*
X141588572Y-112399912D02*
X141540953Y-112352293D01*
X141445715Y-112304674D01*
X141302858Y-112304674D01*
X141207620Y-112352293D01*
X141160000Y-112447531D01*
X141160000Y-112971340D01*
X139921905Y-112971340D02*
X139921905Y-111971340D01*
X139921905Y-112352293D02*
X139826667Y-112304674D01*
X139636191Y-112304674D01*
X139540953Y-112352293D01*
X139493334Y-112399912D01*
X139445715Y-112495150D01*
X139445715Y-112780864D01*
X139493334Y-112876102D01*
X139540953Y-112923721D01*
X139636191Y-112971340D01*
X139826667Y-112971340D01*
X139921905Y-112923721D01*
X139112381Y-112304674D02*
X138874286Y-112971340D01*
X138636191Y-112304674D02*
X138874286Y-112971340D01*
X138969524Y-113209436D01*
X139017143Y-113257055D01*
X139112381Y-113304674D01*
X137588572Y-111971340D02*
X136921905Y-111971340D01*
X137588572Y-112971340D01*
X136921905Y-112971340D01*
X136540953Y-112971340D02*
X136540953Y-112304674D01*
X136540953Y-111971340D02*
X136588572Y-112018960D01*
X136540953Y-112066579D01*
X136493334Y-112018960D01*
X136540953Y-111971340D01*
X136540953Y-112066579D01*
X135921905Y-112971340D02*
X136017143Y-112923721D01*
X136064762Y-112828483D01*
X136064762Y-111971340D01*
X135540953Y-112971340D02*
X135540953Y-112304674D01*
X135540953Y-111971340D02*
X135588572Y-112018960D01*
X135540953Y-112066579D01*
X135493334Y-112018960D01*
X135540953Y-111971340D01*
X135540953Y-112066579D01*
X135160000Y-112304674D02*
X134636191Y-112304674D01*
X135160000Y-112971340D01*
X134636191Y-112971340D01*
X134255239Y-112971340D02*
X134255239Y-112304674D01*
X134255239Y-111971340D02*
X134302858Y-112018960D01*
X134255239Y-112066579D01*
X134207620Y-112018960D01*
X134255239Y-111971340D01*
X134255239Y-112066579D01*
X133779048Y-112971340D02*
X133779048Y-111971340D01*
D11*
%TO.C,REF\u002A\u002A*%
G36*
X149951138Y-114544142D02*
G01*
X153471931Y-114544142D01*
X153471931Y-113676518D01*
X149951138Y-113676518D01*
X149951138Y-114544142D01*
G37*
X149951138Y-114544142D02*
X153471931Y-114544142D01*
X153471931Y-113676518D01*
X149951138Y-113676518D01*
X149951138Y-114544142D01*
G36*
X149574530Y-108591168D02*
G01*
X149575149Y-108678251D01*
X150026874Y-109137211D01*
X150478599Y-109596172D01*
X150478928Y-109806791D01*
X150479257Y-110017409D01*
X150754350Y-110017409D01*
X150761438Y-110070850D01*
X150764122Y-110095208D01*
X150768647Y-110141079D01*
X150774769Y-110205725D01*
X150782248Y-110286411D01*
X150790841Y-110380401D01*
X150800306Y-110484957D01*
X150810402Y-110597345D01*
X150820886Y-110714827D01*
X150831516Y-110834668D01*
X150842051Y-110954131D01*
X150852247Y-111070479D01*
X150861865Y-111180977D01*
X150870660Y-111282889D01*
X150878392Y-111373478D01*
X150884818Y-111450007D01*
X150889697Y-111509741D01*
X150892785Y-111549944D01*
X150893843Y-111567879D01*
X150893842Y-111567964D01*
X150886133Y-111582355D01*
X150862979Y-111612068D01*
X150824065Y-111657451D01*
X150769076Y-111718849D01*
X150697696Y-111796608D01*
X150609611Y-111891074D01*
X150504506Y-112002592D01*
X150382065Y-112131508D01*
X150347650Y-112167607D01*
X149801823Y-112739736D01*
X149890079Y-112827756D01*
X149961475Y-112750078D01*
X149987594Y-112722006D01*
X150028394Y-112678594D01*
X150081183Y-112622686D01*
X150143269Y-112557128D01*
X150211960Y-112484761D01*
X150284564Y-112408432D01*
X150328000Y-112362844D01*
X150409544Y-112277439D01*
X150475456Y-112209030D01*
X150527416Y-112156373D01*
X150567105Y-112118225D01*
X150596203Y-112093340D01*
X150616391Y-112080476D01*
X150629350Y-112078388D01*
X150636760Y-112085833D01*
X150640302Y-112101566D01*
X150641657Y-112124343D01*
X150641839Y-112130559D01*
X150651257Y-112173381D01*
X150674463Y-112225139D01*
X150706824Y-112277648D01*
X150743708Y-112322723D01*
X150758467Y-112336648D01*
X150834193Y-112385367D01*
X150922652Y-112412626D01*
X151000860Y-112419093D01*
X151089492Y-112406896D01*
X151171348Y-112371133D01*
X151243796Y-112313042D01*
X151257163Y-112298582D01*
X151306042Y-112243053D01*
X152151634Y-112243053D01*
X152151634Y-112419093D01*
X152377970Y-112419093D01*
X152377970Y-112336851D01*
X152380810Y-112280706D01*
X152390353Y-112241736D01*
X152401951Y-112220539D01*
X152410237Y-112205372D01*
X152417333Y-112183382D01*
X152423708Y-112151307D01*
X152429832Y-112105889D01*
X152436176Y-112043868D01*
X152443210Y-111961982D01*
X152448026Y-111901066D01*
X152470121Y-111615663D01*
X153012525Y-112165125D01*
X153110597Y-112264548D01*
X153204744Y-112360135D01*
X153293245Y-112450130D01*
X153374380Y-112532777D01*
X153446429Y-112606321D01*
X153507672Y-112669004D01*
X153556387Y-112719072D01*
X153590856Y-112754768D01*
X153609339Y-112774315D01*
X153639703Y-112805264D01*
X153665031Y-112826850D01*
X153678655Y-112834043D01*
X153696055Y-112825617D01*
X153721420Y-112804565D01*
X153730018Y-112795991D01*
X153766474Y-112757940D01*
X153565762Y-112553978D01*
X153514556Y-112502019D01*
X153448529Y-112435140D01*
X153370578Y-112356270D01*
X153283598Y-112268334D01*
X153190486Y-112174261D01*
X153094139Y-112076978D01*
X152997452Y-111979413D01*
X152928094Y-111909465D01*
X152822663Y-111802870D01*
X152734089Y-111712627D01*
X152661241Y-111637512D01*
X152602983Y-111576306D01*
X152558185Y-111527786D01*
X152535981Y-111502449D01*
X152357684Y-111502449D01*
X152335361Y-111787875D01*
X152328629Y-111871539D01*
X152322117Y-111948047D01*
X152316194Y-112013401D01*
X152311228Y-112063601D01*
X152307589Y-112094649D01*
X152306418Y-112101593D01*
X152299798Y-112129885D01*
X151350324Y-112129885D01*
X151343986Y-112050926D01*
X151324850Y-111957635D01*
X151284806Y-111875111D01*
X151226378Y-111806358D01*
X151152089Y-111754383D01*
X151068708Y-111723183D01*
X151041658Y-111708548D01*
X151028116Y-111677139D01*
X151027832Y-111675754D01*
X151026207Y-111662494D01*
X151028216Y-111648915D01*
X151035818Y-111632501D01*
X151050976Y-111610731D01*
X151075648Y-111581087D01*
X151111796Y-111541052D01*
X151161380Y-111488105D01*
X151226361Y-111419729D01*
X151230559Y-111415325D01*
X151300453Y-111341931D01*
X151374760Y-111263757D01*
X151448374Y-111186184D01*
X151516189Y-111114595D01*
X151573100Y-111054371D01*
X151585792Y-111040907D01*
X151634447Y-110990140D01*
X151677669Y-110946695D01*
X151712355Y-110913561D01*
X151735404Y-110893725D01*
X151743142Y-110889366D01*
X151754682Y-110898490D01*
X151781670Y-110923520D01*
X151821981Y-110962372D01*
X151873489Y-111012963D01*
X151934069Y-111073208D01*
X152001596Y-111141024D01*
X152056786Y-111196885D01*
X152357684Y-111502449D01*
X152535981Y-111502449D01*
X152525711Y-111490731D01*
X152504431Y-111463919D01*
X152493211Y-111446128D01*
X152490714Y-111437890D01*
X152491660Y-111419910D01*
X152494533Y-111379212D01*
X152499147Y-111318139D01*
X152505318Y-111239033D01*
X152512858Y-111144234D01*
X152521581Y-111036087D01*
X152531303Y-110916932D01*
X152541836Y-110789111D01*
X152550325Y-110686955D01*
X152598356Y-110110994D01*
X152474765Y-110110994D01*
X152474233Y-110123424D01*
X152471729Y-110158430D01*
X152467456Y-110213535D01*
X152461613Y-110286263D01*
X152454403Y-110374134D01*
X152446026Y-110474671D01*
X152436683Y-110585397D01*
X152427718Y-110690525D01*
X152417562Y-110809803D01*
X152408102Y-110922400D01*
X152399556Y-111025625D01*
X152392139Y-111116793D01*
X152386068Y-111193215D01*
X152381561Y-111252203D01*
X152378833Y-111291069D01*
X152378076Y-111306164D01*
X152376895Y-111315558D01*
X152372216Y-111319286D01*
X152362236Y-111315791D01*
X152345150Y-111303519D01*
X152319156Y-111280914D01*
X152282450Y-111246420D01*
X152233227Y-111198482D01*
X152169686Y-111135544D01*
X152102265Y-111068288D01*
X151826561Y-110792797D01*
X151828493Y-110790726D01*
X151646250Y-110790726D01*
X151637944Y-110802100D01*
X151614693Y-110828883D01*
X151578825Y-110868612D01*
X151532673Y-110918827D01*
X151478566Y-110977066D01*
X151418834Y-111040867D01*
X151355808Y-111107769D01*
X151291818Y-111175310D01*
X151229196Y-111241030D01*
X151170270Y-111302466D01*
X151117372Y-111357157D01*
X151072832Y-111402642D01*
X151038980Y-111436458D01*
X151018148Y-111456146D01*
X151012466Y-111460157D01*
X151010594Y-111447211D01*
X151006706Y-111411454D01*
X151001017Y-111355124D01*
X150993741Y-111280460D01*
X150985091Y-111189700D01*
X150975282Y-111085082D01*
X150964526Y-110968846D01*
X150953039Y-110843228D01*
X150943867Y-110741938D01*
X150932134Y-110610599D01*
X150921295Y-110486872D01*
X150911530Y-110373001D01*
X150903023Y-110271231D01*
X150895955Y-110183807D01*
X150890509Y-110112973D01*
X150886868Y-110060973D01*
X150885213Y-110030052D01*
X150885402Y-110022023D01*
X150895294Y-110029174D01*
X150920484Y-110052161D01*
X150958770Y-110088759D01*
X151007949Y-110136742D01*
X151065821Y-110193886D01*
X151130182Y-110257967D01*
X151198831Y-110326758D01*
X151269565Y-110398036D01*
X151340182Y-110469575D01*
X151408480Y-110539150D01*
X151472256Y-110604537D01*
X151529310Y-110663511D01*
X151577438Y-110713847D01*
X151614438Y-110753319D01*
X151638108Y-110779703D01*
X151646250Y-110790726D01*
X151828493Y-110790726D01*
X151929369Y-110682615D01*
X151981728Y-110626697D01*
X152040495Y-110564268D01*
X152103345Y-110497763D01*
X152167955Y-110429618D01*
X152232002Y-110362268D01*
X152293163Y-110298148D01*
X152349113Y-110239692D01*
X152397530Y-110189338D01*
X152436090Y-110149518D01*
X152462469Y-110122670D01*
X152474344Y-110111228D01*
X152474765Y-110110994D01*
X152598356Y-110110994D01*
X152610361Y-109967046D01*
X153210898Y-109335478D01*
X153811435Y-108703909D01*
X153810994Y-108615635D01*
X153810552Y-108527360D01*
X153713543Y-108630986D01*
X153659251Y-108688783D01*
X153595152Y-108756688D01*
X153522976Y-108832892D01*
X153444452Y-108915589D01*
X153361309Y-109002973D01*
X153275279Y-109093235D01*
X153188090Y-109184570D01*
X153101473Y-109275169D01*
X153017157Y-109363227D01*
X152936872Y-109446935D01*
X152862347Y-109524487D01*
X152795314Y-109594077D01*
X152737501Y-109653896D01*
X152690639Y-109702138D01*
X152656456Y-109736996D01*
X152636684Y-109756663D01*
X152632350Y-109760436D01*
X152632052Y-109747312D01*
X152633691Y-109713709D01*
X152636983Y-109664200D01*
X152641642Y-109603357D01*
X152643642Y-109579052D01*
X152658537Y-109401271D01*
X152541915Y-109401271D01*
X152535894Y-109429563D01*
X152532823Y-109451938D01*
X152528508Y-109494037D01*
X152523448Y-109550498D01*
X152518141Y-109615955D01*
X152516304Y-109640182D01*
X152510887Y-109709741D01*
X152505419Y-109774338D01*
X152500448Y-109827868D01*
X152496521Y-109864230D01*
X152495635Y-109870829D01*
X152492294Y-109884376D01*
X152485061Y-109900234D01*
X152472400Y-109920181D01*
X152452771Y-109945993D01*
X152424638Y-109979449D01*
X152386462Y-110022327D01*
X152336706Y-110076403D01*
X152273831Y-110143456D01*
X152196301Y-110225263D01*
X152117211Y-110308270D01*
X152038524Y-110390414D01*
X151965072Y-110466489D01*
X151898684Y-110534645D01*
X151841187Y-110593032D01*
X151794411Y-110639801D01*
X151760184Y-110673102D01*
X151740333Y-110691087D01*
X151736100Y-110693762D01*
X151724963Y-110684061D01*
X151698931Y-110658761D01*
X151660530Y-110620402D01*
X151612288Y-110571520D01*
X151556730Y-110514654D01*
X151516552Y-110473226D01*
X151306791Y-110256320D01*
X151925297Y-110256320D01*
X151925297Y-110017409D01*
X151170841Y-110017409D01*
X151170841Y-110123862D01*
X151032525Y-109985974D01*
X150934407Y-109888160D01*
X150743317Y-109888160D01*
X150741489Y-109903590D01*
X150732237Y-109912187D01*
X150709910Y-109915933D01*
X150668855Y-109916809D01*
X150661584Y-109916815D01*
X150579851Y-109916815D01*
X150579851Y-109697492D01*
X150661584Y-109778499D01*
X150707690Y-109827748D01*
X150735266Y-109865479D01*
X150743317Y-109888160D01*
X150934407Y-109888160D01*
X150894208Y-109848086D01*
X150894208Y-109725272D01*
X150893823Y-109668770D01*
X150892060Y-109632825D01*
X150888010Y-109612850D01*
X150880761Y-109604257D01*
X150869830Y-109602459D01*
X150857672Y-109599818D01*
X150848687Y-109589232D01*
X150841786Y-109566701D01*
X150835884Y-109528229D01*
X150829895Y-109469818D01*
X150827973Y-109448424D01*
X150823812Y-109401271D01*
X152541915Y-109401271D01*
X152658537Y-109401271D01*
X152818069Y-109401271D01*
X152818069Y-109288102D01*
X152750274Y-109288102D01*
X152710622Y-109287016D01*
X152689076Y-109281774D01*
X152686440Y-109278654D01*
X152547576Y-109278654D01*
X152540268Y-109285782D01*
X152514953Y-109287982D01*
X152497868Y-109288102D01*
X152440841Y-109288102D01*
X152228181Y-109288102D01*
X150813658Y-109288102D01*
X150861502Y-109239106D01*
X150935810Y-109178644D01*
X151027776Y-109132011D01*
X151138958Y-109098569D01*
X151249431Y-109080073D01*
X151321733Y-109071442D01*
X151321733Y-109162360D01*
X151900148Y-109162360D01*
X151900148Y-109059213D01*
X151985025Y-109067816D01*
X152044328Y-109075076D01*
X152107511Y-109084699D01*
X152145346Y-109091572D01*
X152220792Y-109106727D01*
X152224486Y-109197415D01*
X152228181Y-109288102D01*
X152440841Y-109288102D01*
X152440841Y-109237805D01*
X152442504Y-109206296D01*
X152446657Y-109188783D01*
X152448331Y-109187508D01*
X152466947Y-109195574D01*
X152494143Y-109215140D01*
X152521408Y-109239264D01*
X152540227Y-109261002D01*
X152541903Y-109263828D01*
X152547576Y-109278654D01*
X152686440Y-109278654D01*
X152678622Y-109269401D01*
X152674402Y-109255924D01*
X152657179Y-109220947D01*
X152624098Y-109178899D01*
X152580853Y-109135676D01*
X152533134Y-109097174D01*
X152501790Y-109077121D01*
X152466083Y-109055171D01*
X152447779Y-109036731D01*
X152441348Y-109014988D01*
X152440854Y-109002038D01*
X152440854Y-108998895D01*
X151799554Y-108998895D01*
X151799554Y-109061766D01*
X151422327Y-109061766D01*
X151422327Y-108998895D01*
X151799554Y-108998895D01*
X152440854Y-108998895D01*
X152440841Y-108961172D01*
X152335008Y-108961172D01*
X152286315Y-108962349D01*
X152248365Y-108965485D01*
X152227268Y-108969991D01*
X152224983Y-108971815D01*
X152211601Y-108974615D01*
X152179034Y-108973468D01*
X152132876Y-108968713D01*
X152101336Y-108964323D01*
X152044148Y-108955698D01*
X151991846Y-108947911D01*
X151952542Y-108942167D01*
X151941015Y-108940535D01*
X151910897Y-108931208D01*
X151900148Y-108916592D01*
X151896880Y-108910640D01*
X151885190Y-108906098D01*
X151862248Y-108902790D01*
X151825225Y-108900535D01*
X151771292Y-108899154D01*
X151697620Y-108898470D01*
X151610940Y-108898300D01*
X151518431Y-108898397D01*
X151448054Y-108898850D01*
X151396796Y-108899910D01*
X151361640Y-108901823D01*
X151339571Y-108904839D01*
X151327575Y-108909205D01*
X151322636Y-108915169D01*
X151321733Y-108922104D01*
X151314039Y-108944115D01*
X151288839Y-108956641D01*
X151242951Y-108961108D01*
X151234696Y-108961172D01*
X151156987Y-108969188D01*
X151068727Y-108991256D01*
X150977875Y-109024404D01*
X150892390Y-109065659D01*
X150820234Y-109112051D01*
X150810888Y-109119402D01*
X150780427Y-109143318D01*
X150762388Y-109152896D01*
X150749791Y-109149800D01*
X150736860Y-109137024D01*
X150698667Y-109111998D01*
X150648962Y-109102391D01*
X150595436Y-109107387D01*
X150545782Y-109126171D01*
X150507693Y-109157926D01*
X150504935Y-109161617D01*
X150476434Y-109220895D01*
X150471132Y-109282254D01*
X150488442Y-109340747D01*
X150527780Y-109391424D01*
X150532590Y-109395609D01*
X150560520Y-109415487D01*
X150588858Y-109424241D01*
X150628697Y-109424873D01*
X150638649Y-109424312D01*
X150677628Y-109422882D01*
X150697706Y-109426159D01*
X150704975Y-109436048D01*
X150705720Y-109445281D01*
X150707244Y-109472064D01*
X150711025Y-109512345D01*
X150713742Y-109536444D01*
X150717683Y-109574721D01*
X150716044Y-109594316D01*
X150706539Y-109601478D01*
X150689609Y-109602459D01*
X150679568Y-109599221D01*
X150663370Y-109588740D01*
X150639815Y-109569868D01*
X150607703Y-109541455D01*
X150565832Y-109502355D01*
X150513003Y-109451417D01*
X150448015Y-109387493D01*
X150369669Y-109309434D01*
X150276763Y-109216092D01*
X150168097Y-109106318D01*
X150115729Y-109053272D01*
X149573911Y-108504087D01*
X149574530Y-108591168D01*
G37*
X149574530Y-108591168D02*
X149575149Y-108678251D01*
X150026874Y-109137211D01*
X150478599Y-109596172D01*
X150478928Y-109806791D01*
X150479257Y-110017409D01*
X150754350Y-110017409D01*
X150761438Y-110070850D01*
X150764122Y-110095208D01*
X150768647Y-110141079D01*
X150774769Y-110205725D01*
X150782248Y-110286411D01*
X150790841Y-110380401D01*
X150800306Y-110484957D01*
X150810402Y-110597345D01*
X150820886Y-110714827D01*
X150831516Y-110834668D01*
X150842051Y-110954131D01*
X150852247Y-111070479D01*
X150861865Y-111180977D01*
X150870660Y-111282889D01*
X150878392Y-111373478D01*
X150884818Y-111450007D01*
X150889697Y-111509741D01*
X150892785Y-111549944D01*
X150893843Y-111567879D01*
X150893842Y-111567964D01*
X150886133Y-111582355D01*
X150862979Y-111612068D01*
X150824065Y-111657451D01*
X150769076Y-111718849D01*
X150697696Y-111796608D01*
X150609611Y-111891074D01*
X150504506Y-112002592D01*
X150382065Y-112131508D01*
X150347650Y-112167607D01*
X149801823Y-112739736D01*
X149890079Y-112827756D01*
X149961475Y-112750078D01*
X149987594Y-112722006D01*
X150028394Y-112678594D01*
X150081183Y-112622686D01*
X150143269Y-112557128D01*
X150211960Y-112484761D01*
X150284564Y-112408432D01*
X150328000Y-112362844D01*
X150409544Y-112277439D01*
X150475456Y-112209030D01*
X150527416Y-112156373D01*
X150567105Y-112118225D01*
X150596203Y-112093340D01*
X150616391Y-112080476D01*
X150629350Y-112078388D01*
X150636760Y-112085833D01*
X150640302Y-112101566D01*
X150641657Y-112124343D01*
X150641839Y-112130559D01*
X150651257Y-112173381D01*
X150674463Y-112225139D01*
X150706824Y-112277648D01*
X150743708Y-112322723D01*
X150758467Y-112336648D01*
X150834193Y-112385367D01*
X150922652Y-112412626D01*
X151000860Y-112419093D01*
X151089492Y-112406896D01*
X151171348Y-112371133D01*
X151243796Y-112313042D01*
X151257163Y-112298582D01*
X151306042Y-112243053D01*
X152151634Y-112243053D01*
X152151634Y-112419093D01*
X152377970Y-112419093D01*
X152377970Y-112336851D01*
X152380810Y-112280706D01*
X152390353Y-112241736D01*
X152401951Y-112220539D01*
X152410237Y-112205372D01*
X152417333Y-112183382D01*
X152423708Y-112151307D01*
X152429832Y-112105889D01*
X152436176Y-112043868D01*
X152443210Y-111961982D01*
X152448026Y-111901066D01*
X152470121Y-111615663D01*
X153012525Y-112165125D01*
X153110597Y-112264548D01*
X153204744Y-112360135D01*
X153293245Y-112450130D01*
X153374380Y-112532777D01*
X153446429Y-112606321D01*
X153507672Y-112669004D01*
X153556387Y-112719072D01*
X153590856Y-112754768D01*
X153609339Y-112774315D01*
X153639703Y-112805264D01*
X153665031Y-112826850D01*
X153678655Y-112834043D01*
X153696055Y-112825617D01*
X153721420Y-112804565D01*
X153730018Y-112795991D01*
X153766474Y-112757940D01*
X153565762Y-112553978D01*
X153514556Y-112502019D01*
X153448529Y-112435140D01*
X153370578Y-112356270D01*
X153283598Y-112268334D01*
X153190486Y-112174261D01*
X153094139Y-112076978D01*
X152997452Y-111979413D01*
X152928094Y-111909465D01*
X152822663Y-111802870D01*
X152734089Y-111712627D01*
X152661241Y-111637512D01*
X152602983Y-111576306D01*
X152558185Y-111527786D01*
X152535981Y-111502449D01*
X152357684Y-111502449D01*
X152335361Y-111787875D01*
X152328629Y-111871539D01*
X152322117Y-111948047D01*
X152316194Y-112013401D01*
X152311228Y-112063601D01*
X152307589Y-112094649D01*
X152306418Y-112101593D01*
X152299798Y-112129885D01*
X151350324Y-112129885D01*
X151343986Y-112050926D01*
X151324850Y-111957635D01*
X151284806Y-111875111D01*
X151226378Y-111806358D01*
X151152089Y-111754383D01*
X151068708Y-111723183D01*
X151041658Y-111708548D01*
X151028116Y-111677139D01*
X151027832Y-111675754D01*
X151026207Y-111662494D01*
X151028216Y-111648915D01*
X151035818Y-111632501D01*
X151050976Y-111610731D01*
X151075648Y-111581087D01*
X151111796Y-111541052D01*
X151161380Y-111488105D01*
X151226361Y-111419729D01*
X151230559Y-111415325D01*
X151300453Y-111341931D01*
X151374760Y-111263757D01*
X151448374Y-111186184D01*
X151516189Y-111114595D01*
X151573100Y-111054371D01*
X151585792Y-111040907D01*
X151634447Y-110990140D01*
X151677669Y-110946695D01*
X151712355Y-110913561D01*
X151735404Y-110893725D01*
X151743142Y-110889366D01*
X151754682Y-110898490D01*
X151781670Y-110923520D01*
X151821981Y-110962372D01*
X151873489Y-111012963D01*
X151934069Y-111073208D01*
X152001596Y-111141024D01*
X152056786Y-111196885D01*
X152357684Y-111502449D01*
X152535981Y-111502449D01*
X152525711Y-111490731D01*
X152504431Y-111463919D01*
X152493211Y-111446128D01*
X152490714Y-111437890D01*
X152491660Y-111419910D01*
X152494533Y-111379212D01*
X152499147Y-111318139D01*
X152505318Y-111239033D01*
X152512858Y-111144234D01*
X152521581Y-111036087D01*
X152531303Y-110916932D01*
X152541836Y-110789111D01*
X152550325Y-110686955D01*
X152598356Y-110110994D01*
X152474765Y-110110994D01*
X152474233Y-110123424D01*
X152471729Y-110158430D01*
X152467456Y-110213535D01*
X152461613Y-110286263D01*
X152454403Y-110374134D01*
X152446026Y-110474671D01*
X152436683Y-110585397D01*
X152427718Y-110690525D01*
X152417562Y-110809803D01*
X152408102Y-110922400D01*
X152399556Y-111025625D01*
X152392139Y-111116793D01*
X152386068Y-111193215D01*
X152381561Y-111252203D01*
X152378833Y-111291069D01*
X152378076Y-111306164D01*
X152376895Y-111315558D01*
X152372216Y-111319286D01*
X152362236Y-111315791D01*
X152345150Y-111303519D01*
X152319156Y-111280914D01*
X152282450Y-111246420D01*
X152233227Y-111198482D01*
X152169686Y-111135544D01*
X152102265Y-111068288D01*
X151826561Y-110792797D01*
X151828493Y-110790726D01*
X151646250Y-110790726D01*
X151637944Y-110802100D01*
X151614693Y-110828883D01*
X151578825Y-110868612D01*
X151532673Y-110918827D01*
X151478566Y-110977066D01*
X151418834Y-111040867D01*
X151355808Y-111107769D01*
X151291818Y-111175310D01*
X151229196Y-111241030D01*
X151170270Y-111302466D01*
X151117372Y-111357157D01*
X151072832Y-111402642D01*
X151038980Y-111436458D01*
X151018148Y-111456146D01*
X151012466Y-111460157D01*
X151010594Y-111447211D01*
X151006706Y-111411454D01*
X151001017Y-111355124D01*
X150993741Y-111280460D01*
X150985091Y-111189700D01*
X150975282Y-111085082D01*
X150964526Y-110968846D01*
X150953039Y-110843228D01*
X150943867Y-110741938D01*
X150932134Y-110610599D01*
X150921295Y-110486872D01*
X150911530Y-110373001D01*
X150903023Y-110271231D01*
X150895955Y-110183807D01*
X150890509Y-110112973D01*
X150886868Y-110060973D01*
X150885213Y-110030052D01*
X150885402Y-110022023D01*
X150895294Y-110029174D01*
X150920484Y-110052161D01*
X150958770Y-110088759D01*
X151007949Y-110136742D01*
X151065821Y-110193886D01*
X151130182Y-110257967D01*
X151198831Y-110326758D01*
X151269565Y-110398036D01*
X151340182Y-110469575D01*
X151408480Y-110539150D01*
X151472256Y-110604537D01*
X151529310Y-110663511D01*
X151577438Y-110713847D01*
X151614438Y-110753319D01*
X151638108Y-110779703D01*
X151646250Y-110790726D01*
X151828493Y-110790726D01*
X151929369Y-110682615D01*
X151981728Y-110626697D01*
X152040495Y-110564268D01*
X152103345Y-110497763D01*
X152167955Y-110429618D01*
X152232002Y-110362268D01*
X152293163Y-110298148D01*
X152349113Y-110239692D01*
X152397530Y-110189338D01*
X152436090Y-110149518D01*
X152462469Y-110122670D01*
X152474344Y-110111228D01*
X152474765Y-110110994D01*
X152598356Y-110110994D01*
X152610361Y-109967046D01*
X153210898Y-109335478D01*
X153811435Y-108703909D01*
X153810994Y-108615635D01*
X153810552Y-108527360D01*
X153713543Y-108630986D01*
X153659251Y-108688783D01*
X153595152Y-108756688D01*
X153522976Y-108832892D01*
X153444452Y-108915589D01*
X153361309Y-109002973D01*
X153275279Y-109093235D01*
X153188090Y-109184570D01*
X153101473Y-109275169D01*
X153017157Y-109363227D01*
X152936872Y-109446935D01*
X152862347Y-109524487D01*
X152795314Y-109594077D01*
X152737501Y-109653896D01*
X152690639Y-109702138D01*
X152656456Y-109736996D01*
X152636684Y-109756663D01*
X152632350Y-109760436D01*
X152632052Y-109747312D01*
X152633691Y-109713709D01*
X152636983Y-109664200D01*
X152641642Y-109603357D01*
X152643642Y-109579052D01*
X152658537Y-109401271D01*
X152541915Y-109401271D01*
X152535894Y-109429563D01*
X152532823Y-109451938D01*
X152528508Y-109494037D01*
X152523448Y-109550498D01*
X152518141Y-109615955D01*
X152516304Y-109640182D01*
X152510887Y-109709741D01*
X152505419Y-109774338D01*
X152500448Y-109827868D01*
X152496521Y-109864230D01*
X152495635Y-109870829D01*
X152492294Y-109884376D01*
X152485061Y-109900234D01*
X152472400Y-109920181D01*
X152452771Y-109945993D01*
X152424638Y-109979449D01*
X152386462Y-110022327D01*
X152336706Y-110076403D01*
X152273831Y-110143456D01*
X152196301Y-110225263D01*
X152117211Y-110308270D01*
X152038524Y-110390414D01*
X151965072Y-110466489D01*
X151898684Y-110534645D01*
X151841187Y-110593032D01*
X151794411Y-110639801D01*
X151760184Y-110673102D01*
X151740333Y-110691087D01*
X151736100Y-110693762D01*
X151724963Y-110684061D01*
X151698931Y-110658761D01*
X151660530Y-110620402D01*
X151612288Y-110571520D01*
X151556730Y-110514654D01*
X151516552Y-110473226D01*
X151306791Y-110256320D01*
X151925297Y-110256320D01*
X151925297Y-110017409D01*
X151170841Y-110017409D01*
X151170841Y-110123862D01*
X151032525Y-109985974D01*
X150934407Y-109888160D01*
X150743317Y-109888160D01*
X150741489Y-109903590D01*
X150732237Y-109912187D01*
X150709910Y-109915933D01*
X150668855Y-109916809D01*
X150661584Y-109916815D01*
X150579851Y-109916815D01*
X150579851Y-109697492D01*
X150661584Y-109778499D01*
X150707690Y-109827748D01*
X150735266Y-109865479D01*
X150743317Y-109888160D01*
X150934407Y-109888160D01*
X150894208Y-109848086D01*
X150894208Y-109725272D01*
X150893823Y-109668770D01*
X150892060Y-109632825D01*
X150888010Y-109612850D01*
X150880761Y-109604257D01*
X150869830Y-109602459D01*
X150857672Y-109599818D01*
X150848687Y-109589232D01*
X150841786Y-109566701D01*
X150835884Y-109528229D01*
X150829895Y-109469818D01*
X150827973Y-109448424D01*
X150823812Y-109401271D01*
X152541915Y-109401271D01*
X152658537Y-109401271D01*
X152818069Y-109401271D01*
X152818069Y-109288102D01*
X152750274Y-109288102D01*
X152710622Y-109287016D01*
X152689076Y-109281774D01*
X152686440Y-109278654D01*
X152547576Y-109278654D01*
X152540268Y-109285782D01*
X152514953Y-109287982D01*
X152497868Y-109288102D01*
X152440841Y-109288102D01*
X152228181Y-109288102D01*
X150813658Y-109288102D01*
X150861502Y-109239106D01*
X150935810Y-109178644D01*
X151027776Y-109132011D01*
X151138958Y-109098569D01*
X151249431Y-109080073D01*
X151321733Y-109071442D01*
X151321733Y-109162360D01*
X151900148Y-109162360D01*
X151900148Y-109059213D01*
X151985025Y-109067816D01*
X152044328Y-109075076D01*
X152107511Y-109084699D01*
X152145346Y-109091572D01*
X152220792Y-109106727D01*
X152224486Y-109197415D01*
X152228181Y-109288102D01*
X152440841Y-109288102D01*
X152440841Y-109237805D01*
X152442504Y-109206296D01*
X152446657Y-109188783D01*
X152448331Y-109187508D01*
X152466947Y-109195574D01*
X152494143Y-109215140D01*
X152521408Y-109239264D01*
X152540227Y-109261002D01*
X152541903Y-109263828D01*
X152547576Y-109278654D01*
X152686440Y-109278654D01*
X152678622Y-109269401D01*
X152674402Y-109255924D01*
X152657179Y-109220947D01*
X152624098Y-109178899D01*
X152580853Y-109135676D01*
X152533134Y-109097174D01*
X152501790Y-109077121D01*
X152466083Y-109055171D01*
X152447779Y-109036731D01*
X152441348Y-109014988D01*
X152440854Y-109002038D01*
X152440854Y-108998895D01*
X151799554Y-108998895D01*
X151799554Y-109061766D01*
X151422327Y-109061766D01*
X151422327Y-108998895D01*
X151799554Y-108998895D01*
X152440854Y-108998895D01*
X152440841Y-108961172D01*
X152335008Y-108961172D01*
X152286315Y-108962349D01*
X152248365Y-108965485D01*
X152227268Y-108969991D01*
X152224983Y-108971815D01*
X152211601Y-108974615D01*
X152179034Y-108973468D01*
X152132876Y-108968713D01*
X152101336Y-108964323D01*
X152044148Y-108955698D01*
X151991846Y-108947911D01*
X151952542Y-108942167D01*
X151941015Y-108940535D01*
X151910897Y-108931208D01*
X151900148Y-108916592D01*
X151896880Y-108910640D01*
X151885190Y-108906098D01*
X151862248Y-108902790D01*
X151825225Y-108900535D01*
X151771292Y-108899154D01*
X151697620Y-108898470D01*
X151610940Y-108898300D01*
X151518431Y-108898397D01*
X151448054Y-108898850D01*
X151396796Y-108899910D01*
X151361640Y-108901823D01*
X151339571Y-108904839D01*
X151327575Y-108909205D01*
X151322636Y-108915169D01*
X151321733Y-108922104D01*
X151314039Y-108944115D01*
X151288839Y-108956641D01*
X151242951Y-108961108D01*
X151234696Y-108961172D01*
X151156987Y-108969188D01*
X151068727Y-108991256D01*
X150977875Y-109024404D01*
X150892390Y-109065659D01*
X150820234Y-109112051D01*
X150810888Y-109119402D01*
X150780427Y-109143318D01*
X150762388Y-109152896D01*
X150749791Y-109149800D01*
X150736860Y-109137024D01*
X150698667Y-109111998D01*
X150648962Y-109102391D01*
X150595436Y-109107387D01*
X150545782Y-109126171D01*
X150507693Y-109157926D01*
X150504935Y-109161617D01*
X150476434Y-109220895D01*
X150471132Y-109282254D01*
X150488442Y-109340747D01*
X150527780Y-109391424D01*
X150532590Y-109395609D01*
X150560520Y-109415487D01*
X150588858Y-109424241D01*
X150628697Y-109424873D01*
X150638649Y-109424312D01*
X150677628Y-109422882D01*
X150697706Y-109426159D01*
X150704975Y-109436048D01*
X150705720Y-109445281D01*
X150707244Y-109472064D01*
X150711025Y-109512345D01*
X150713742Y-109536444D01*
X150717683Y-109574721D01*
X150716044Y-109594316D01*
X150706539Y-109601478D01*
X150689609Y-109602459D01*
X150679568Y-109599221D01*
X150663370Y-109588740D01*
X150639815Y-109569868D01*
X150607703Y-109541455D01*
X150565832Y-109502355D01*
X150513003Y-109451417D01*
X150448015Y-109387493D01*
X150369669Y-109309434D01*
X150276763Y-109216092D01*
X150168097Y-109106318D01*
X150115729Y-109053272D01*
X149573911Y-108504087D01*
X149574530Y-108591168D01*
%TD*%
M02*
