%TF.GenerationSoftware,KiCad,Pcbnew,(5.1.6)-1*%
%TF.CreationDate,2020-12-28T15:25:49+01:00*%
%TF.ProjectId,LEDFlasher,4c454446-6c61-4736-9865-722e6b696361,v 0.1*%
%TF.SameCoordinates,Original*%
%TF.FileFunction,Soldermask,Bot*%
%TF.FilePolarity,Negative*%
%FSLAX46Y46*%
G04 Gerber Fmt 4.6, Leading zero omitted, Abs format (unit mm)*
G04 Created by KiCad (PCBNEW (5.1.6)-1) date 2020-12-28 15:25:49*
%MOMM*%
%LPD*%
G01*
G04 APERTURE LIST*
%ADD10C,5.100000*%
%ADD11C,2.740000*%
%ADD12C,2.100000*%
%ADD13R,2.100000X2.100000*%
%ADD14C,1.700000*%
%ADD15R,1.700000X1.700000*%
%ADD16R,1.900000X1.900000*%
%ADD17C,1.900000*%
%ADD18O,1.600000X1.150000*%
%ADD19R,1.600000X1.150000*%
%ADD20C,1.500000*%
%ADD21O,1.500000X1.500000*%
%ADD22R,1.700000X2.500000*%
%ADD23O,1.700000X2.500000*%
G04 APERTURE END LIST*
D10*
%TO.C,H4*%
X103124000Y-113284000D03*
%TD*%
%TO.C,H3*%
X158623000Y-113284000D03*
%TD*%
%TO.C,H2*%
X158623000Y-67564000D03*
%TD*%
%TO.C,H1*%
X103124000Y-67437000D03*
%TD*%
D11*
%TO.C,BT1*%
X108363200Y-73811800D03*
X154843200Y-85801800D03*
D12*
X157603200Y-79806800D03*
D13*
X105613200Y-79806800D03*
%TD*%
D14*
%TO.C,C1*%
X119757200Y-108051600D03*
X114757200Y-108051600D03*
%TD*%
%TO.C,C2*%
X114808000Y-91541600D03*
X119808000Y-91541600D03*
%TD*%
D15*
%TO.C,C3*%
X106070400Y-98069400D03*
D14*
X106070400Y-95569400D03*
%TD*%
D16*
%TO.C,D1*%
X106070400Y-102285800D03*
D17*
X106070400Y-104825800D03*
%TD*%
D18*
%TO.C,Q1*%
X127736600Y-109524800D03*
X127736600Y-110794800D03*
D19*
X127736600Y-108254800D03*
%TD*%
D20*
%TO.C,R1*%
X122377200Y-111658400D03*
D21*
X114757200Y-111658400D03*
%TD*%
D20*
%TO.C,R2*%
X111937800Y-91490800D03*
D21*
X104317800Y-91490800D03*
%TD*%
%TO.C,R3*%
X124917200Y-91567000D03*
D20*
X132537200Y-91567000D03*
%TD*%
D12*
%TO.C,T1*%
X136570200Y-98118400D03*
X136570200Y-109118400D03*
X142570200Y-98118400D03*
X142570200Y-109118400D03*
%TD*%
D22*
%TO.C,U1*%
X112242600Y-103505000D03*
D23*
X127482600Y-95885000D03*
X114782600Y-103505000D03*
X124942600Y-95885000D03*
X117322600Y-103505000D03*
X122402600Y-95885000D03*
X119862600Y-103505000D03*
X119862600Y-95885000D03*
X122402600Y-103505000D03*
X117322600Y-95885000D03*
X124942600Y-103505000D03*
X114782600Y-95885000D03*
X127482600Y-103505000D03*
X112242600Y-95885000D03*
%TD*%
M02*
