%TF.GenerationSoftware,KiCad,Pcbnew,(5.1.6)-1*%
%TF.CreationDate,2021-01-25T23:31:43+01:00*%
%TF.ProjectId,LEDFlasher,4c454446-6c61-4736-9865-722e6b696361,v 0.3*%
%TF.SameCoordinates,Original*%
%TF.FileFunction,Legend,Top*%
%TF.FilePolarity,Positive*%
%FSLAX46Y46*%
G04 Gerber Fmt 4.6, Leading zero omitted, Abs format (unit mm)*
G04 Created by KiCad (PCBNEW (5.1.6)-1) date 2021-01-25 23:31:43*
%MOMM*%
%LPD*%
G01*
G04 APERTURE LIST*
%ADD10C,0.150000*%
%ADD11C,0.010000*%
%ADD12C,0.120000*%
G04 APERTURE END LIST*
D10*
X133010687Y-90276371D02*
X132677354Y-90276371D01*
X132677354Y-90800180D02*
X132677354Y-89800180D01*
X133153544Y-89800180D01*
X133677354Y-90800180D02*
X133582116Y-90752561D01*
X133534497Y-90704942D01*
X133486878Y-90609704D01*
X133486878Y-90323990D01*
X133534497Y-90228752D01*
X133582116Y-90181133D01*
X133677354Y-90133514D01*
X133820211Y-90133514D01*
X133915449Y-90181133D01*
X133963068Y-90228752D01*
X134010687Y-90323990D01*
X134010687Y-90609704D01*
X133963068Y-90704942D01*
X133915449Y-90752561D01*
X133820211Y-90800180D01*
X133677354Y-90800180D01*
X134439259Y-90800180D02*
X134439259Y-90133514D01*
X134439259Y-90323990D02*
X134486878Y-90228752D01*
X134534497Y-90181133D01*
X134629735Y-90133514D01*
X134724973Y-90133514D01*
X135772592Y-90752561D02*
X135915449Y-90800180D01*
X136153544Y-90800180D01*
X136248782Y-90752561D01*
X136296401Y-90704942D01*
X136344020Y-90609704D01*
X136344020Y-90514466D01*
X136296401Y-90419228D01*
X136248782Y-90371609D01*
X136153544Y-90323990D01*
X135963068Y-90276371D01*
X135867830Y-90228752D01*
X135820211Y-90181133D01*
X135772592Y-90085895D01*
X135772592Y-89990657D01*
X135820211Y-89895419D01*
X135867830Y-89847800D01*
X135963068Y-89800180D01*
X136201163Y-89800180D01*
X136344020Y-89847800D01*
X136629735Y-90133514D02*
X137010687Y-90133514D01*
X136772592Y-89800180D02*
X136772592Y-90657323D01*
X136820211Y-90752561D01*
X136915449Y-90800180D01*
X137010687Y-90800180D01*
X137772592Y-90800180D02*
X137772592Y-90276371D01*
X137724973Y-90181133D01*
X137629735Y-90133514D01*
X137439259Y-90133514D01*
X137344020Y-90181133D01*
X137772592Y-90752561D02*
X137677354Y-90800180D01*
X137439259Y-90800180D01*
X137344020Y-90752561D01*
X137296401Y-90657323D01*
X137296401Y-90562085D01*
X137344020Y-90466847D01*
X137439259Y-90419228D01*
X137677354Y-90419228D01*
X137772592Y-90371609D01*
X138248782Y-90800180D02*
X138248782Y-90133514D01*
X138248782Y-90323990D02*
X138296401Y-90228752D01*
X138344020Y-90181133D01*
X138439259Y-90133514D01*
X138534497Y-90133514D01*
X138724973Y-90133514D02*
X139105925Y-90133514D01*
X138867830Y-89800180D02*
X138867830Y-90657323D01*
X138915449Y-90752561D01*
X139010687Y-90800180D01*
X139105925Y-90800180D01*
X140201163Y-90133514D02*
X140201163Y-91133514D01*
X140201163Y-90181133D02*
X140296401Y-90133514D01*
X140486878Y-90133514D01*
X140582116Y-90181133D01*
X140629735Y-90228752D01*
X140677354Y-90323990D01*
X140677354Y-90609704D01*
X140629735Y-90704942D01*
X140582116Y-90752561D01*
X140486878Y-90800180D01*
X140296401Y-90800180D01*
X140201163Y-90752561D01*
X141534497Y-90133514D02*
X141534497Y-90800180D01*
X141105925Y-90133514D02*
X141105925Y-90657323D01*
X141153544Y-90752561D01*
X141248782Y-90800180D01*
X141391640Y-90800180D01*
X141486878Y-90752561D01*
X141534497Y-90704942D01*
X141963068Y-90752561D02*
X142058306Y-90800180D01*
X142248782Y-90800180D01*
X142344020Y-90752561D01*
X142391640Y-90657323D01*
X142391640Y-90609704D01*
X142344020Y-90514466D01*
X142248782Y-90466847D01*
X142105925Y-90466847D01*
X142010687Y-90419228D01*
X141963068Y-90323990D01*
X141963068Y-90276371D01*
X142010687Y-90181133D01*
X142105925Y-90133514D01*
X142248782Y-90133514D01*
X142344020Y-90181133D01*
X142820211Y-90800180D02*
X142820211Y-89800180D01*
X143248782Y-90800180D02*
X143248782Y-90276371D01*
X143201163Y-90181133D01*
X143105925Y-90133514D01*
X142963068Y-90133514D01*
X142867830Y-90181133D01*
X142820211Y-90228752D01*
X145010687Y-90800180D02*
X144439259Y-90800180D01*
X144724973Y-90800180D02*
X144724973Y-89800180D01*
X144629735Y-89943038D01*
X144534497Y-90038276D01*
X144439259Y-90085895D01*
X145344020Y-90800180D02*
X145867830Y-90133514D01*
X145344020Y-90133514D02*
X145867830Y-90800180D01*
X147153544Y-90800180D02*
X147058306Y-90752561D01*
X147010687Y-90704942D01*
X146963068Y-90609704D01*
X146963068Y-90323990D01*
X147010687Y-90228752D01*
X147058306Y-90181133D01*
X147153544Y-90133514D01*
X147296401Y-90133514D01*
X147391640Y-90181133D01*
X147439259Y-90228752D01*
X147486878Y-90323990D01*
X147486878Y-90609704D01*
X147439259Y-90704942D01*
X147391640Y-90752561D01*
X147296401Y-90800180D01*
X147153544Y-90800180D01*
X147915449Y-90133514D02*
X147915449Y-90800180D01*
X147915449Y-90228752D02*
X147963068Y-90181133D01*
X148058306Y-90133514D01*
X148201163Y-90133514D01*
X148296401Y-90181133D01*
X148344020Y-90276371D01*
X148344020Y-90800180D01*
X148963068Y-90800180D02*
X148867830Y-90752561D01*
X148820211Y-90657323D01*
X148820211Y-89800180D01*
X149248782Y-90133514D02*
X149486878Y-90800180D01*
X149724973Y-90133514D02*
X149486878Y-90800180D01*
X149391640Y-91038276D01*
X149344020Y-91085895D01*
X149248782Y-91133514D01*
X150105925Y-90704942D02*
X150153544Y-90752561D01*
X150105925Y-90800180D01*
X150058306Y-90752561D01*
X150105925Y-90704942D01*
X150105925Y-90800180D01*
X150105925Y-90419228D02*
X150058306Y-89847800D01*
X150105925Y-89800180D01*
X150153544Y-89847800D01*
X150105925Y-90419228D01*
X150105925Y-89800180D01*
X157102988Y-108195454D02*
X157341083Y-108862120D01*
X157579179Y-108195454D01*
X158150607Y-107862120D02*
X158245845Y-107862120D01*
X158341083Y-107909740D01*
X158388702Y-107957359D01*
X158436321Y-108052597D01*
X158483940Y-108243073D01*
X158483940Y-108481168D01*
X158436321Y-108671644D01*
X158388702Y-108766882D01*
X158341083Y-108814501D01*
X158245845Y-108862120D01*
X158150607Y-108862120D01*
X158055369Y-108814501D01*
X158007750Y-108766882D01*
X157960131Y-108671644D01*
X157912512Y-108481168D01*
X157912512Y-108243073D01*
X157960131Y-108052597D01*
X158007750Y-107957359D01*
X158055369Y-107909740D01*
X158150607Y-107862120D01*
X158912512Y-108766882D02*
X158960131Y-108814501D01*
X158912512Y-108862120D01*
X158864893Y-108814501D01*
X158912512Y-108766882D01*
X158912512Y-108862120D01*
X159293464Y-107862120D02*
X159912512Y-107862120D01*
X159579179Y-108243073D01*
X159722036Y-108243073D01*
X159817274Y-108290692D01*
X159864893Y-108338311D01*
X159912512Y-108433549D01*
X159912512Y-108671644D01*
X159864893Y-108766882D01*
X159817274Y-108814501D01*
X159722036Y-108862120D01*
X159436321Y-108862120D01*
X159341083Y-108814501D01*
X159293464Y-108766882D01*
X126465272Y-80298040D02*
X126465272Y-81012326D01*
X126417653Y-81155183D01*
X126322415Y-81250421D01*
X126179558Y-81298040D01*
X126084320Y-81298040D01*
X127417653Y-81298040D02*
X126941462Y-81298040D01*
X126941462Y-80298040D01*
X128322415Y-81202802D02*
X128274796Y-81250421D01*
X128131939Y-81298040D01*
X128036700Y-81298040D01*
X127893843Y-81250421D01*
X127798605Y-81155183D01*
X127750986Y-81059945D01*
X127703367Y-80869469D01*
X127703367Y-80726612D01*
X127750986Y-80536136D01*
X127798605Y-80440898D01*
X127893843Y-80345660D01*
X128036700Y-80298040D01*
X128131939Y-80298040D01*
X128274796Y-80345660D01*
X128322415Y-80393279D01*
X129036700Y-80298040D02*
X129036700Y-81012326D01*
X128989081Y-81155183D01*
X128893843Y-81250421D01*
X128750986Y-81298040D01*
X128655748Y-81298040D01*
X129989081Y-81298040D02*
X129512891Y-81298040D01*
X129512891Y-80298040D01*
X130893843Y-81202802D02*
X130846224Y-81250421D01*
X130703367Y-81298040D01*
X130608129Y-81298040D01*
X130465272Y-81250421D01*
X130370034Y-81155183D01*
X130322415Y-81059945D01*
X130274796Y-80869469D01*
X130274796Y-80726612D01*
X130322415Y-80536136D01*
X130370034Y-80440898D01*
X130465272Y-80345660D01*
X130608129Y-80298040D01*
X130703367Y-80298040D01*
X130846224Y-80345660D01*
X130893843Y-80393279D01*
X131608129Y-80298040D02*
X131608129Y-81012326D01*
X131560510Y-81155183D01*
X131465272Y-81250421D01*
X131322415Y-81298040D01*
X131227177Y-81298040D01*
X132560510Y-81298040D02*
X132084320Y-81298040D01*
X132084320Y-80298040D01*
X133465272Y-81202802D02*
X133417653Y-81250421D01*
X133274796Y-81298040D01*
X133179558Y-81298040D01*
X133036700Y-81250421D01*
X132941462Y-81155183D01*
X132893843Y-81059945D01*
X132846224Y-80869469D01*
X132846224Y-80726612D01*
X132893843Y-80536136D01*
X132941462Y-80440898D01*
X133036700Y-80345660D01*
X133179558Y-80298040D01*
X133274796Y-80298040D01*
X133417653Y-80345660D01*
X133465272Y-80393279D01*
X134179558Y-80298040D02*
X134179558Y-81012326D01*
X134131939Y-81155183D01*
X134036700Y-81250421D01*
X133893843Y-81298040D01*
X133798605Y-81298040D01*
X135131939Y-81298040D02*
X134655748Y-81298040D01*
X134655748Y-80298040D01*
X136036700Y-81202802D02*
X135989081Y-81250421D01*
X135846224Y-81298040D01*
X135750986Y-81298040D01*
X135608129Y-81250421D01*
X135512891Y-81155183D01*
X135465272Y-81059945D01*
X135417653Y-80869469D01*
X135417653Y-80726612D01*
X135465272Y-80536136D01*
X135512891Y-80440898D01*
X135608129Y-80345660D01*
X135750986Y-80298040D01*
X135846224Y-80298040D01*
X135989081Y-80345660D01*
X136036700Y-80393279D01*
X114254476Y-68341761D02*
X113302095Y-68341761D01*
X113302095Y-66341761D01*
X114921142Y-67294142D02*
X115587809Y-67294142D01*
X115873523Y-68341761D02*
X114921142Y-68341761D01*
X114921142Y-66341761D01*
X115873523Y-66341761D01*
X116730666Y-68341761D02*
X116730666Y-66341761D01*
X117206857Y-66341761D01*
X117492571Y-66437000D01*
X117683047Y-66627476D01*
X117778285Y-66817952D01*
X117873523Y-67198904D01*
X117873523Y-67484619D01*
X117778285Y-67865571D01*
X117683047Y-68056047D01*
X117492571Y-68246523D01*
X117206857Y-68341761D01*
X116730666Y-68341761D01*
X120921142Y-67294142D02*
X120254476Y-67294142D01*
X120254476Y-68341761D02*
X120254476Y-66341761D01*
X121206857Y-66341761D01*
X122254476Y-68341761D02*
X122064000Y-68246523D01*
X121968761Y-68056047D01*
X121968761Y-66341761D01*
X123873523Y-68341761D02*
X123873523Y-67294142D01*
X123778285Y-67103666D01*
X123587809Y-67008428D01*
X123206857Y-67008428D01*
X123016380Y-67103666D01*
X123873523Y-68246523D02*
X123683047Y-68341761D01*
X123206857Y-68341761D01*
X123016380Y-68246523D01*
X122921142Y-68056047D01*
X122921142Y-67865571D01*
X123016380Y-67675095D01*
X123206857Y-67579857D01*
X123683047Y-67579857D01*
X123873523Y-67484619D01*
X124730666Y-68246523D02*
X124921142Y-68341761D01*
X125302095Y-68341761D01*
X125492571Y-68246523D01*
X125587809Y-68056047D01*
X125587809Y-67960809D01*
X125492571Y-67770333D01*
X125302095Y-67675095D01*
X125016380Y-67675095D01*
X124825904Y-67579857D01*
X124730666Y-67389380D01*
X124730666Y-67294142D01*
X124825904Y-67103666D01*
X125016380Y-67008428D01*
X125302095Y-67008428D01*
X125492571Y-67103666D01*
X126444952Y-68341761D02*
X126444952Y-66341761D01*
X127302095Y-68341761D02*
X127302095Y-67294142D01*
X127206857Y-67103666D01*
X127016380Y-67008428D01*
X126730666Y-67008428D01*
X126540190Y-67103666D01*
X126444952Y-67198904D01*
X129016380Y-68246523D02*
X128825904Y-68341761D01*
X128444952Y-68341761D01*
X128254476Y-68246523D01*
X128159238Y-68056047D01*
X128159238Y-67294142D01*
X128254476Y-67103666D01*
X128444952Y-67008428D01*
X128825904Y-67008428D01*
X129016380Y-67103666D01*
X129111619Y-67294142D01*
X129111619Y-67484619D01*
X128159238Y-67675095D01*
X129968761Y-68341761D02*
X129968761Y-67008428D01*
X129968761Y-67389380D02*
X130064000Y-67198904D01*
X130159238Y-67103666D01*
X130349714Y-67008428D01*
X130540190Y-67008428D01*
X132444952Y-67008428D02*
X133206857Y-67008428D01*
X132730666Y-68341761D02*
X132730666Y-66627476D01*
X132825904Y-66437000D01*
X133016380Y-66341761D01*
X133206857Y-66341761D01*
X134159238Y-68341761D02*
X133968761Y-68246523D01*
X133873523Y-68151285D01*
X133778285Y-67960809D01*
X133778285Y-67389380D01*
X133873523Y-67198904D01*
X133968761Y-67103666D01*
X134159238Y-67008428D01*
X134444952Y-67008428D01*
X134635428Y-67103666D01*
X134730666Y-67198904D01*
X134825904Y-67389380D01*
X134825904Y-67960809D01*
X134730666Y-68151285D01*
X134635428Y-68246523D01*
X134444952Y-68341761D01*
X134159238Y-68341761D01*
X135683047Y-68341761D02*
X135683047Y-67008428D01*
X135683047Y-67389380D02*
X135778285Y-67198904D01*
X135873523Y-67103666D01*
X136064000Y-67008428D01*
X136254476Y-67008428D01*
X138444952Y-67294142D02*
X139111619Y-67294142D01*
X139397333Y-68341761D02*
X138444952Y-68341761D01*
X138444952Y-66341761D01*
X139397333Y-66341761D01*
X139968761Y-67008428D02*
X140730666Y-67008428D01*
X140254476Y-66341761D02*
X140254476Y-68056047D01*
X140349714Y-68246523D01*
X140540190Y-68341761D01*
X140730666Y-68341761D01*
X142159238Y-68246523D02*
X141968761Y-68341761D01*
X141587809Y-68341761D01*
X141397333Y-68246523D01*
X141302095Y-68056047D01*
X141302095Y-67294142D01*
X141397333Y-67103666D01*
X141587809Y-67008428D01*
X141968761Y-67008428D01*
X142159238Y-67103666D01*
X142254476Y-67294142D01*
X142254476Y-67484619D01*
X141302095Y-67675095D01*
X143111619Y-68341761D02*
X143111619Y-67008428D01*
X143111619Y-67389380D02*
X143206857Y-67198904D01*
X143302095Y-67103666D01*
X143492571Y-67008428D01*
X143683047Y-67008428D01*
X144349714Y-67008428D02*
X144349714Y-68341761D01*
X144349714Y-67198904D02*
X144444952Y-67103666D01*
X144635428Y-67008428D01*
X144921142Y-67008428D01*
X145111619Y-67103666D01*
X145206857Y-67294142D01*
X145206857Y-68341761D01*
X146159238Y-68341761D02*
X146159238Y-67008428D01*
X146159238Y-66341761D02*
X146064000Y-66437000D01*
X146159238Y-66532238D01*
X146254476Y-66437000D01*
X146159238Y-66341761D01*
X146159238Y-66532238D01*
X146825904Y-67008428D02*
X147587809Y-67008428D01*
X147111619Y-66341761D02*
X147111619Y-68056047D01*
X147206857Y-68246523D01*
X147397333Y-68341761D01*
X147587809Y-68341761D01*
X148064000Y-67008428D02*
X148540190Y-68341761D01*
X149016380Y-67008428D02*
X148540190Y-68341761D01*
X148349714Y-68817952D01*
X148254476Y-68913190D01*
X148064000Y-69008428D01*
D11*
%TO.C,REF\u002A\u002A*%
G36*
X141194077Y-107760489D02*
G01*
X141458600Y-107760525D01*
X141581732Y-107760530D01*
X143552631Y-107760530D01*
X143552631Y-107876710D01*
X143565031Y-108018091D01*
X143602456Y-108148484D01*
X143665243Y-108268662D01*
X143753726Y-108379402D01*
X143783663Y-108409311D01*
X143891354Y-108494148D01*
X144010095Y-108556021D01*
X144136360Y-108594959D01*
X144266623Y-108610990D01*
X144397355Y-108604142D01*
X144525032Y-108574443D01*
X144646125Y-108521920D01*
X144757108Y-108446603D01*
X144806952Y-108401163D01*
X144899837Y-108289752D01*
X144967947Y-108167235D01*
X145010691Y-108035015D01*
X145027473Y-107894492D01*
X145027696Y-107880667D01*
X145028576Y-107760534D01*
X145081377Y-107760532D01*
X145128216Y-107766889D01*
X145171003Y-107782356D01*
X145173831Y-107783954D01*
X145183495Y-107788968D01*
X145192369Y-107792873D01*
X145200485Y-107796807D01*
X145207877Y-107801906D01*
X145214575Y-107809308D01*
X145220612Y-107820151D01*
X145226019Y-107835572D01*
X145230830Y-107856709D01*
X145235075Y-107884699D01*
X145238788Y-107920679D01*
X145241999Y-107965787D01*
X145244742Y-108021160D01*
X145247048Y-108087937D01*
X145248949Y-108167253D01*
X145250478Y-108260247D01*
X145251666Y-108368057D01*
X145252546Y-108491819D01*
X145253150Y-108632671D01*
X145253509Y-108791750D01*
X145253655Y-108970195D01*
X145253622Y-109169142D01*
X145253440Y-109389729D01*
X145253143Y-109633093D01*
X145252761Y-109900372D01*
X145252328Y-110192703D01*
X145251875Y-110511224D01*
X145251822Y-110550030D01*
X145251416Y-110870582D01*
X145251071Y-111164812D01*
X145250751Y-111433856D01*
X145250420Y-111678852D01*
X145250041Y-111900937D01*
X145249577Y-112101247D01*
X145248992Y-112280919D01*
X145248250Y-112441090D01*
X145247314Y-112582898D01*
X145246147Y-112707479D01*
X145244713Y-112815970D01*
X145242976Y-112909507D01*
X145240898Y-112989229D01*
X145238444Y-113056272D01*
X145235576Y-113111773D01*
X145232259Y-113156868D01*
X145228456Y-113192695D01*
X145224130Y-113220391D01*
X145219245Y-113241093D01*
X145213765Y-113255937D01*
X145207652Y-113266060D01*
X145200870Y-113272600D01*
X145193383Y-113276693D01*
X145185154Y-113279476D01*
X145176147Y-113282087D01*
X145166325Y-113285662D01*
X145163926Y-113286750D01*
X145156385Y-113289196D01*
X145143764Y-113291442D01*
X145124961Y-113293498D01*
X145098873Y-113295372D01*
X145064398Y-113297071D01*
X145020435Y-113298603D01*
X144965881Y-113299977D01*
X144899635Y-113301200D01*
X144820594Y-113302281D01*
X144727657Y-113303227D01*
X144619721Y-113304047D01*
X144495684Y-113304747D01*
X144354444Y-113305338D01*
X144194899Y-113305825D01*
X144015948Y-113306219D01*
X143816488Y-113306525D01*
X143595416Y-113306753D01*
X143351632Y-113306910D01*
X143084033Y-113307005D01*
X142791517Y-113307045D01*
X142472981Y-113307038D01*
X142369799Y-113307028D01*
X142044197Y-113306976D01*
X141744939Y-113306891D01*
X141470911Y-113306763D01*
X141220996Y-113306585D01*
X140994080Y-113306348D01*
X140789047Y-113306042D01*
X140604782Y-113305660D01*
X140440170Y-113305192D01*
X140294095Y-113304630D01*
X140165444Y-113303965D01*
X140053099Y-113303188D01*
X139955946Y-113302291D01*
X139872870Y-113301265D01*
X139802756Y-113300101D01*
X139744488Y-113298791D01*
X139696951Y-113297325D01*
X139659030Y-113295696D01*
X139629610Y-113293893D01*
X139607575Y-113291910D01*
X139591810Y-113289736D01*
X139581200Y-113287363D01*
X139575416Y-113285191D01*
X139565136Y-113280856D01*
X139555698Y-113277659D01*
X139547065Y-113274465D01*
X139539201Y-113270138D01*
X139532072Y-113263544D01*
X139525641Y-113253547D01*
X139519873Y-113239012D01*
X139514731Y-113218803D01*
X139510180Y-113191785D01*
X139506185Y-113156823D01*
X139502709Y-113112781D01*
X139499718Y-113058524D01*
X139497174Y-112992917D01*
X139495043Y-112914824D01*
X139493288Y-112823110D01*
X139491875Y-112716640D01*
X139491505Y-112675773D01*
X139857936Y-112675773D01*
X141153086Y-112675773D01*
X141128165Y-112638017D01*
X141103373Y-112599217D01*
X141082380Y-112562269D01*
X141064885Y-112524588D01*
X141050590Y-112483588D01*
X141039197Y-112436683D01*
X141030407Y-112381287D01*
X141023922Y-112314816D01*
X141019443Y-112234683D01*
X141016670Y-112138302D01*
X141015307Y-112023089D01*
X141015053Y-111886457D01*
X141015611Y-111725820D01*
X141015927Y-111666182D01*
X141019495Y-111026841D01*
X141424522Y-111578249D01*
X141539266Y-111734676D01*
X141638677Y-111870888D01*
X141723830Y-111988690D01*
X141795798Y-112089884D01*
X141855654Y-112176277D01*
X141904472Y-112249674D01*
X141943325Y-112311877D01*
X141973286Y-112364693D01*
X141995429Y-112409925D01*
X142010827Y-112449378D01*
X142020554Y-112484858D01*
X142025683Y-112518168D01*
X142027288Y-112551113D01*
X142026441Y-112585497D01*
X142026225Y-112589819D01*
X142021766Y-112675831D01*
X143441128Y-112675773D01*
X143335555Y-112569322D01*
X143306907Y-112540206D01*
X143279730Y-112511876D01*
X143252831Y-112482768D01*
X143225017Y-112451320D01*
X143195095Y-112415969D01*
X143161874Y-112375154D01*
X143124159Y-112327311D01*
X143080760Y-112270879D01*
X143030482Y-112204294D01*
X142972132Y-112125995D01*
X142904520Y-112034419D01*
X142826451Y-111928004D01*
X142736732Y-111805187D01*
X142634172Y-111664405D01*
X142517578Y-111504097D01*
X142422011Y-111372598D01*
X142302071Y-111207396D01*
X142197440Y-111062952D01*
X142107172Y-110937894D01*
X142030317Y-110830852D01*
X141965929Y-110740454D01*
X141913059Y-110665329D01*
X141870760Y-110604104D01*
X141838084Y-110555410D01*
X141814082Y-110517874D01*
X141797807Y-110490125D01*
X141788312Y-110470792D01*
X141784647Y-110458503D01*
X141785749Y-110452042D01*
X141799096Y-110434848D01*
X141827954Y-110398455D01*
X141870580Y-110345024D01*
X141925235Y-110276719D01*
X141990176Y-110195703D01*
X142063662Y-110104140D01*
X142143952Y-110004192D01*
X142229305Y-109898024D01*
X142317980Y-109787797D01*
X142408234Y-109675676D01*
X142457876Y-109614044D01*
X143690447Y-109614044D01*
X143741674Y-109706719D01*
X143792901Y-109799395D01*
X143792901Y-112490422D01*
X143741674Y-112583098D01*
X143690447Y-112675773D01*
X144296424Y-112675773D01*
X144441086Y-112675731D01*
X144560576Y-112675541D01*
X144657178Y-112675108D01*
X144733178Y-112674336D01*
X144790863Y-112673130D01*
X144832519Y-112671394D01*
X144860431Y-112669032D01*
X144876885Y-112665950D01*
X144884168Y-112662051D01*
X144884565Y-112657240D01*
X144880362Y-112651422D01*
X144880319Y-112651374D01*
X144863007Y-112626332D01*
X144840084Y-112585615D01*
X144819839Y-112544968D01*
X144781441Y-112462962D01*
X144773609Y-109614044D01*
X143690447Y-109614044D01*
X142457876Y-109614044D01*
X142498327Y-109563824D01*
X142586518Y-109454404D01*
X142671066Y-109349578D01*
X142750228Y-109251511D01*
X142822264Y-109162366D01*
X142885433Y-109084305D01*
X142937993Y-109019492D01*
X142978203Y-108970090D01*
X143001820Y-108941287D01*
X143093530Y-108833578D01*
X143181760Y-108736380D01*
X143263417Y-108652876D01*
X143335410Y-108586248D01*
X143386501Y-108545399D01*
X143446913Y-108501935D01*
X142057522Y-108501935D01*
X142057912Y-108583466D01*
X142054029Y-108643406D01*
X142039430Y-108698977D01*
X142016832Y-108751655D01*
X142002142Y-108781415D01*
X141986348Y-108810903D01*
X141968006Y-108842076D01*
X141945675Y-108876893D01*
X141917911Y-108917310D01*
X141883271Y-108965286D01*
X141840313Y-109022778D01*
X141787593Y-109091743D01*
X141723669Y-109174139D01*
X141647099Y-109271924D01*
X141556439Y-109387055D01*
X141450246Y-109521490D01*
X141438252Y-109536659D01*
X141019495Y-110066212D01*
X141015442Y-109479722D01*
X141014625Y-109304051D01*
X141014799Y-109155332D01*
X141015971Y-109033075D01*
X141018151Y-108936789D01*
X141021346Y-108865983D01*
X141025564Y-108820169D01*
X141026982Y-108811479D01*
X141049229Y-108719935D01*
X141078377Y-108637408D01*
X141111638Y-108571053D01*
X141131620Y-108542910D01*
X141166098Y-108501935D01*
X140511906Y-108501935D01*
X140355851Y-108502069D01*
X140225353Y-108502503D01*
X140118510Y-108503289D01*
X140033422Y-108504476D01*
X139968185Y-108506117D01*
X139920899Y-108508261D01*
X139889663Y-108510959D01*
X139872574Y-108514262D01*
X139867732Y-108518221D01*
X139868067Y-108519098D01*
X139881935Y-108540031D01*
X139905088Y-108573212D01*
X139917066Y-108589993D01*
X139929451Y-108606740D01*
X139940583Y-108621715D01*
X139950532Y-108636394D01*
X139959369Y-108652249D01*
X139967163Y-108670755D01*
X139973985Y-108693385D01*
X139979904Y-108721613D01*
X139984991Y-108756913D01*
X139989316Y-108800758D01*
X139992949Y-108854622D01*
X139995960Y-108919980D01*
X139998419Y-108998304D01*
X140000397Y-109091068D01*
X140001962Y-109199747D01*
X140003186Y-109325813D01*
X140004139Y-109470742D01*
X140004890Y-109636006D01*
X140005509Y-109823079D01*
X140006068Y-110033435D01*
X140006635Y-110268548D01*
X140007165Y-110484541D01*
X140007665Y-110725335D01*
X140007925Y-110955074D01*
X140007952Y-111172293D01*
X140007753Y-111375522D01*
X140007334Y-111563296D01*
X140006702Y-111734145D01*
X140005864Y-111886603D01*
X140004828Y-112019203D01*
X140003600Y-112130476D01*
X140002187Y-112218956D01*
X140000595Y-112283175D01*
X139998833Y-112321665D01*
X139998499Y-112325733D01*
X139986354Y-112419048D01*
X139967393Y-112493990D01*
X139938518Y-112559394D01*
X139896630Y-112624093D01*
X139891391Y-112631152D01*
X139857936Y-112675773D01*
X139491505Y-112675773D01*
X139490766Y-112594279D01*
X139489927Y-112454890D01*
X139489322Y-112297339D01*
X139488915Y-112120491D01*
X139488670Y-111923210D01*
X139488553Y-111704360D01*
X139488525Y-111462807D01*
X139488553Y-111197415D01*
X139488600Y-110907049D01*
X139488630Y-110590573D01*
X139488631Y-110527746D01*
X139488648Y-110207937D01*
X139488708Y-109914461D01*
X139488818Y-109646190D01*
X139488987Y-109401998D01*
X139489223Y-109180757D01*
X139489536Y-108981340D01*
X139489935Y-108802620D01*
X139490427Y-108643471D01*
X139491023Y-108502766D01*
X139491730Y-108379376D01*
X139492557Y-108272176D01*
X139493513Y-108180038D01*
X139494607Y-108101835D01*
X139495847Y-108036441D01*
X139497242Y-107982728D01*
X139498802Y-107939569D01*
X139500534Y-107905837D01*
X139502448Y-107880405D01*
X139504552Y-107862147D01*
X139506854Y-107849934D01*
X139509365Y-107842641D01*
X139509457Y-107842459D01*
X139514628Y-107831318D01*
X139518935Y-107821231D01*
X139523699Y-107812146D01*
X139530242Y-107804012D01*
X139539885Y-107796776D01*
X139553949Y-107790386D01*
X139573757Y-107784789D01*
X139600629Y-107779933D01*
X139635887Y-107775766D01*
X139680852Y-107772236D01*
X139736846Y-107769291D01*
X139805191Y-107766877D01*
X139887206Y-107764944D01*
X139984215Y-107763438D01*
X140097538Y-107762308D01*
X140228497Y-107761502D01*
X140378413Y-107760966D01*
X140548607Y-107760649D01*
X140740402Y-107760499D01*
X140955118Y-107760463D01*
X141194077Y-107760489D01*
G37*
X141194077Y-107760489D02*
X141458600Y-107760525D01*
X141581732Y-107760530D01*
X143552631Y-107760530D01*
X143552631Y-107876710D01*
X143565031Y-108018091D01*
X143602456Y-108148484D01*
X143665243Y-108268662D01*
X143753726Y-108379402D01*
X143783663Y-108409311D01*
X143891354Y-108494148D01*
X144010095Y-108556021D01*
X144136360Y-108594959D01*
X144266623Y-108610990D01*
X144397355Y-108604142D01*
X144525032Y-108574443D01*
X144646125Y-108521920D01*
X144757108Y-108446603D01*
X144806952Y-108401163D01*
X144899837Y-108289752D01*
X144967947Y-108167235D01*
X145010691Y-108035015D01*
X145027473Y-107894492D01*
X145027696Y-107880667D01*
X145028576Y-107760534D01*
X145081377Y-107760532D01*
X145128216Y-107766889D01*
X145171003Y-107782356D01*
X145173831Y-107783954D01*
X145183495Y-107788968D01*
X145192369Y-107792873D01*
X145200485Y-107796807D01*
X145207877Y-107801906D01*
X145214575Y-107809308D01*
X145220612Y-107820151D01*
X145226019Y-107835572D01*
X145230830Y-107856709D01*
X145235075Y-107884699D01*
X145238788Y-107920679D01*
X145241999Y-107965787D01*
X145244742Y-108021160D01*
X145247048Y-108087937D01*
X145248949Y-108167253D01*
X145250478Y-108260247D01*
X145251666Y-108368057D01*
X145252546Y-108491819D01*
X145253150Y-108632671D01*
X145253509Y-108791750D01*
X145253655Y-108970195D01*
X145253622Y-109169142D01*
X145253440Y-109389729D01*
X145253143Y-109633093D01*
X145252761Y-109900372D01*
X145252328Y-110192703D01*
X145251875Y-110511224D01*
X145251822Y-110550030D01*
X145251416Y-110870582D01*
X145251071Y-111164812D01*
X145250751Y-111433856D01*
X145250420Y-111678852D01*
X145250041Y-111900937D01*
X145249577Y-112101247D01*
X145248992Y-112280919D01*
X145248250Y-112441090D01*
X145247314Y-112582898D01*
X145246147Y-112707479D01*
X145244713Y-112815970D01*
X145242976Y-112909507D01*
X145240898Y-112989229D01*
X145238444Y-113056272D01*
X145235576Y-113111773D01*
X145232259Y-113156868D01*
X145228456Y-113192695D01*
X145224130Y-113220391D01*
X145219245Y-113241093D01*
X145213765Y-113255937D01*
X145207652Y-113266060D01*
X145200870Y-113272600D01*
X145193383Y-113276693D01*
X145185154Y-113279476D01*
X145176147Y-113282087D01*
X145166325Y-113285662D01*
X145163926Y-113286750D01*
X145156385Y-113289196D01*
X145143764Y-113291442D01*
X145124961Y-113293498D01*
X145098873Y-113295372D01*
X145064398Y-113297071D01*
X145020435Y-113298603D01*
X144965881Y-113299977D01*
X144899635Y-113301200D01*
X144820594Y-113302281D01*
X144727657Y-113303227D01*
X144619721Y-113304047D01*
X144495684Y-113304747D01*
X144354444Y-113305338D01*
X144194899Y-113305825D01*
X144015948Y-113306219D01*
X143816488Y-113306525D01*
X143595416Y-113306753D01*
X143351632Y-113306910D01*
X143084033Y-113307005D01*
X142791517Y-113307045D01*
X142472981Y-113307038D01*
X142369799Y-113307028D01*
X142044197Y-113306976D01*
X141744939Y-113306891D01*
X141470911Y-113306763D01*
X141220996Y-113306585D01*
X140994080Y-113306348D01*
X140789047Y-113306042D01*
X140604782Y-113305660D01*
X140440170Y-113305192D01*
X140294095Y-113304630D01*
X140165444Y-113303965D01*
X140053099Y-113303188D01*
X139955946Y-113302291D01*
X139872870Y-113301265D01*
X139802756Y-113300101D01*
X139744488Y-113298791D01*
X139696951Y-113297325D01*
X139659030Y-113295696D01*
X139629610Y-113293893D01*
X139607575Y-113291910D01*
X139591810Y-113289736D01*
X139581200Y-113287363D01*
X139575416Y-113285191D01*
X139565136Y-113280856D01*
X139555698Y-113277659D01*
X139547065Y-113274465D01*
X139539201Y-113270138D01*
X139532072Y-113263544D01*
X139525641Y-113253547D01*
X139519873Y-113239012D01*
X139514731Y-113218803D01*
X139510180Y-113191785D01*
X139506185Y-113156823D01*
X139502709Y-113112781D01*
X139499718Y-113058524D01*
X139497174Y-112992917D01*
X139495043Y-112914824D01*
X139493288Y-112823110D01*
X139491875Y-112716640D01*
X139491505Y-112675773D01*
X139857936Y-112675773D01*
X141153086Y-112675773D01*
X141128165Y-112638017D01*
X141103373Y-112599217D01*
X141082380Y-112562269D01*
X141064885Y-112524588D01*
X141050590Y-112483588D01*
X141039197Y-112436683D01*
X141030407Y-112381287D01*
X141023922Y-112314816D01*
X141019443Y-112234683D01*
X141016670Y-112138302D01*
X141015307Y-112023089D01*
X141015053Y-111886457D01*
X141015611Y-111725820D01*
X141015927Y-111666182D01*
X141019495Y-111026841D01*
X141424522Y-111578249D01*
X141539266Y-111734676D01*
X141638677Y-111870888D01*
X141723830Y-111988690D01*
X141795798Y-112089884D01*
X141855654Y-112176277D01*
X141904472Y-112249674D01*
X141943325Y-112311877D01*
X141973286Y-112364693D01*
X141995429Y-112409925D01*
X142010827Y-112449378D01*
X142020554Y-112484858D01*
X142025683Y-112518168D01*
X142027288Y-112551113D01*
X142026441Y-112585497D01*
X142026225Y-112589819D01*
X142021766Y-112675831D01*
X143441128Y-112675773D01*
X143335555Y-112569322D01*
X143306907Y-112540206D01*
X143279730Y-112511876D01*
X143252831Y-112482768D01*
X143225017Y-112451320D01*
X143195095Y-112415969D01*
X143161874Y-112375154D01*
X143124159Y-112327311D01*
X143080760Y-112270879D01*
X143030482Y-112204294D01*
X142972132Y-112125995D01*
X142904520Y-112034419D01*
X142826451Y-111928004D01*
X142736732Y-111805187D01*
X142634172Y-111664405D01*
X142517578Y-111504097D01*
X142422011Y-111372598D01*
X142302071Y-111207396D01*
X142197440Y-111062952D01*
X142107172Y-110937894D01*
X142030317Y-110830852D01*
X141965929Y-110740454D01*
X141913059Y-110665329D01*
X141870760Y-110604104D01*
X141838084Y-110555410D01*
X141814082Y-110517874D01*
X141797807Y-110490125D01*
X141788312Y-110470792D01*
X141784647Y-110458503D01*
X141785749Y-110452042D01*
X141799096Y-110434848D01*
X141827954Y-110398455D01*
X141870580Y-110345024D01*
X141925235Y-110276719D01*
X141990176Y-110195703D01*
X142063662Y-110104140D01*
X142143952Y-110004192D01*
X142229305Y-109898024D01*
X142317980Y-109787797D01*
X142408234Y-109675676D01*
X142457876Y-109614044D01*
X143690447Y-109614044D01*
X143741674Y-109706719D01*
X143792901Y-109799395D01*
X143792901Y-112490422D01*
X143741674Y-112583098D01*
X143690447Y-112675773D01*
X144296424Y-112675773D01*
X144441086Y-112675731D01*
X144560576Y-112675541D01*
X144657178Y-112675108D01*
X144733178Y-112674336D01*
X144790863Y-112673130D01*
X144832519Y-112671394D01*
X144860431Y-112669032D01*
X144876885Y-112665950D01*
X144884168Y-112662051D01*
X144884565Y-112657240D01*
X144880362Y-112651422D01*
X144880319Y-112651374D01*
X144863007Y-112626332D01*
X144840084Y-112585615D01*
X144819839Y-112544968D01*
X144781441Y-112462962D01*
X144773609Y-109614044D01*
X143690447Y-109614044D01*
X142457876Y-109614044D01*
X142498327Y-109563824D01*
X142586518Y-109454404D01*
X142671066Y-109349578D01*
X142750228Y-109251511D01*
X142822264Y-109162366D01*
X142885433Y-109084305D01*
X142937993Y-109019492D01*
X142978203Y-108970090D01*
X143001820Y-108941287D01*
X143093530Y-108833578D01*
X143181760Y-108736380D01*
X143263417Y-108652876D01*
X143335410Y-108586248D01*
X143386501Y-108545399D01*
X143446913Y-108501935D01*
X142057522Y-108501935D01*
X142057912Y-108583466D01*
X142054029Y-108643406D01*
X142039430Y-108698977D01*
X142016832Y-108751655D01*
X142002142Y-108781415D01*
X141986348Y-108810903D01*
X141968006Y-108842076D01*
X141945675Y-108876893D01*
X141917911Y-108917310D01*
X141883271Y-108965286D01*
X141840313Y-109022778D01*
X141787593Y-109091743D01*
X141723669Y-109174139D01*
X141647099Y-109271924D01*
X141556439Y-109387055D01*
X141450246Y-109521490D01*
X141438252Y-109536659D01*
X141019495Y-110066212D01*
X141015442Y-109479722D01*
X141014625Y-109304051D01*
X141014799Y-109155332D01*
X141015971Y-109033075D01*
X141018151Y-108936789D01*
X141021346Y-108865983D01*
X141025564Y-108820169D01*
X141026982Y-108811479D01*
X141049229Y-108719935D01*
X141078377Y-108637408D01*
X141111638Y-108571053D01*
X141131620Y-108542910D01*
X141166098Y-108501935D01*
X140511906Y-108501935D01*
X140355851Y-108502069D01*
X140225353Y-108502503D01*
X140118510Y-108503289D01*
X140033422Y-108504476D01*
X139968185Y-108506117D01*
X139920899Y-108508261D01*
X139889663Y-108510959D01*
X139872574Y-108514262D01*
X139867732Y-108518221D01*
X139868067Y-108519098D01*
X139881935Y-108540031D01*
X139905088Y-108573212D01*
X139917066Y-108589993D01*
X139929451Y-108606740D01*
X139940583Y-108621715D01*
X139950532Y-108636394D01*
X139959369Y-108652249D01*
X139967163Y-108670755D01*
X139973985Y-108693385D01*
X139979904Y-108721613D01*
X139984991Y-108756913D01*
X139989316Y-108800758D01*
X139992949Y-108854622D01*
X139995960Y-108919980D01*
X139998419Y-108998304D01*
X140000397Y-109091068D01*
X140001962Y-109199747D01*
X140003186Y-109325813D01*
X140004139Y-109470742D01*
X140004890Y-109636006D01*
X140005509Y-109823079D01*
X140006068Y-110033435D01*
X140006635Y-110268548D01*
X140007165Y-110484541D01*
X140007665Y-110725335D01*
X140007925Y-110955074D01*
X140007952Y-111172293D01*
X140007753Y-111375522D01*
X140007334Y-111563296D01*
X140006702Y-111734145D01*
X140005864Y-111886603D01*
X140004828Y-112019203D01*
X140003600Y-112130476D01*
X140002187Y-112218956D01*
X140000595Y-112283175D01*
X139998833Y-112321665D01*
X139998499Y-112325733D01*
X139986354Y-112419048D01*
X139967393Y-112493990D01*
X139938518Y-112559394D01*
X139896630Y-112624093D01*
X139891391Y-112631152D01*
X139857936Y-112675773D01*
X139491505Y-112675773D01*
X139490766Y-112594279D01*
X139489927Y-112454890D01*
X139489322Y-112297339D01*
X139488915Y-112120491D01*
X139488670Y-111923210D01*
X139488553Y-111704360D01*
X139488525Y-111462807D01*
X139488553Y-111197415D01*
X139488600Y-110907049D01*
X139488630Y-110590573D01*
X139488631Y-110527746D01*
X139488648Y-110207937D01*
X139488708Y-109914461D01*
X139488818Y-109646190D01*
X139488987Y-109401998D01*
X139489223Y-109180757D01*
X139489536Y-108981340D01*
X139489935Y-108802620D01*
X139490427Y-108643471D01*
X139491023Y-108502766D01*
X139491730Y-108379376D01*
X139492557Y-108272176D01*
X139493513Y-108180038D01*
X139494607Y-108101835D01*
X139495847Y-108036441D01*
X139497242Y-107982728D01*
X139498802Y-107939569D01*
X139500534Y-107905837D01*
X139502448Y-107880405D01*
X139504552Y-107862147D01*
X139506854Y-107849934D01*
X139509365Y-107842641D01*
X139509457Y-107842459D01*
X139514628Y-107831318D01*
X139518935Y-107821231D01*
X139523699Y-107812146D01*
X139530242Y-107804012D01*
X139539885Y-107796776D01*
X139553949Y-107790386D01*
X139573757Y-107784789D01*
X139600629Y-107779933D01*
X139635887Y-107775766D01*
X139680852Y-107772236D01*
X139736846Y-107769291D01*
X139805191Y-107766877D01*
X139887206Y-107764944D01*
X139984215Y-107763438D01*
X140097538Y-107762308D01*
X140228497Y-107761502D01*
X140378413Y-107760966D01*
X140548607Y-107760649D01*
X140740402Y-107760499D01*
X140955118Y-107760463D01*
X141194077Y-107760489D01*
G36*
X147589782Y-108447299D02*
G01*
X147737834Y-108463507D01*
X147881272Y-108492518D01*
X148025930Y-108535845D01*
X148177644Y-108595001D01*
X148342248Y-108671500D01*
X148371891Y-108686317D01*
X148439918Y-108719831D01*
X148504076Y-108750008D01*
X148558035Y-108773966D01*
X148595460Y-108788824D01*
X148601209Y-108790695D01*
X148656306Y-108807202D01*
X148409671Y-109166001D01*
X148349372Y-109253693D01*
X148294242Y-109333812D01*
X148246156Y-109403636D01*
X148206988Y-109460447D01*
X148178614Y-109501523D01*
X148162907Y-109524146D01*
X148160356Y-109527728D01*
X148149991Y-109520238D01*
X148124480Y-109497718D01*
X148088383Y-109464261D01*
X148068462Y-109445350D01*
X147955593Y-109355578D01*
X147828834Y-109287361D01*
X147719603Y-109249995D01*
X147654034Y-109238260D01*
X147571936Y-109231108D01*
X147482964Y-109228674D01*
X147396776Y-109231088D01*
X147323025Y-109238483D01*
X147293596Y-109244147D01*
X147160953Y-109289782D01*
X147041426Y-109359463D01*
X146935103Y-109453060D01*
X146842073Y-109570449D01*
X146762425Y-109711500D01*
X146696246Y-109876086D01*
X146643626Y-110064080D01*
X146612353Y-110225017D01*
X146604194Y-110296063D01*
X146598635Y-110387846D01*
X146595622Y-110493768D01*
X146595101Y-110607234D01*
X146597020Y-110721649D01*
X146601323Y-110830417D01*
X146607957Y-110926943D01*
X146616869Y-111004631D01*
X146618799Y-111016617D01*
X146661319Y-111209692D01*
X146719253Y-111380573D01*
X146792953Y-111530024D01*
X146882771Y-111658811D01*
X146946527Y-111728439D01*
X147061106Y-111822973D01*
X147186762Y-111893046D01*
X147321377Y-111938277D01*
X147462831Y-111958284D01*
X147609003Y-111952685D01*
X147757775Y-111921100D01*
X147845731Y-111890194D01*
X147967449Y-111828306D01*
X148092900Y-111739529D01*
X148163173Y-111679494D01*
X148202631Y-111644747D01*
X148233632Y-111619254D01*
X148251278Y-111606970D01*
X148253468Y-111606595D01*
X148261344Y-111619147D01*
X148281752Y-111652316D01*
X148312952Y-111703258D01*
X148353206Y-111769131D01*
X148400777Y-111847089D01*
X148453924Y-111934290D01*
X148483507Y-111982867D01*
X148709468Y-112354015D01*
X148427347Y-112493439D01*
X148325342Y-112543519D01*
X148242709Y-112583010D01*
X148174398Y-112613873D01*
X148115357Y-112638068D01*
X148060534Y-112657558D01*
X148004880Y-112674303D01*
X147943343Y-112690265D01*
X147884360Y-112704282D01*
X147831935Y-112715129D01*
X147777108Y-112723326D01*
X147714392Y-112729328D01*
X147638297Y-112733590D01*
X147543336Y-112736567D01*
X147479333Y-112737852D01*
X147388012Y-112738730D01*
X147300447Y-112738287D01*
X147222432Y-112736652D01*
X147159762Y-112733949D01*
X147118233Y-112730305D01*
X147115772Y-112729942D01*
X146900123Y-112683287D01*
X146697613Y-112612529D01*
X146508315Y-112517714D01*
X146332299Y-112398889D01*
X146169636Y-112256100D01*
X146020398Y-112089394D01*
X145912316Y-111941233D01*
X145797254Y-111747302D01*
X145704243Y-111542499D01*
X145632833Y-111325183D01*
X145582576Y-111093712D01*
X145553021Y-110846443D01*
X145543709Y-110595359D01*
X145551368Y-110352470D01*
X145575433Y-110128370D01*
X145616672Y-109919277D01*
X145675847Y-109721413D01*
X145753724Y-109530996D01*
X145763023Y-109511268D01*
X145865468Y-109326859D01*
X145991292Y-109151376D01*
X146136932Y-108988450D01*
X146298821Y-108841714D01*
X146473396Y-108714801D01*
X146636064Y-108621705D01*
X146800393Y-108548791D01*
X146965071Y-108495974D01*
X147136472Y-108461815D01*
X147320973Y-108444878D01*
X147431279Y-108442380D01*
X147589782Y-108447299D01*
G37*
X147589782Y-108447299D02*
X147737834Y-108463507D01*
X147881272Y-108492518D01*
X148025930Y-108535845D01*
X148177644Y-108595001D01*
X148342248Y-108671500D01*
X148371891Y-108686317D01*
X148439918Y-108719831D01*
X148504076Y-108750008D01*
X148558035Y-108773966D01*
X148595460Y-108788824D01*
X148601209Y-108790695D01*
X148656306Y-108807202D01*
X148409671Y-109166001D01*
X148349372Y-109253693D01*
X148294242Y-109333812D01*
X148246156Y-109403636D01*
X148206988Y-109460447D01*
X148178614Y-109501523D01*
X148162907Y-109524146D01*
X148160356Y-109527728D01*
X148149991Y-109520238D01*
X148124480Y-109497718D01*
X148088383Y-109464261D01*
X148068462Y-109445350D01*
X147955593Y-109355578D01*
X147828834Y-109287361D01*
X147719603Y-109249995D01*
X147654034Y-109238260D01*
X147571936Y-109231108D01*
X147482964Y-109228674D01*
X147396776Y-109231088D01*
X147323025Y-109238483D01*
X147293596Y-109244147D01*
X147160953Y-109289782D01*
X147041426Y-109359463D01*
X146935103Y-109453060D01*
X146842073Y-109570449D01*
X146762425Y-109711500D01*
X146696246Y-109876086D01*
X146643626Y-110064080D01*
X146612353Y-110225017D01*
X146604194Y-110296063D01*
X146598635Y-110387846D01*
X146595622Y-110493768D01*
X146595101Y-110607234D01*
X146597020Y-110721649D01*
X146601323Y-110830417D01*
X146607957Y-110926943D01*
X146616869Y-111004631D01*
X146618799Y-111016617D01*
X146661319Y-111209692D01*
X146719253Y-111380573D01*
X146792953Y-111530024D01*
X146882771Y-111658811D01*
X146946527Y-111728439D01*
X147061106Y-111822973D01*
X147186762Y-111893046D01*
X147321377Y-111938277D01*
X147462831Y-111958284D01*
X147609003Y-111952685D01*
X147757775Y-111921100D01*
X147845731Y-111890194D01*
X147967449Y-111828306D01*
X148092900Y-111739529D01*
X148163173Y-111679494D01*
X148202631Y-111644747D01*
X148233632Y-111619254D01*
X148251278Y-111606970D01*
X148253468Y-111606595D01*
X148261344Y-111619147D01*
X148281752Y-111652316D01*
X148312952Y-111703258D01*
X148353206Y-111769131D01*
X148400777Y-111847089D01*
X148453924Y-111934290D01*
X148483507Y-111982867D01*
X148709468Y-112354015D01*
X148427347Y-112493439D01*
X148325342Y-112543519D01*
X148242709Y-112583010D01*
X148174398Y-112613873D01*
X148115357Y-112638068D01*
X148060534Y-112657558D01*
X148004880Y-112674303D01*
X147943343Y-112690265D01*
X147884360Y-112704282D01*
X147831935Y-112715129D01*
X147777108Y-112723326D01*
X147714392Y-112729328D01*
X147638297Y-112733590D01*
X147543336Y-112736567D01*
X147479333Y-112737852D01*
X147388012Y-112738730D01*
X147300447Y-112738287D01*
X147222432Y-112736652D01*
X147159762Y-112733949D01*
X147118233Y-112730305D01*
X147115772Y-112729942D01*
X146900123Y-112683287D01*
X146697613Y-112612529D01*
X146508315Y-112517714D01*
X146332299Y-112398889D01*
X146169636Y-112256100D01*
X146020398Y-112089394D01*
X145912316Y-111941233D01*
X145797254Y-111747302D01*
X145704243Y-111542499D01*
X145632833Y-111325183D01*
X145582576Y-111093712D01*
X145553021Y-110846443D01*
X145543709Y-110595359D01*
X145551368Y-110352470D01*
X145575433Y-110128370D01*
X145616672Y-109919277D01*
X145675847Y-109721413D01*
X145753724Y-109530996D01*
X145763023Y-109511268D01*
X145865468Y-109326859D01*
X145991292Y-109151376D01*
X146136932Y-108988450D01*
X146298821Y-108841714D01*
X146473396Y-108714801D01*
X146636064Y-108621705D01*
X146800393Y-108548791D01*
X146965071Y-108495974D01*
X147136472Y-108461815D01*
X147320973Y-108444878D01*
X147431279Y-108442380D01*
X147589782Y-108447299D01*
G36*
X150317325Y-109551029D02*
G01*
X150385351Y-109556178D01*
X150579983Y-109582073D01*
X150752349Y-109623375D01*
X150903290Y-109680653D01*
X151033645Y-109754474D01*
X151144254Y-109845408D01*
X151235955Y-109954022D01*
X151309590Y-110080885D01*
X151363359Y-110218152D01*
X151377007Y-110261937D01*
X151388893Y-110302941D01*
X151399154Y-110343369D01*
X151407933Y-110385430D01*
X151415368Y-110431331D01*
X151421600Y-110483280D01*
X151426770Y-110543485D01*
X151431016Y-110614152D01*
X151434480Y-110697489D01*
X151437301Y-110795705D01*
X151439620Y-110911005D01*
X151441577Y-111045599D01*
X151443311Y-111201693D01*
X151444963Y-111381495D01*
X151446144Y-111522476D01*
X151454090Y-112490422D01*
X151505576Y-112583570D01*
X151529957Y-112628445D01*
X151548100Y-112663301D01*
X151556755Y-112681854D01*
X151557063Y-112683111D01*
X151543834Y-112684549D01*
X151506146Y-112685874D01*
X151447003Y-112687049D01*
X151369406Y-112688037D01*
X151276356Y-112688799D01*
X151170855Y-112689300D01*
X151055904Y-112689501D01*
X151042198Y-112689503D01*
X150527333Y-112689503D01*
X150527333Y-112572800D01*
X150526455Y-112520060D01*
X150524112Y-112479726D01*
X150520741Y-112458100D01*
X150519251Y-112456098D01*
X150505624Y-112464483D01*
X150477577Y-112486492D01*
X150441123Y-112517401D01*
X150440305Y-112518116D01*
X150373782Y-112567643D01*
X150289768Y-112617375D01*
X150197757Y-112662426D01*
X150107241Y-112697910D01*
X150067387Y-112710036D01*
X149988075Y-112725437D01*
X149890755Y-112735265D01*
X149784336Y-112739380D01*
X149677727Y-112737641D01*
X149579837Y-112729908D01*
X149511333Y-112718781D01*
X149343340Y-112669448D01*
X149192101Y-112599142D01*
X149058602Y-112508733D01*
X148943826Y-112399095D01*
X148848757Y-112271099D01*
X148774380Y-112125618D01*
X148742294Y-112037341D01*
X148722185Y-111951539D01*
X148708858Y-111848536D01*
X148702692Y-111737834D01*
X148702894Y-111721725D01*
X149631468Y-111721725D01*
X149639168Y-111803984D01*
X149664809Y-111872346D01*
X149712198Y-111935770D01*
X149730399Y-111954367D01*
X149795102Y-112004646D01*
X149869886Y-112036856D01*
X149959482Y-112052448D01*
X150053832Y-112053596D01*
X150143321Y-112046016D01*
X150211838Y-112031189D01*
X150241595Y-112020053D01*
X150295228Y-111989704D01*
X150352055Y-111947021D01*
X150403902Y-111899117D01*
X150442598Y-111853101D01*
X150452874Y-111836221D01*
X150460862Y-111812582D01*
X150466541Y-111774968D01*
X150470176Y-111719785D01*
X150472031Y-111643440D01*
X150472414Y-111570781D01*
X150472155Y-111486070D01*
X150471107Y-111424818D01*
X150468865Y-111383027D01*
X150465026Y-111356699D01*
X150459185Y-111341835D01*
X150450938Y-111334439D01*
X150448387Y-111333261D01*
X150426220Y-111329633D01*
X150382500Y-111326666D01*
X150323131Y-111324627D01*
X150254016Y-111323783D01*
X150239009Y-111323782D01*
X150146625Y-111325257D01*
X150075252Y-111329642D01*
X150018539Y-111337538D01*
X149971692Y-111349070D01*
X149855489Y-111393015D01*
X149764363Y-111447043D01*
X149697525Y-111512019D01*
X149654185Y-111588805D01*
X149633554Y-111678267D01*
X149631468Y-111721725D01*
X148702894Y-111721725D01*
X148704064Y-111628933D01*
X148713352Y-111531336D01*
X148720597Y-111491905D01*
X148766859Y-111345501D01*
X148837204Y-111210795D01*
X148930304Y-111089080D01*
X149044832Y-110981647D01*
X149179460Y-110889788D01*
X149332860Y-110814796D01*
X149463279Y-110769258D01*
X149550443Y-110745333D01*
X149633816Y-110726743D01*
X149718796Y-110712884D01*
X149810785Y-110703151D01*
X149915182Y-110696941D01*
X150037388Y-110693651D01*
X150147875Y-110692724D01*
X150475497Y-110691827D01*
X150469221Y-110593347D01*
X150451399Y-110486495D01*
X150413487Y-110394652D01*
X150357100Y-110320110D01*
X150283851Y-110265164D01*
X150219355Y-110238352D01*
X150126943Y-110221454D01*
X150016931Y-110219027D01*
X149894476Y-110230178D01*
X149764734Y-110254010D01*
X149632862Y-110289630D01*
X149504018Y-110336143D01*
X149410386Y-110378683D01*
X149365337Y-110400528D01*
X149330976Y-110415784D01*
X149313501Y-110421737D01*
X149312553Y-110421546D01*
X149306523Y-110408212D01*
X149291465Y-110372868D01*
X149268797Y-110318901D01*
X149239935Y-110249696D01*
X149206297Y-110168640D01*
X149172104Y-110085918D01*
X149035406Y-109754603D01*
X149132640Y-109738633D01*
X149174784Y-109730620D01*
X149238139Y-109717161D01*
X149317277Y-109699479D01*
X149406771Y-109678796D01*
X149501193Y-109656332D01*
X149538793Y-109647203D01*
X149701457Y-109609474D01*
X149843870Y-109581188D01*
X149971347Y-109561772D01*
X150089204Y-109550654D01*
X150202758Y-109547264D01*
X150317325Y-109551029D01*
G37*
X150317325Y-109551029D02*
X150385351Y-109556178D01*
X150579983Y-109582073D01*
X150752349Y-109623375D01*
X150903290Y-109680653D01*
X151033645Y-109754474D01*
X151144254Y-109845408D01*
X151235955Y-109954022D01*
X151309590Y-110080885D01*
X151363359Y-110218152D01*
X151377007Y-110261937D01*
X151388893Y-110302941D01*
X151399154Y-110343369D01*
X151407933Y-110385430D01*
X151415368Y-110431331D01*
X151421600Y-110483280D01*
X151426770Y-110543485D01*
X151431016Y-110614152D01*
X151434480Y-110697489D01*
X151437301Y-110795705D01*
X151439620Y-110911005D01*
X151441577Y-111045599D01*
X151443311Y-111201693D01*
X151444963Y-111381495D01*
X151446144Y-111522476D01*
X151454090Y-112490422D01*
X151505576Y-112583570D01*
X151529957Y-112628445D01*
X151548100Y-112663301D01*
X151556755Y-112681854D01*
X151557063Y-112683111D01*
X151543834Y-112684549D01*
X151506146Y-112685874D01*
X151447003Y-112687049D01*
X151369406Y-112688037D01*
X151276356Y-112688799D01*
X151170855Y-112689300D01*
X151055904Y-112689501D01*
X151042198Y-112689503D01*
X150527333Y-112689503D01*
X150527333Y-112572800D01*
X150526455Y-112520060D01*
X150524112Y-112479726D01*
X150520741Y-112458100D01*
X150519251Y-112456098D01*
X150505624Y-112464483D01*
X150477577Y-112486492D01*
X150441123Y-112517401D01*
X150440305Y-112518116D01*
X150373782Y-112567643D01*
X150289768Y-112617375D01*
X150197757Y-112662426D01*
X150107241Y-112697910D01*
X150067387Y-112710036D01*
X149988075Y-112725437D01*
X149890755Y-112735265D01*
X149784336Y-112739380D01*
X149677727Y-112737641D01*
X149579837Y-112729908D01*
X149511333Y-112718781D01*
X149343340Y-112669448D01*
X149192101Y-112599142D01*
X149058602Y-112508733D01*
X148943826Y-112399095D01*
X148848757Y-112271099D01*
X148774380Y-112125618D01*
X148742294Y-112037341D01*
X148722185Y-111951539D01*
X148708858Y-111848536D01*
X148702692Y-111737834D01*
X148702894Y-111721725D01*
X149631468Y-111721725D01*
X149639168Y-111803984D01*
X149664809Y-111872346D01*
X149712198Y-111935770D01*
X149730399Y-111954367D01*
X149795102Y-112004646D01*
X149869886Y-112036856D01*
X149959482Y-112052448D01*
X150053832Y-112053596D01*
X150143321Y-112046016D01*
X150211838Y-112031189D01*
X150241595Y-112020053D01*
X150295228Y-111989704D01*
X150352055Y-111947021D01*
X150403902Y-111899117D01*
X150442598Y-111853101D01*
X150452874Y-111836221D01*
X150460862Y-111812582D01*
X150466541Y-111774968D01*
X150470176Y-111719785D01*
X150472031Y-111643440D01*
X150472414Y-111570781D01*
X150472155Y-111486070D01*
X150471107Y-111424818D01*
X150468865Y-111383027D01*
X150465026Y-111356699D01*
X150459185Y-111341835D01*
X150450938Y-111334439D01*
X150448387Y-111333261D01*
X150426220Y-111329633D01*
X150382500Y-111326666D01*
X150323131Y-111324627D01*
X150254016Y-111323783D01*
X150239009Y-111323782D01*
X150146625Y-111325257D01*
X150075252Y-111329642D01*
X150018539Y-111337538D01*
X149971692Y-111349070D01*
X149855489Y-111393015D01*
X149764363Y-111447043D01*
X149697525Y-111512019D01*
X149654185Y-111588805D01*
X149633554Y-111678267D01*
X149631468Y-111721725D01*
X148702894Y-111721725D01*
X148704064Y-111628933D01*
X148713352Y-111531336D01*
X148720597Y-111491905D01*
X148766859Y-111345501D01*
X148837204Y-111210795D01*
X148930304Y-111089080D01*
X149044832Y-110981647D01*
X149179460Y-110889788D01*
X149332860Y-110814796D01*
X149463279Y-110769258D01*
X149550443Y-110745333D01*
X149633816Y-110726743D01*
X149718796Y-110712884D01*
X149810785Y-110703151D01*
X149915182Y-110696941D01*
X150037388Y-110693651D01*
X150147875Y-110692724D01*
X150475497Y-110691827D01*
X150469221Y-110593347D01*
X150451399Y-110486495D01*
X150413487Y-110394652D01*
X150357100Y-110320110D01*
X150283851Y-110265164D01*
X150219355Y-110238352D01*
X150126943Y-110221454D01*
X150016931Y-110219027D01*
X149894476Y-110230178D01*
X149764734Y-110254010D01*
X149632862Y-110289630D01*
X149504018Y-110336143D01*
X149410386Y-110378683D01*
X149365337Y-110400528D01*
X149330976Y-110415784D01*
X149313501Y-110421737D01*
X149312553Y-110421546D01*
X149306523Y-110408212D01*
X149291465Y-110372868D01*
X149268797Y-110318901D01*
X149239935Y-110249696D01*
X149206297Y-110168640D01*
X149172104Y-110085918D01*
X149035406Y-109754603D01*
X149132640Y-109738633D01*
X149174784Y-109730620D01*
X149238139Y-109717161D01*
X149317277Y-109699479D01*
X149406771Y-109678796D01*
X149501193Y-109656332D01*
X149538793Y-109647203D01*
X149701457Y-109609474D01*
X149843870Y-109581188D01*
X149971347Y-109561772D01*
X150089204Y-109550654D01*
X150202758Y-109547264D01*
X150317325Y-109551029D01*
G36*
X153992090Y-108243625D02*
G01*
X154108861Y-108244104D01*
X154148549Y-108244345D01*
X154694306Y-108247935D01*
X154701171Y-110341719D01*
X154702078Y-110625642D01*
X154702882Y-110883440D01*
X154703635Y-111116446D01*
X154704389Y-111325994D01*
X154705195Y-111513418D01*
X154706105Y-111680050D01*
X154707171Y-111827225D01*
X154708444Y-111956277D01*
X154709976Y-112068539D01*
X154711818Y-112165344D01*
X154714023Y-112248026D01*
X154716642Y-112317919D01*
X154719726Y-112376357D01*
X154723328Y-112424672D01*
X154727498Y-112464200D01*
X154732289Y-112496273D01*
X154737751Y-112522224D01*
X154743938Y-112543389D01*
X154750900Y-112561099D01*
X154758689Y-112576689D01*
X154767357Y-112591493D01*
X154776955Y-112606844D01*
X154787535Y-112624076D01*
X154789704Y-112627746D01*
X154826088Y-112689831D01*
X154300251Y-112686234D01*
X153774414Y-112682638D01*
X153767549Y-112567131D01*
X153763812Y-112511699D01*
X153759917Y-112479651D01*
X153754631Y-112466935D01*
X153746723Y-112469496D01*
X153740090Y-112476824D01*
X153711194Y-112503514D01*
X153664099Y-112537821D01*
X153605440Y-112575646D01*
X153541851Y-112612890D01*
X153479969Y-112645453D01*
X153432454Y-112666877D01*
X153321136Y-112702083D01*
X153193416Y-112727022D01*
X153058721Y-112740741D01*
X152926483Y-112742286D01*
X152806128Y-112730706D01*
X152804146Y-112730374D01*
X152639461Y-112689050D01*
X152485299Y-112623212D01*
X152343148Y-112534274D01*
X152214495Y-112423652D01*
X152100827Y-112292761D01*
X152003630Y-112143016D01*
X151924392Y-111975833D01*
X151881250Y-111851990D01*
X151852799Y-111748381D01*
X151831700Y-111648052D01*
X151817308Y-111544909D01*
X151808978Y-111432857D01*
X151806065Y-111305801D01*
X151807355Y-111202052D01*
X152820470Y-111202052D01*
X152825264Y-111376022D01*
X152840388Y-111525695D01*
X152866305Y-111652397D01*
X152903483Y-111757458D01*
X152952385Y-111842206D01*
X153013478Y-111907969D01*
X153083997Y-111954459D01*
X153120691Y-111971814D01*
X153152516Y-111982219D01*
X153187997Y-111986979D01*
X153235661Y-111987401D01*
X153287009Y-111985548D01*
X153387989Y-111976641D01*
X153467855Y-111959198D01*
X153492955Y-111950461D01*
X153550268Y-111924657D01*
X153610717Y-111892253D01*
X153637117Y-111876033D01*
X153705766Y-111831005D01*
X153705766Y-110403782D01*
X153630252Y-110358518D01*
X153524941Y-110307372D01*
X153417345Y-110277124D01*
X153311401Y-110267595D01*
X153211044Y-110278607D01*
X153120207Y-110309981D01*
X153042827Y-110361540D01*
X153017859Y-110386288D01*
X152957676Y-110467377D01*
X152908965Y-110565534D01*
X152871319Y-110682443D01*
X152844332Y-110819785D01*
X152827595Y-110979244D01*
X152820703Y-111162500D01*
X152820470Y-111202052D01*
X151807355Y-111202052D01*
X151807893Y-111158867D01*
X151819467Y-110932853D01*
X151842740Y-110728992D01*
X151878324Y-110544313D01*
X151926833Y-110375848D01*
X151988880Y-110220626D01*
X152011021Y-110174608D01*
X152100205Y-110024539D01*
X152207979Y-109891177D01*
X152331810Y-109776677D01*
X152469162Y-109683189D01*
X152617503Y-109612868D01*
X152706424Y-109583860D01*
X152793753Y-109566640D01*
X152898831Y-109556394D01*
X153012849Y-109553118D01*
X153126997Y-109556809D01*
X153232468Y-109567460D01*
X153317154Y-109584170D01*
X153417948Y-109616940D01*
X153515642Y-109659079D01*
X153601116Y-109706319D01*
X153646609Y-109738381D01*
X153677989Y-109762222D01*
X153699962Y-109776739D01*
X153704961Y-109778800D01*
X153706510Y-109765518D01*
X153707955Y-109727463D01*
X153709263Y-109667319D01*
X153710403Y-109587773D01*
X153711341Y-109491511D01*
X153712046Y-109381219D01*
X153712487Y-109259581D01*
X153712631Y-109135685D01*
X153712550Y-108976996D01*
X153712155Y-108843208D01*
X153711215Y-108731760D01*
X153709500Y-108640095D01*
X153706777Y-108565653D01*
X153702817Y-108505875D01*
X153697389Y-108458202D01*
X153690261Y-108420074D01*
X153681204Y-108388934D01*
X153669987Y-108362221D01*
X153656378Y-108337377D01*
X153640148Y-108311843D01*
X153638060Y-108308681D01*
X153617126Y-108275610D01*
X153604487Y-108252869D01*
X153602793Y-108248072D01*
X153616036Y-108246559D01*
X153653822Y-108245328D01*
X153713236Y-108244399D01*
X153791362Y-108243792D01*
X153885285Y-108243527D01*
X153992090Y-108243625D01*
G37*
X153992090Y-108243625D02*
X154108861Y-108244104D01*
X154148549Y-108244345D01*
X154694306Y-108247935D01*
X154701171Y-110341719D01*
X154702078Y-110625642D01*
X154702882Y-110883440D01*
X154703635Y-111116446D01*
X154704389Y-111325994D01*
X154705195Y-111513418D01*
X154706105Y-111680050D01*
X154707171Y-111827225D01*
X154708444Y-111956277D01*
X154709976Y-112068539D01*
X154711818Y-112165344D01*
X154714023Y-112248026D01*
X154716642Y-112317919D01*
X154719726Y-112376357D01*
X154723328Y-112424672D01*
X154727498Y-112464200D01*
X154732289Y-112496273D01*
X154737751Y-112522224D01*
X154743938Y-112543389D01*
X154750900Y-112561099D01*
X154758689Y-112576689D01*
X154767357Y-112591493D01*
X154776955Y-112606844D01*
X154787535Y-112624076D01*
X154789704Y-112627746D01*
X154826088Y-112689831D01*
X154300251Y-112686234D01*
X153774414Y-112682638D01*
X153767549Y-112567131D01*
X153763812Y-112511699D01*
X153759917Y-112479651D01*
X153754631Y-112466935D01*
X153746723Y-112469496D01*
X153740090Y-112476824D01*
X153711194Y-112503514D01*
X153664099Y-112537821D01*
X153605440Y-112575646D01*
X153541851Y-112612890D01*
X153479969Y-112645453D01*
X153432454Y-112666877D01*
X153321136Y-112702083D01*
X153193416Y-112727022D01*
X153058721Y-112740741D01*
X152926483Y-112742286D01*
X152806128Y-112730706D01*
X152804146Y-112730374D01*
X152639461Y-112689050D01*
X152485299Y-112623212D01*
X152343148Y-112534274D01*
X152214495Y-112423652D01*
X152100827Y-112292761D01*
X152003630Y-112143016D01*
X151924392Y-111975833D01*
X151881250Y-111851990D01*
X151852799Y-111748381D01*
X151831700Y-111648052D01*
X151817308Y-111544909D01*
X151808978Y-111432857D01*
X151806065Y-111305801D01*
X151807355Y-111202052D01*
X152820470Y-111202052D01*
X152825264Y-111376022D01*
X152840388Y-111525695D01*
X152866305Y-111652397D01*
X152903483Y-111757458D01*
X152952385Y-111842206D01*
X153013478Y-111907969D01*
X153083997Y-111954459D01*
X153120691Y-111971814D01*
X153152516Y-111982219D01*
X153187997Y-111986979D01*
X153235661Y-111987401D01*
X153287009Y-111985548D01*
X153387989Y-111976641D01*
X153467855Y-111959198D01*
X153492955Y-111950461D01*
X153550268Y-111924657D01*
X153610717Y-111892253D01*
X153637117Y-111876033D01*
X153705766Y-111831005D01*
X153705766Y-110403782D01*
X153630252Y-110358518D01*
X153524941Y-110307372D01*
X153417345Y-110277124D01*
X153311401Y-110267595D01*
X153211044Y-110278607D01*
X153120207Y-110309981D01*
X153042827Y-110361540D01*
X153017859Y-110386288D01*
X152957676Y-110467377D01*
X152908965Y-110565534D01*
X152871319Y-110682443D01*
X152844332Y-110819785D01*
X152827595Y-110979244D01*
X152820703Y-111162500D01*
X152820470Y-111202052D01*
X151807355Y-111202052D01*
X151807893Y-111158867D01*
X151819467Y-110932853D01*
X151842740Y-110728992D01*
X151878324Y-110544313D01*
X151926833Y-110375848D01*
X151988880Y-110220626D01*
X152011021Y-110174608D01*
X152100205Y-110024539D01*
X152207979Y-109891177D01*
X152331810Y-109776677D01*
X152469162Y-109683189D01*
X152617503Y-109612868D01*
X152706424Y-109583860D01*
X152793753Y-109566640D01*
X152898831Y-109556394D01*
X153012849Y-109553118D01*
X153126997Y-109556809D01*
X153232468Y-109567460D01*
X153317154Y-109584170D01*
X153417948Y-109616940D01*
X153515642Y-109659079D01*
X153601116Y-109706319D01*
X153646609Y-109738381D01*
X153677989Y-109762222D01*
X153699962Y-109776739D01*
X153704961Y-109778800D01*
X153706510Y-109765518D01*
X153707955Y-109727463D01*
X153709263Y-109667319D01*
X153710403Y-109587773D01*
X153711341Y-109491511D01*
X153712046Y-109381219D01*
X153712487Y-109259581D01*
X153712631Y-109135685D01*
X153712550Y-108976996D01*
X153712155Y-108843208D01*
X153711215Y-108731760D01*
X153709500Y-108640095D01*
X153706777Y-108565653D01*
X153702817Y-108505875D01*
X153697389Y-108458202D01*
X153690261Y-108420074D01*
X153681204Y-108388934D01*
X153669987Y-108362221D01*
X153656378Y-108337377D01*
X153640148Y-108311843D01*
X153638060Y-108308681D01*
X153617126Y-108275610D01*
X153604487Y-108252869D01*
X153602793Y-108248072D01*
X153616036Y-108246559D01*
X153653822Y-108245328D01*
X153713236Y-108244399D01*
X153791362Y-108243792D01*
X153885285Y-108243527D01*
X153992090Y-108243625D01*
G36*
X144423741Y-107323290D02*
G01*
X144526847Y-107359038D01*
X144622842Y-107415307D01*
X144708573Y-107492088D01*
X144780890Y-107589373D01*
X144813375Y-107650692D01*
X144841488Y-107736460D01*
X144855115Y-107835477D01*
X144853606Y-107937271D01*
X144836851Y-108029514D01*
X144791057Y-108142232D01*
X144724652Y-108240007D01*
X144641011Y-108320915D01*
X144543508Y-108383032D01*
X144435520Y-108424434D01*
X144320421Y-108443197D01*
X144201586Y-108437398D01*
X144143009Y-108425006D01*
X144028848Y-108380597D01*
X143927455Y-108312833D01*
X143841275Y-108223801D01*
X143772754Y-108115591D01*
X143766956Y-108103773D01*
X143746916Y-108059428D01*
X143734333Y-108022080D01*
X143727501Y-107982680D01*
X143724715Y-107932181D01*
X143724252Y-107877233D01*
X143725017Y-107811215D01*
X143728468Y-107763489D01*
X143736343Y-107724903D01*
X143750377Y-107686306D01*
X143767700Y-107648226D01*
X143832315Y-107540128D01*
X143911886Y-107452603D01*
X144003260Y-107385641D01*
X144103284Y-107339236D01*
X144208808Y-107313381D01*
X144316678Y-107308068D01*
X144423741Y-107323290D01*
G37*
X144423741Y-107323290D02*
X144526847Y-107359038D01*
X144622842Y-107415307D01*
X144708573Y-107492088D01*
X144780890Y-107589373D01*
X144813375Y-107650692D01*
X144841488Y-107736460D01*
X144855115Y-107835477D01*
X144853606Y-107937271D01*
X144836851Y-108029514D01*
X144791057Y-108142232D01*
X144724652Y-108240007D01*
X144641011Y-108320915D01*
X144543508Y-108383032D01*
X144435520Y-108424434D01*
X144320421Y-108443197D01*
X144201586Y-108437398D01*
X144143009Y-108425006D01*
X144028848Y-108380597D01*
X143927455Y-108312833D01*
X143841275Y-108223801D01*
X143772754Y-108115591D01*
X143766956Y-108103773D01*
X143746916Y-108059428D01*
X143734333Y-108022080D01*
X143727501Y-107982680D01*
X143724715Y-107932181D01*
X143724252Y-107877233D01*
X143725017Y-107811215D01*
X143728468Y-107763489D01*
X143736343Y-107724903D01*
X143750377Y-107686306D01*
X143767700Y-107648226D01*
X143832315Y-107540128D01*
X143911886Y-107452603D01*
X144003260Y-107385641D01*
X144103284Y-107339236D01*
X144208808Y-107313381D01*
X144316678Y-107308068D01*
X144423741Y-107323290D01*
G36*
X153390351Y-113927525D02*
G01*
X153421730Y-113949768D01*
X153449439Y-113977477D01*
X153449439Y-114286912D01*
X153449366Y-114378791D01*
X153449023Y-114450832D01*
X153448220Y-114505772D01*
X153446769Y-114546352D01*
X153444480Y-114575309D01*
X153441164Y-114595383D01*
X153436633Y-114609313D01*
X153430697Y-114619837D01*
X153426042Y-114626092D01*
X153395311Y-114650665D01*
X153360024Y-114653333D01*
X153327773Y-114638263D01*
X153317116Y-114629366D01*
X153309992Y-114617549D01*
X153305695Y-114598518D01*
X153303519Y-114567984D01*
X153302756Y-114521654D01*
X153302683Y-114485863D01*
X153302683Y-114351037D01*
X152805972Y-114351037D01*
X152805972Y-114473692D01*
X152805459Y-114529779D01*
X152803404Y-114568325D01*
X152799036Y-114594353D01*
X152791584Y-114612889D01*
X152782575Y-114626092D01*
X152751672Y-114650596D01*
X152716724Y-114653498D01*
X152683266Y-114636081D01*
X152674132Y-114626951D01*
X152667680Y-114614847D01*
X152663425Y-114595993D01*
X152660880Y-114566612D01*
X152659557Y-114522929D01*
X152658971Y-114461167D01*
X152658903Y-114446992D01*
X152658419Y-114330623D01*
X152658169Y-114234719D01*
X152658251Y-114157169D01*
X152658759Y-114095861D01*
X152659790Y-114048682D01*
X152661441Y-114013522D01*
X152663807Y-113988268D01*
X152666985Y-113970809D01*
X152671072Y-113959033D01*
X152676162Y-113950827D01*
X152681794Y-113944637D01*
X152713656Y-113924836D01*
X152746885Y-113927525D01*
X152778263Y-113949768D01*
X152790961Y-113964118D01*
X152799054Y-113979970D01*
X152803570Y-114002546D01*
X152805534Y-114037070D01*
X152805972Y-114088768D01*
X152805972Y-114204281D01*
X153302683Y-114204281D01*
X153302683Y-114085748D01*
X153303190Y-114031140D01*
X153305226Y-113994267D01*
X153309563Y-113970299D01*
X153316975Y-113954407D01*
X153325261Y-113944637D01*
X153357122Y-113924836D01*
X153390351Y-113927525D01*
G37*
X153390351Y-113927525D02*
X153421730Y-113949768D01*
X153449439Y-113977477D01*
X153449439Y-114286912D01*
X153449366Y-114378791D01*
X153449023Y-114450832D01*
X153448220Y-114505772D01*
X153446769Y-114546352D01*
X153444480Y-114575309D01*
X153441164Y-114595383D01*
X153436633Y-114609313D01*
X153430697Y-114619837D01*
X153426042Y-114626092D01*
X153395311Y-114650665D01*
X153360024Y-114653333D01*
X153327773Y-114638263D01*
X153317116Y-114629366D01*
X153309992Y-114617549D01*
X153305695Y-114598518D01*
X153303519Y-114567984D01*
X153302756Y-114521654D01*
X153302683Y-114485863D01*
X153302683Y-114351037D01*
X152805972Y-114351037D01*
X152805972Y-114473692D01*
X152805459Y-114529779D01*
X152803404Y-114568325D01*
X152799036Y-114594353D01*
X152791584Y-114612889D01*
X152782575Y-114626092D01*
X152751672Y-114650596D01*
X152716724Y-114653498D01*
X152683266Y-114636081D01*
X152674132Y-114626951D01*
X152667680Y-114614847D01*
X152663425Y-114595993D01*
X152660880Y-114566612D01*
X152659557Y-114522929D01*
X152658971Y-114461167D01*
X152658903Y-114446992D01*
X152658419Y-114330623D01*
X152658169Y-114234719D01*
X152658251Y-114157169D01*
X152658759Y-114095861D01*
X152659790Y-114048682D01*
X152661441Y-114013522D01*
X152663807Y-113988268D01*
X152666985Y-113970809D01*
X152671072Y-113959033D01*
X152676162Y-113950827D01*
X152681794Y-113944637D01*
X152713656Y-113924836D01*
X152746885Y-113927525D01*
X152778263Y-113949768D01*
X152790961Y-113964118D01*
X152799054Y-113979970D01*
X152803570Y-114002546D01*
X152805534Y-114037070D01*
X152805972Y-114088768D01*
X152805972Y-114204281D01*
X153302683Y-114204281D01*
X153302683Y-114085748D01*
X153303190Y-114031140D01*
X153305226Y-113994267D01*
X153309563Y-113970299D01*
X153316975Y-113954407D01*
X153325261Y-113944637D01*
X153357122Y-113924836D01*
X153390351Y-113927525D01*
G36*
X152124593Y-113922155D02*
G01*
X152203300Y-113922534D01*
X152264391Y-113923325D01*
X152310345Y-113924662D01*
X152343642Y-113926675D01*
X152366764Y-113929498D01*
X152382190Y-113933261D01*
X152392399Y-113938097D01*
X152397341Y-113941814D01*
X152422985Y-113974350D01*
X152426087Y-114008130D01*
X152410239Y-114038818D01*
X152399876Y-114051081D01*
X152388724Y-114059442D01*
X152372563Y-114064649D01*
X152347170Y-114067449D01*
X152308326Y-114068588D01*
X152251808Y-114068813D01*
X152240708Y-114068814D01*
X152094772Y-114068814D01*
X152094772Y-114339748D01*
X152094676Y-114425146D01*
X152094239Y-114490856D01*
X152093240Y-114539766D01*
X152091456Y-114574765D01*
X152088665Y-114598741D01*
X152084645Y-114614585D01*
X152079173Y-114625183D01*
X152072194Y-114633259D01*
X152039262Y-114653104D01*
X152004882Y-114651540D01*
X151973704Y-114628898D01*
X151971414Y-114626092D01*
X151963957Y-114615484D01*
X151958275Y-114603073D01*
X151954129Y-114585842D01*
X151951278Y-114560776D01*
X151949482Y-114524859D01*
X151948500Y-114475075D01*
X151948092Y-114408409D01*
X151948017Y-114332581D01*
X151948017Y-114068814D01*
X151808655Y-114068814D01*
X151748850Y-114068410D01*
X151707446Y-114066832D01*
X151680276Y-114063539D01*
X151663174Y-114057984D01*
X151651971Y-114049623D01*
X151650611Y-114048170D01*
X151634253Y-114014931D01*
X151635700Y-113977354D01*
X151654506Y-113944637D01*
X151661778Y-113938290D01*
X151671155Y-113933258D01*
X151685137Y-113929388D01*
X151706224Y-113926529D01*
X151736917Y-113924527D01*
X151779717Y-113923231D01*
X151837123Y-113922490D01*
X151911638Y-113922150D01*
X152005761Y-113922060D01*
X152025788Y-113922059D01*
X152124593Y-113922155D01*
G37*
X152124593Y-113922155D02*
X152203300Y-113922534D01*
X152264391Y-113923325D01*
X152310345Y-113924662D01*
X152343642Y-113926675D01*
X152366764Y-113929498D01*
X152382190Y-113933261D01*
X152392399Y-113938097D01*
X152397341Y-113941814D01*
X152422985Y-113974350D01*
X152426087Y-114008130D01*
X152410239Y-114038818D01*
X152399876Y-114051081D01*
X152388724Y-114059442D01*
X152372563Y-114064649D01*
X152347170Y-114067449D01*
X152308326Y-114068588D01*
X152251808Y-114068813D01*
X152240708Y-114068814D01*
X152094772Y-114068814D01*
X152094772Y-114339748D01*
X152094676Y-114425146D01*
X152094239Y-114490856D01*
X152093240Y-114539766D01*
X152091456Y-114574765D01*
X152088665Y-114598741D01*
X152084645Y-114614585D01*
X152079173Y-114625183D01*
X152072194Y-114633259D01*
X152039262Y-114653104D01*
X152004882Y-114651540D01*
X151973704Y-114628898D01*
X151971414Y-114626092D01*
X151963957Y-114615484D01*
X151958275Y-114603073D01*
X151954129Y-114585842D01*
X151951278Y-114560776D01*
X151949482Y-114524859D01*
X151948500Y-114475075D01*
X151948092Y-114408409D01*
X151948017Y-114332581D01*
X151948017Y-114068814D01*
X151808655Y-114068814D01*
X151748850Y-114068410D01*
X151707446Y-114066832D01*
X151680276Y-114063539D01*
X151663174Y-114057984D01*
X151651971Y-114049623D01*
X151650611Y-114048170D01*
X151634253Y-114014931D01*
X151635700Y-113977354D01*
X151654506Y-113944637D01*
X151661778Y-113938290D01*
X151671155Y-113933258D01*
X151685137Y-113929388D01*
X151706224Y-113926529D01*
X151736917Y-113924527D01*
X151779717Y-113923231D01*
X151837123Y-113922490D01*
X151911638Y-113922150D01*
X152005761Y-113922060D01*
X152025788Y-113922059D01*
X152124593Y-113922155D01*
G36*
X151350142Y-113928869D02*
G01*
X151373855Y-113943639D01*
X151400506Y-113965219D01*
X151400506Y-114286765D01*
X151400421Y-114380822D01*
X151400057Y-114454924D01*
X151399252Y-114511696D01*
X151397841Y-114553760D01*
X151395661Y-114583740D01*
X151392549Y-114604259D01*
X151388342Y-114617941D01*
X151382876Y-114627408D01*
X151379000Y-114632074D01*
X151347562Y-114652567D01*
X151311761Y-114651731D01*
X151280401Y-114634256D01*
X151253750Y-114612676D01*
X151253750Y-113965219D01*
X151280401Y-113943639D01*
X151306122Y-113927941D01*
X151327128Y-113922059D01*
X151350142Y-113928869D01*
G37*
X151350142Y-113928869D02*
X151373855Y-113943639D01*
X151400506Y-113965219D01*
X151400506Y-114286765D01*
X151400421Y-114380822D01*
X151400057Y-114454924D01*
X151399252Y-114511696D01*
X151397841Y-114553760D01*
X151395661Y-114583740D01*
X151392549Y-114604259D01*
X151388342Y-114617941D01*
X151382876Y-114627408D01*
X151379000Y-114632074D01*
X151347562Y-114652567D01*
X151311761Y-114651731D01*
X151280401Y-114634256D01*
X151253750Y-114612676D01*
X151253750Y-113965219D01*
X151280401Y-113943639D01*
X151306122Y-113927941D01*
X151327128Y-113922059D01*
X151350142Y-113928869D01*
G36*
X150906193Y-113924026D02*
G01*
X150925783Y-113931027D01*
X150926538Y-113931369D01*
X150953141Y-113951670D01*
X150967798Y-113972553D01*
X150970666Y-113982344D01*
X150970524Y-113995353D01*
X150966489Y-114013887D01*
X150957674Y-114040249D01*
X150943197Y-114076744D01*
X150922173Y-114125679D01*
X150893716Y-114189357D01*
X150856943Y-114270085D01*
X150836703Y-114314208D01*
X150800153Y-114392977D01*
X150765843Y-114465415D01*
X150735080Y-114528872D01*
X150709176Y-114580700D01*
X150689438Y-114618251D01*
X150677178Y-114638876D01*
X150674752Y-114641725D01*
X150643711Y-114654294D01*
X150608649Y-114652611D01*
X150580528Y-114637324D01*
X150579382Y-114636081D01*
X150568196Y-114619146D01*
X150549432Y-114586162D01*
X150525403Y-114541372D01*
X150498425Y-114489024D01*
X150488729Y-114469734D01*
X150415542Y-114323142D01*
X150335768Y-114482385D01*
X150307295Y-114537407D01*
X150280878Y-114585124D01*
X150258676Y-114621885D01*
X150242847Y-114644036D01*
X150237482Y-114648733D01*
X150195785Y-114655094D01*
X150161377Y-114641725D01*
X150151256Y-114627438D01*
X150133742Y-114595684D01*
X150110263Y-114549589D01*
X150082248Y-114492277D01*
X150051127Y-114426872D01*
X150018327Y-114356499D01*
X149985278Y-114284283D01*
X149953409Y-114213347D01*
X149924147Y-114146817D01*
X149898923Y-114087818D01*
X149879164Y-114039473D01*
X149866300Y-114004907D01*
X149861759Y-113987245D01*
X149861805Y-113986605D01*
X149872854Y-113964380D01*
X149894938Y-113941745D01*
X149896238Y-113940760D01*
X149923381Y-113925417D01*
X149948486Y-113925566D01*
X149957896Y-113928458D01*
X149969362Y-113934710D01*
X149981538Y-113947006D01*
X149995885Y-113967900D01*
X150013864Y-113999941D01*
X150036935Y-114045680D01*
X150066558Y-114107669D01*
X150093273Y-114164890D01*
X150124008Y-114231218D01*
X150151549Y-114290866D01*
X150174466Y-114340717D01*
X150191326Y-114377656D01*
X150200701Y-114398565D01*
X150202068Y-114401837D01*
X150208217Y-114396489D01*
X150222350Y-114374101D01*
X150242585Y-114337938D01*
X150267043Y-114291269D01*
X150276776Y-114272014D01*
X150309745Y-114206996D01*
X150335171Y-114159646D01*
X150355140Y-114127211D01*
X150371738Y-114106938D01*
X150387052Y-114096074D01*
X150403168Y-114091867D01*
X150413671Y-114091392D01*
X150432198Y-114093034D01*
X150448432Y-114099823D01*
X150464563Y-114114558D01*
X150482779Y-114140036D01*
X150505267Y-114179053D01*
X150534217Y-114234406D01*
X150550190Y-114265895D01*
X150576098Y-114316079D01*
X150598695Y-114357696D01*
X150615986Y-114387234D01*
X150625978Y-114401181D01*
X150627337Y-114401762D01*
X150633789Y-114390785D01*
X150648236Y-114362282D01*
X150669231Y-114319236D01*
X150695325Y-114264630D01*
X150725074Y-114201446D01*
X150739708Y-114170063D01*
X150777778Y-114089070D01*
X150808433Y-114026748D01*
X150833265Y-113981063D01*
X150853865Y-113949981D01*
X150871826Y-113931470D01*
X150888738Y-113923496D01*
X150906193Y-113924026D01*
G37*
X150906193Y-113924026D02*
X150925783Y-113931027D01*
X150926538Y-113931369D01*
X150953141Y-113951670D01*
X150967798Y-113972553D01*
X150970666Y-113982344D01*
X150970524Y-113995353D01*
X150966489Y-114013887D01*
X150957674Y-114040249D01*
X150943197Y-114076744D01*
X150922173Y-114125679D01*
X150893716Y-114189357D01*
X150856943Y-114270085D01*
X150836703Y-114314208D01*
X150800153Y-114392977D01*
X150765843Y-114465415D01*
X150735080Y-114528872D01*
X150709176Y-114580700D01*
X150689438Y-114618251D01*
X150677178Y-114638876D01*
X150674752Y-114641725D01*
X150643711Y-114654294D01*
X150608649Y-114652611D01*
X150580528Y-114637324D01*
X150579382Y-114636081D01*
X150568196Y-114619146D01*
X150549432Y-114586162D01*
X150525403Y-114541372D01*
X150498425Y-114489024D01*
X150488729Y-114469734D01*
X150415542Y-114323142D01*
X150335768Y-114482385D01*
X150307295Y-114537407D01*
X150280878Y-114585124D01*
X150258676Y-114621885D01*
X150242847Y-114644036D01*
X150237482Y-114648733D01*
X150195785Y-114655094D01*
X150161377Y-114641725D01*
X150151256Y-114627438D01*
X150133742Y-114595684D01*
X150110263Y-114549589D01*
X150082248Y-114492277D01*
X150051127Y-114426872D01*
X150018327Y-114356499D01*
X149985278Y-114284283D01*
X149953409Y-114213347D01*
X149924147Y-114146817D01*
X149898923Y-114087818D01*
X149879164Y-114039473D01*
X149866300Y-114004907D01*
X149861759Y-113987245D01*
X149861805Y-113986605D01*
X149872854Y-113964380D01*
X149894938Y-113941745D01*
X149896238Y-113940760D01*
X149923381Y-113925417D01*
X149948486Y-113925566D01*
X149957896Y-113928458D01*
X149969362Y-113934710D01*
X149981538Y-113947006D01*
X149995885Y-113967900D01*
X150013864Y-113999941D01*
X150036935Y-114045680D01*
X150066558Y-114107669D01*
X150093273Y-114164890D01*
X150124008Y-114231218D01*
X150151549Y-114290866D01*
X150174466Y-114340717D01*
X150191326Y-114377656D01*
X150200701Y-114398565D01*
X150202068Y-114401837D01*
X150208217Y-114396489D01*
X150222350Y-114374101D01*
X150242585Y-114337938D01*
X150267043Y-114291269D01*
X150276776Y-114272014D01*
X150309745Y-114206996D01*
X150335171Y-114159646D01*
X150355140Y-114127211D01*
X150371738Y-114106938D01*
X150387052Y-114096074D01*
X150403168Y-114091867D01*
X150413671Y-114091392D01*
X150432198Y-114093034D01*
X150448432Y-114099823D01*
X150464563Y-114114558D01*
X150482779Y-114140036D01*
X150505267Y-114179053D01*
X150534217Y-114234406D01*
X150550190Y-114265895D01*
X150576098Y-114316079D01*
X150598695Y-114357696D01*
X150615986Y-114387234D01*
X150625978Y-114401181D01*
X150627337Y-114401762D01*
X150633789Y-114390785D01*
X150648236Y-114362282D01*
X150669231Y-114319236D01*
X150695325Y-114264630D01*
X150725074Y-114201446D01*
X150739708Y-114170063D01*
X150777778Y-114089070D01*
X150808433Y-114026748D01*
X150833265Y-113981063D01*
X150853865Y-113949981D01*
X150871826Y-113931470D01*
X150888738Y-113923496D01*
X150906193Y-113924026D01*
G36*
X148179837Y-113922267D02*
G01*
X148308816Y-113926628D01*
X148418519Y-113939853D01*
X148510754Y-113962733D01*
X148587330Y-113996062D01*
X148650055Y-114040630D01*
X148700740Y-114097228D01*
X148741191Y-114166650D01*
X148741987Y-114168343D01*
X148766129Y-114230475D01*
X148774731Y-114285501D01*
X148767759Y-114340879D01*
X148745182Y-114404065D01*
X148740900Y-114413681D01*
X148711700Y-114469958D01*
X148678884Y-114513443D01*
X148636530Y-114550409D01*
X148578718Y-114587127D01*
X148575359Y-114589044D01*
X148525032Y-114613219D01*
X148468149Y-114631274D01*
X148401055Y-114643831D01*
X148320093Y-114651514D01*
X148221610Y-114654945D01*
X148186814Y-114655243D01*
X148021122Y-114655837D01*
X147997725Y-114626092D01*
X147990785Y-114616311D01*
X147985370Y-114604889D01*
X147981293Y-114589087D01*
X147978365Y-114566167D01*
X147976395Y-114533388D01*
X147975753Y-114509081D01*
X148132372Y-114509081D01*
X148226254Y-114509081D01*
X148281192Y-114507475D01*
X148337588Y-114503247D01*
X148383873Y-114497284D01*
X148386667Y-114496782D01*
X148468876Y-114474728D01*
X148532642Y-114441592D01*
X148579980Y-114395839D01*
X148612910Y-114335931D01*
X148618636Y-114320053D01*
X148624249Y-114295325D01*
X148621819Y-114270894D01*
X148609995Y-114238392D01*
X148602868Y-114222426D01*
X148579528Y-114179998D01*
X148551408Y-114150232D01*
X148520468Y-114129503D01*
X148458494Y-114102529D01*
X148379179Y-114082990D01*
X148286781Y-114071738D01*
X148219861Y-114069262D01*
X148132372Y-114068814D01*
X148132372Y-114509081D01*
X147975753Y-114509081D01*
X147975196Y-114488013D01*
X147974578Y-114427303D01*
X147974353Y-114348518D01*
X147974328Y-114286912D01*
X147974328Y-113977477D01*
X148002037Y-113949768D01*
X148014334Y-113938536D01*
X148027631Y-113930845D01*
X148046200Y-113926032D01*
X148074314Y-113923438D01*
X148116245Y-113922402D01*
X148176265Y-113922262D01*
X148179837Y-113922267D01*
G37*
X148179837Y-113922267D02*
X148308816Y-113926628D01*
X148418519Y-113939853D01*
X148510754Y-113962733D01*
X148587330Y-113996062D01*
X148650055Y-114040630D01*
X148700740Y-114097228D01*
X148741191Y-114166650D01*
X148741987Y-114168343D01*
X148766129Y-114230475D01*
X148774731Y-114285501D01*
X148767759Y-114340879D01*
X148745182Y-114404065D01*
X148740900Y-114413681D01*
X148711700Y-114469958D01*
X148678884Y-114513443D01*
X148636530Y-114550409D01*
X148578718Y-114587127D01*
X148575359Y-114589044D01*
X148525032Y-114613219D01*
X148468149Y-114631274D01*
X148401055Y-114643831D01*
X148320093Y-114651514D01*
X148221610Y-114654945D01*
X148186814Y-114655243D01*
X148021122Y-114655837D01*
X147997725Y-114626092D01*
X147990785Y-114616311D01*
X147985370Y-114604889D01*
X147981293Y-114589087D01*
X147978365Y-114566167D01*
X147976395Y-114533388D01*
X147975753Y-114509081D01*
X148132372Y-114509081D01*
X148226254Y-114509081D01*
X148281192Y-114507475D01*
X148337588Y-114503247D01*
X148383873Y-114497284D01*
X148386667Y-114496782D01*
X148468876Y-114474728D01*
X148532642Y-114441592D01*
X148579980Y-114395839D01*
X148612910Y-114335931D01*
X148618636Y-114320053D01*
X148624249Y-114295325D01*
X148621819Y-114270894D01*
X148609995Y-114238392D01*
X148602868Y-114222426D01*
X148579528Y-114179998D01*
X148551408Y-114150232D01*
X148520468Y-114129503D01*
X148458494Y-114102529D01*
X148379179Y-114082990D01*
X148286781Y-114071738D01*
X148219861Y-114069262D01*
X148132372Y-114068814D01*
X148132372Y-114509081D01*
X147975753Y-114509081D01*
X147975196Y-114488013D01*
X147974578Y-114427303D01*
X147974353Y-114348518D01*
X147974328Y-114286912D01*
X147974328Y-113977477D01*
X148002037Y-113949768D01*
X148014334Y-113938536D01*
X148027631Y-113930845D01*
X148046200Y-113926032D01*
X148074314Y-113923438D01*
X148116245Y-113922402D01*
X148176265Y-113922262D01*
X148179837Y-113922267D01*
G36*
X147391871Y-113922252D02*
G01*
X147468229Y-113923166D01*
X147526745Y-113925303D01*
X147569783Y-113929167D01*
X147599711Y-113935259D01*
X147618896Y-113944082D01*
X147629704Y-113956138D01*
X147634501Y-113971931D01*
X147635655Y-113991962D01*
X147635661Y-113994327D01*
X147634659Y-114016984D01*
X147629924Y-114034495D01*
X147618861Y-114047566D01*
X147598876Y-114056905D01*
X147567374Y-114063219D01*
X147521760Y-114067214D01*
X147459441Y-114069598D01*
X147377821Y-114071078D01*
X147352805Y-114071406D01*
X147110728Y-114074459D01*
X147107342Y-114139370D01*
X147103957Y-114204281D01*
X147272104Y-114204281D01*
X147337794Y-114204523D01*
X147384700Y-114205548D01*
X147416611Y-114207803D01*
X147437319Y-114211734D01*
X147450612Y-114217790D01*
X147460283Y-114226416D01*
X147460345Y-114226485D01*
X147477884Y-114260104D01*
X147477250Y-114296440D01*
X147458842Y-114327415D01*
X147455199Y-114330599D01*
X147442269Y-114338804D01*
X147424552Y-114344513D01*
X147398098Y-114348154D01*
X147358960Y-114350159D01*
X147303190Y-114350956D01*
X147267522Y-114351037D01*
X147105083Y-114351037D01*
X147105083Y-114509081D01*
X147351689Y-114509081D01*
X147433108Y-114509223D01*
X147494938Y-114509806D01*
X147540165Y-114511060D01*
X147571776Y-114513219D01*
X147592759Y-114516515D01*
X147606101Y-114521181D01*
X147614789Y-114527449D01*
X147616978Y-114529725D01*
X147633142Y-114561272D01*
X147634325Y-114597160D01*
X147621064Y-114628277D01*
X147610571Y-114638263D01*
X147599657Y-114643761D01*
X147582745Y-114648014D01*
X147557161Y-114651172D01*
X147520229Y-114653384D01*
X147469274Y-114654798D01*
X147401622Y-114655564D01*
X147314597Y-114655830D01*
X147294922Y-114655837D01*
X147206439Y-114655779D01*
X147137755Y-114655459D01*
X147086092Y-114654659D01*
X147048673Y-114653159D01*
X147022718Y-114650741D01*
X147005450Y-114647186D01*
X146994090Y-114642274D01*
X146985860Y-114635787D01*
X146981345Y-114631130D01*
X146974549Y-114622881D01*
X146969240Y-114612661D01*
X146965234Y-114597792D01*
X146962349Y-114575594D01*
X146960402Y-114543385D01*
X146959209Y-114498488D01*
X146958589Y-114438220D01*
X146958357Y-114359903D01*
X146958328Y-114293986D01*
X146958399Y-114201620D01*
X146958736Y-114129109D01*
X146959526Y-114073729D01*
X146960954Y-114032757D01*
X146963207Y-114003470D01*
X146966471Y-113983145D01*
X146970932Y-113969058D01*
X146976776Y-113958487D01*
X146981725Y-113951803D01*
X147005122Y-113922059D01*
X147295302Y-113922059D01*
X147391871Y-113922252D01*
G37*
X147391871Y-113922252D02*
X147468229Y-113923166D01*
X147526745Y-113925303D01*
X147569783Y-113929167D01*
X147599711Y-113935259D01*
X147618896Y-113944082D01*
X147629704Y-113956138D01*
X147634501Y-113971931D01*
X147635655Y-113991962D01*
X147635661Y-113994327D01*
X147634659Y-114016984D01*
X147629924Y-114034495D01*
X147618861Y-114047566D01*
X147598876Y-114056905D01*
X147567374Y-114063219D01*
X147521760Y-114067214D01*
X147459441Y-114069598D01*
X147377821Y-114071078D01*
X147352805Y-114071406D01*
X147110728Y-114074459D01*
X147107342Y-114139370D01*
X147103957Y-114204281D01*
X147272104Y-114204281D01*
X147337794Y-114204523D01*
X147384700Y-114205548D01*
X147416611Y-114207803D01*
X147437319Y-114211734D01*
X147450612Y-114217790D01*
X147460283Y-114226416D01*
X147460345Y-114226485D01*
X147477884Y-114260104D01*
X147477250Y-114296440D01*
X147458842Y-114327415D01*
X147455199Y-114330599D01*
X147442269Y-114338804D01*
X147424552Y-114344513D01*
X147398098Y-114348154D01*
X147358960Y-114350159D01*
X147303190Y-114350956D01*
X147267522Y-114351037D01*
X147105083Y-114351037D01*
X147105083Y-114509081D01*
X147351689Y-114509081D01*
X147433108Y-114509223D01*
X147494938Y-114509806D01*
X147540165Y-114511060D01*
X147571776Y-114513219D01*
X147592759Y-114516515D01*
X147606101Y-114521181D01*
X147614789Y-114527449D01*
X147616978Y-114529725D01*
X147633142Y-114561272D01*
X147634325Y-114597160D01*
X147621064Y-114628277D01*
X147610571Y-114638263D01*
X147599657Y-114643761D01*
X147582745Y-114648014D01*
X147557161Y-114651172D01*
X147520229Y-114653384D01*
X147469274Y-114654798D01*
X147401622Y-114655564D01*
X147314597Y-114655830D01*
X147294922Y-114655837D01*
X147206439Y-114655779D01*
X147137755Y-114655459D01*
X147086092Y-114654659D01*
X147048673Y-114653159D01*
X147022718Y-114650741D01*
X147005450Y-114647186D01*
X146994090Y-114642274D01*
X146985860Y-114635787D01*
X146981345Y-114631130D01*
X146974549Y-114622881D01*
X146969240Y-114612661D01*
X146965234Y-114597792D01*
X146962349Y-114575594D01*
X146960402Y-114543385D01*
X146959209Y-114498488D01*
X146958589Y-114438220D01*
X146958357Y-114359903D01*
X146958328Y-114293986D01*
X146958399Y-114201620D01*
X146958736Y-114129109D01*
X146959526Y-114073729D01*
X146960954Y-114032757D01*
X146963207Y-114003470D01*
X146966471Y-113983145D01*
X146970932Y-113969058D01*
X146976776Y-113958487D01*
X146981725Y-113951803D01*
X147005122Y-113922059D01*
X147295302Y-113922059D01*
X147391871Y-113922252D01*
G36*
X145861414Y-113926440D02*
G01*
X145884980Y-113940265D01*
X145915793Y-113962873D01*
X145955450Y-113995330D01*
X146005548Y-114038700D01*
X146067685Y-114094050D01*
X146143456Y-114162443D01*
X146230194Y-114241076D01*
X146410817Y-114404870D01*
X146416461Y-114185021D01*
X146418499Y-114109343D01*
X146420465Y-114052986D01*
X146422794Y-114012698D01*
X146425922Y-113985227D01*
X146430283Y-113967321D01*
X146436312Y-113955729D01*
X146444444Y-113947200D01*
X146448756Y-113943615D01*
X146483287Y-113924662D01*
X146516145Y-113927433D01*
X146542210Y-113943625D01*
X146568861Y-113965191D01*
X146572176Y-114280143D01*
X146573093Y-114372771D01*
X146573560Y-114445536D01*
X146573415Y-114501153D01*
X146572496Y-114542334D01*
X146570641Y-114571795D01*
X146567689Y-114592247D01*
X146563478Y-114606405D01*
X146557846Y-114616983D01*
X146551601Y-114625466D01*
X146538089Y-114641199D01*
X146524645Y-114651628D01*
X146509404Y-114655631D01*
X146490502Y-114652086D01*
X146466073Y-114639871D01*
X146434255Y-114617863D01*
X146393180Y-114584941D01*
X146340986Y-114539983D01*
X146275806Y-114481867D01*
X146201972Y-114415091D01*
X145936683Y-114174450D01*
X145931039Y-114393581D01*
X145928997Y-114469120D01*
X145927026Y-114525346D01*
X145924689Y-114565516D01*
X145921547Y-114592888D01*
X145917164Y-114610720D01*
X145911104Y-114622271D01*
X145902928Y-114630799D01*
X145898744Y-114634274D01*
X145861763Y-114653364D01*
X145826820Y-114650485D01*
X145796392Y-114626092D01*
X145789431Y-114616278D01*
X145784005Y-114604818D01*
X145779925Y-114588960D01*
X145776999Y-114565955D01*
X145775036Y-114533054D01*
X145773845Y-114487508D01*
X145773236Y-114426565D01*
X145773017Y-114347478D01*
X145772994Y-114288948D01*
X145773068Y-114197399D01*
X145773415Y-114125679D01*
X145774227Y-114071037D01*
X145775695Y-114030724D01*
X145778009Y-114001990D01*
X145781361Y-113982085D01*
X145785940Y-113968260D01*
X145791939Y-113957764D01*
X145796392Y-113951803D01*
X145807678Y-113937683D01*
X145818227Y-113927021D01*
X145829635Y-113920884D01*
X145843498Y-113920335D01*
X145861414Y-113926440D01*
G37*
X145861414Y-113926440D02*
X145884980Y-113940265D01*
X145915793Y-113962873D01*
X145955450Y-113995330D01*
X146005548Y-114038700D01*
X146067685Y-114094050D01*
X146143456Y-114162443D01*
X146230194Y-114241076D01*
X146410817Y-114404870D01*
X146416461Y-114185021D01*
X146418499Y-114109343D01*
X146420465Y-114052986D01*
X146422794Y-114012698D01*
X146425922Y-113985227D01*
X146430283Y-113967321D01*
X146436312Y-113955729D01*
X146444444Y-113947200D01*
X146448756Y-113943615D01*
X146483287Y-113924662D01*
X146516145Y-113927433D01*
X146542210Y-113943625D01*
X146568861Y-113965191D01*
X146572176Y-114280143D01*
X146573093Y-114372771D01*
X146573560Y-114445536D01*
X146573415Y-114501153D01*
X146572496Y-114542334D01*
X146570641Y-114571795D01*
X146567689Y-114592247D01*
X146563478Y-114606405D01*
X146557846Y-114616983D01*
X146551601Y-114625466D01*
X146538089Y-114641199D01*
X146524645Y-114651628D01*
X146509404Y-114655631D01*
X146490502Y-114652086D01*
X146466073Y-114639871D01*
X146434255Y-114617863D01*
X146393180Y-114584941D01*
X146340986Y-114539983D01*
X146275806Y-114481867D01*
X146201972Y-114415091D01*
X145936683Y-114174450D01*
X145931039Y-114393581D01*
X145928997Y-114469120D01*
X145927026Y-114525346D01*
X145924689Y-114565516D01*
X145921547Y-114592888D01*
X145917164Y-114610720D01*
X145911104Y-114622271D01*
X145902928Y-114630799D01*
X145898744Y-114634274D01*
X145861763Y-114653364D01*
X145826820Y-114650485D01*
X145796392Y-114626092D01*
X145789431Y-114616278D01*
X145784005Y-114604818D01*
X145779925Y-114588960D01*
X145776999Y-114565955D01*
X145775036Y-114533054D01*
X145773845Y-114487508D01*
X145773236Y-114426565D01*
X145773017Y-114347478D01*
X145772994Y-114288948D01*
X145773068Y-114197399D01*
X145773415Y-114125679D01*
X145774227Y-114071037D01*
X145775695Y-114030724D01*
X145778009Y-114001990D01*
X145781361Y-113982085D01*
X145785940Y-113968260D01*
X145791939Y-113957764D01*
X145796392Y-113951803D01*
X145807678Y-113937683D01*
X145818227Y-113927021D01*
X145829635Y-113920884D01*
X145843498Y-113920335D01*
X145861414Y-113926440D01*
G36*
X145211447Y-113927591D02*
G01*
X145279963Y-113939087D01*
X145332585Y-113956959D01*
X145366820Y-113980491D01*
X145376149Y-113993916D01*
X145385635Y-114025140D01*
X145379251Y-114053387D01*
X145359098Y-114080174D01*
X145327783Y-114092705D01*
X145282345Y-114091688D01*
X145247202Y-114084898D01*
X145169109Y-114071963D01*
X145089302Y-114070734D01*
X144999973Y-114081233D01*
X144975299Y-114085682D01*
X144892237Y-114109100D01*
X144827255Y-114143937D01*
X144781067Y-114189596D01*
X144754383Y-114245486D01*
X144748865Y-114274380D01*
X144752477Y-114333004D01*
X144775799Y-114384871D01*
X144816704Y-114428970D01*
X144873069Y-114464291D01*
X144942768Y-114489821D01*
X145023676Y-114504551D01*
X145113668Y-114507470D01*
X145210618Y-114497567D01*
X145216092Y-114496633D01*
X145254653Y-114489451D01*
X145276034Y-114482513D01*
X145285301Y-114472219D01*
X145287522Y-114454968D01*
X145287572Y-114445833D01*
X145287572Y-114407481D01*
X145219097Y-114407481D01*
X145158628Y-114403339D01*
X145117363Y-114390139D01*
X145093353Y-114366722D01*
X145084651Y-114331928D01*
X145084545Y-114327386D01*
X145089636Y-114297646D01*
X145107095Y-114276411D01*
X145139589Y-114262358D01*
X145189785Y-114254165D01*
X145238405Y-114251153D01*
X145309072Y-114249425D01*
X145360330Y-114252062D01*
X145395289Y-114261792D01*
X145417058Y-114281345D01*
X145428748Y-114313448D01*
X145433468Y-114360830D01*
X145434328Y-114423063D01*
X145432919Y-114492527D01*
X145428680Y-114539778D01*
X145421592Y-114565004D01*
X145420217Y-114566980D01*
X145381300Y-114598500D01*
X145324242Y-114623462D01*
X145252659Y-114641332D01*
X145170170Y-114651578D01*
X145080389Y-114653665D01*
X144986936Y-114647060D01*
X144931972Y-114638948D01*
X144845762Y-114614546D01*
X144765636Y-114574654D01*
X144698551Y-114522879D01*
X144688355Y-114512531D01*
X144655226Y-114469027D01*
X144625334Y-114415110D01*
X144602171Y-114358584D01*
X144589230Y-114307251D01*
X144587670Y-114287536D01*
X144594310Y-114246411D01*
X144611960Y-114195244D01*
X144637231Y-114141386D01*
X144666739Y-114092187D01*
X144692809Y-114059326D01*
X144753763Y-114010444D01*
X144832559Y-113971537D01*
X144926371Y-113943486D01*
X145032378Y-113927171D01*
X145129528Y-113923184D01*
X145211447Y-113927591D01*
G37*
X145211447Y-113927591D02*
X145279963Y-113939087D01*
X145332585Y-113956959D01*
X145366820Y-113980491D01*
X145376149Y-113993916D01*
X145385635Y-114025140D01*
X145379251Y-114053387D01*
X145359098Y-114080174D01*
X145327783Y-114092705D01*
X145282345Y-114091688D01*
X145247202Y-114084898D01*
X145169109Y-114071963D01*
X145089302Y-114070734D01*
X144999973Y-114081233D01*
X144975299Y-114085682D01*
X144892237Y-114109100D01*
X144827255Y-114143937D01*
X144781067Y-114189596D01*
X144754383Y-114245486D01*
X144748865Y-114274380D01*
X144752477Y-114333004D01*
X144775799Y-114384871D01*
X144816704Y-114428970D01*
X144873069Y-114464291D01*
X144942768Y-114489821D01*
X145023676Y-114504551D01*
X145113668Y-114507470D01*
X145210618Y-114497567D01*
X145216092Y-114496633D01*
X145254653Y-114489451D01*
X145276034Y-114482513D01*
X145285301Y-114472219D01*
X145287522Y-114454968D01*
X145287572Y-114445833D01*
X145287572Y-114407481D01*
X145219097Y-114407481D01*
X145158628Y-114403339D01*
X145117363Y-114390139D01*
X145093353Y-114366722D01*
X145084651Y-114331928D01*
X145084545Y-114327386D01*
X145089636Y-114297646D01*
X145107095Y-114276411D01*
X145139589Y-114262358D01*
X145189785Y-114254165D01*
X145238405Y-114251153D01*
X145309072Y-114249425D01*
X145360330Y-114252062D01*
X145395289Y-114261792D01*
X145417058Y-114281345D01*
X145428748Y-114313448D01*
X145433468Y-114360830D01*
X145434328Y-114423063D01*
X145432919Y-114492527D01*
X145428680Y-114539778D01*
X145421592Y-114565004D01*
X145420217Y-114566980D01*
X145381300Y-114598500D01*
X145324242Y-114623462D01*
X145252659Y-114641332D01*
X145170170Y-114651578D01*
X145080389Y-114653665D01*
X144986936Y-114647060D01*
X144931972Y-114638948D01*
X144845762Y-114614546D01*
X144765636Y-114574654D01*
X144698551Y-114522879D01*
X144688355Y-114512531D01*
X144655226Y-114469027D01*
X144625334Y-114415110D01*
X144602171Y-114358584D01*
X144589230Y-114307251D01*
X144587670Y-114287536D01*
X144594310Y-114246411D01*
X144611960Y-114195244D01*
X144637231Y-114141386D01*
X144666739Y-114092187D01*
X144692809Y-114059326D01*
X144753763Y-114010444D01*
X144832559Y-113971537D01*
X144926371Y-113943486D01*
X145032378Y-113927171D01*
X145129528Y-113923184D01*
X145211447Y-113927591D01*
G36*
X144237706Y-113944637D02*
G01*
X144244286Y-113952210D01*
X144249449Y-113961979D01*
X144253364Y-113976563D01*
X144256204Y-113998577D01*
X144258141Y-114030640D01*
X144259345Y-114075367D01*
X144259989Y-114135377D01*
X144260244Y-114213286D01*
X144260283Y-114288948D01*
X144260214Y-114382794D01*
X144259890Y-114456681D01*
X144259142Y-114513224D01*
X144257796Y-114555041D01*
X144255682Y-114584749D01*
X144252628Y-114604965D01*
X144248462Y-114618306D01*
X144243012Y-114627390D01*
X144237706Y-114633259D01*
X144204702Y-114652939D01*
X144169537Y-114651173D01*
X144138073Y-114629709D01*
X144130844Y-114621329D01*
X144125194Y-114611606D01*
X144120929Y-114597853D01*
X144117855Y-114577381D01*
X144115776Y-114547504D01*
X144114498Y-114505533D01*
X144113827Y-114448781D01*
X144113569Y-114374559D01*
X144113528Y-114290529D01*
X144113528Y-113977477D01*
X144141237Y-113949768D01*
X144175391Y-113926455D01*
X144208522Y-113925615D01*
X144237706Y-113944637D01*
G37*
X144237706Y-113944637D02*
X144244286Y-113952210D01*
X144249449Y-113961979D01*
X144253364Y-113976563D01*
X144256204Y-113998577D01*
X144258141Y-114030640D01*
X144259345Y-114075367D01*
X144259989Y-114135377D01*
X144260244Y-114213286D01*
X144260283Y-114288948D01*
X144260214Y-114382794D01*
X144259890Y-114456681D01*
X144259142Y-114513224D01*
X144257796Y-114555041D01*
X144255682Y-114584749D01*
X144252628Y-114604965D01*
X144248462Y-114618306D01*
X144243012Y-114627390D01*
X144237706Y-114633259D01*
X144204702Y-114652939D01*
X144169537Y-114651173D01*
X144138073Y-114629709D01*
X144130844Y-114621329D01*
X144125194Y-114611606D01*
X144120929Y-114597853D01*
X144117855Y-114577381D01*
X144115776Y-114547504D01*
X144114498Y-114505533D01*
X144113827Y-114448781D01*
X144113569Y-114374559D01*
X144113528Y-114290529D01*
X144113528Y-113977477D01*
X144141237Y-113949768D01*
X144175391Y-113926455D01*
X144208522Y-113925615D01*
X144237706Y-113944637D01*
G36*
X143469825Y-113923343D02*
G01*
X143544640Y-113928573D01*
X143614222Y-113936742D01*
X143674526Y-113947542D01*
X143721508Y-113960665D01*
X143751122Y-113975805D01*
X143755668Y-113980261D01*
X143771474Y-114014842D01*
X143766681Y-114050343D01*
X143742164Y-114080717D01*
X143740994Y-114081588D01*
X143726574Y-114090946D01*
X143711520Y-114095868D01*
X143690523Y-114096465D01*
X143658271Y-114092853D01*
X143609455Y-114085146D01*
X143605528Y-114084497D01*
X143532789Y-114075561D01*
X143454311Y-114071153D01*
X143375601Y-114071111D01*
X143302167Y-114075271D01*
X143239517Y-114083471D01*
X143193158Y-114095549D01*
X143190112Y-114096763D01*
X143156480Y-114115607D01*
X143144664Y-114134677D01*
X143153914Y-114153431D01*
X143183481Y-114171329D01*
X143232617Y-114187829D01*
X143300571Y-114202388D01*
X143345883Y-114209398D01*
X143440072Y-114222881D01*
X143514984Y-114235206D01*
X143573811Y-114247441D01*
X143619743Y-114260653D01*
X143655973Y-114275909D01*
X143685690Y-114294277D01*
X143712086Y-114316823D01*
X143733298Y-114338963D01*
X143758463Y-114369811D01*
X143770847Y-114396337D01*
X143774720Y-114429018D01*
X143774861Y-114440987D01*
X143771952Y-114480704D01*
X143760326Y-114510251D01*
X143740205Y-114536478D01*
X143699312Y-114576568D01*
X143653711Y-114607141D01*
X143600015Y-114629195D01*
X143534836Y-114643727D01*
X143454784Y-114651733D01*
X143356471Y-114654210D01*
X143340239Y-114654169D01*
X143274679Y-114652810D01*
X143209662Y-114649722D01*
X143152276Y-114645348D01*
X143109606Y-114640132D01*
X143106156Y-114639533D01*
X143063732Y-114629483D01*
X143027748Y-114616788D01*
X143007378Y-114605182D01*
X142988421Y-114574564D01*
X142987101Y-114538910D01*
X143003443Y-114507136D01*
X143007099Y-114503543D01*
X143022213Y-114492868D01*
X143041113Y-114488268D01*
X143070366Y-114489051D01*
X143105877Y-114493119D01*
X143145558Y-114496754D01*
X143201183Y-114499820D01*
X143266122Y-114502045D01*
X143333743Y-114503156D01*
X143351528Y-114503229D01*
X143419400Y-114502956D01*
X143469074Y-114501638D01*
X143504918Y-114498819D01*
X143531304Y-114494042D01*
X143552602Y-114486849D01*
X143565402Y-114480859D01*
X143593528Y-114464225D01*
X143611460Y-114449160D01*
X143614081Y-114444889D01*
X143608552Y-114427255D01*
X143582268Y-114410184D01*
X143537050Y-114394450D01*
X143474720Y-114380830D01*
X143456357Y-114377796D01*
X143360438Y-114362730D01*
X143283887Y-114350138D01*
X143223748Y-114339103D01*
X143177068Y-114328712D01*
X143140891Y-114318048D01*
X143112263Y-114306197D01*
X143088230Y-114292243D01*
X143065836Y-114275273D01*
X143042126Y-114254370D01*
X143034148Y-114247041D01*
X143006175Y-114219691D01*
X142991368Y-114198021D01*
X142985576Y-114173224D01*
X142984639Y-114141975D01*
X142994953Y-114080697D01*
X143025776Y-114028632D01*
X143076933Y-113985950D01*
X143148245Y-113952817D01*
X143199128Y-113937956D01*
X143254428Y-113928358D01*
X143320675Y-113922928D01*
X143393822Y-113921359D01*
X143469825Y-113923343D01*
G37*
X143469825Y-113923343D02*
X143544640Y-113928573D01*
X143614222Y-113936742D01*
X143674526Y-113947542D01*
X143721508Y-113960665D01*
X143751122Y-113975805D01*
X143755668Y-113980261D01*
X143771474Y-114014842D01*
X143766681Y-114050343D01*
X143742164Y-114080717D01*
X143740994Y-114081588D01*
X143726574Y-114090946D01*
X143711520Y-114095868D01*
X143690523Y-114096465D01*
X143658271Y-114092853D01*
X143609455Y-114085146D01*
X143605528Y-114084497D01*
X143532789Y-114075561D01*
X143454311Y-114071153D01*
X143375601Y-114071111D01*
X143302167Y-114075271D01*
X143239517Y-114083471D01*
X143193158Y-114095549D01*
X143190112Y-114096763D01*
X143156480Y-114115607D01*
X143144664Y-114134677D01*
X143153914Y-114153431D01*
X143183481Y-114171329D01*
X143232617Y-114187829D01*
X143300571Y-114202388D01*
X143345883Y-114209398D01*
X143440072Y-114222881D01*
X143514984Y-114235206D01*
X143573811Y-114247441D01*
X143619743Y-114260653D01*
X143655973Y-114275909D01*
X143685690Y-114294277D01*
X143712086Y-114316823D01*
X143733298Y-114338963D01*
X143758463Y-114369811D01*
X143770847Y-114396337D01*
X143774720Y-114429018D01*
X143774861Y-114440987D01*
X143771952Y-114480704D01*
X143760326Y-114510251D01*
X143740205Y-114536478D01*
X143699312Y-114576568D01*
X143653711Y-114607141D01*
X143600015Y-114629195D01*
X143534836Y-114643727D01*
X143454784Y-114651733D01*
X143356471Y-114654210D01*
X143340239Y-114654169D01*
X143274679Y-114652810D01*
X143209662Y-114649722D01*
X143152276Y-114645348D01*
X143109606Y-114640132D01*
X143106156Y-114639533D01*
X143063732Y-114629483D01*
X143027748Y-114616788D01*
X143007378Y-114605182D01*
X142988421Y-114574564D01*
X142987101Y-114538910D01*
X143003443Y-114507136D01*
X143007099Y-114503543D01*
X143022213Y-114492868D01*
X143041113Y-114488268D01*
X143070366Y-114489051D01*
X143105877Y-114493119D01*
X143145558Y-114496754D01*
X143201183Y-114499820D01*
X143266122Y-114502045D01*
X143333743Y-114503156D01*
X143351528Y-114503229D01*
X143419400Y-114502956D01*
X143469074Y-114501638D01*
X143504918Y-114498819D01*
X143531304Y-114494042D01*
X143552602Y-114486849D01*
X143565402Y-114480859D01*
X143593528Y-114464225D01*
X143611460Y-114449160D01*
X143614081Y-114444889D01*
X143608552Y-114427255D01*
X143582268Y-114410184D01*
X143537050Y-114394450D01*
X143474720Y-114380830D01*
X143456357Y-114377796D01*
X143360438Y-114362730D01*
X143283887Y-114350138D01*
X143223748Y-114339103D01*
X143177068Y-114328712D01*
X143140891Y-114318048D01*
X143112263Y-114306197D01*
X143088230Y-114292243D01*
X143065836Y-114275273D01*
X143042126Y-114254370D01*
X143034148Y-114247041D01*
X143006175Y-114219691D01*
X142991368Y-114198021D01*
X142985576Y-114173224D01*
X142984639Y-114141975D01*
X142994953Y-114080697D01*
X143025776Y-114028632D01*
X143076933Y-113985950D01*
X143148245Y-113952817D01*
X143199128Y-113937956D01*
X143254428Y-113928358D01*
X143320675Y-113922928D01*
X143393822Y-113921359D01*
X143469825Y-113923343D01*
G36*
X142448734Y-113922138D02*
G01*
X142518142Y-113922510D01*
X142570531Y-113923377D01*
X142608681Y-113924938D01*
X142635369Y-113927395D01*
X142653375Y-113930949D01*
X142665479Y-113935802D01*
X142674459Y-113942153D01*
X142677710Y-113945076D01*
X142697485Y-113976134D01*
X142701046Y-114011820D01*
X142688037Y-114043502D01*
X142682022Y-114049905D01*
X142672293Y-114056113D01*
X142656627Y-114060902D01*
X142632120Y-114064506D01*
X142595867Y-114067156D01*
X142544963Y-114069087D01*
X142476502Y-114070531D01*
X142413911Y-114071410D01*
X142166194Y-114074459D01*
X142162809Y-114139370D01*
X142159423Y-114204281D01*
X142327570Y-114204281D01*
X142400569Y-114204911D01*
X142454011Y-114207545D01*
X142490900Y-114213301D01*
X142514240Y-114223296D01*
X142527034Y-114238648D01*
X142532286Y-114260474D01*
X142533083Y-114280730D01*
X142530605Y-114305584D01*
X142521251Y-114323898D01*
X142502145Y-114336629D01*
X142470410Y-114344733D01*
X142423169Y-114349168D01*
X142357545Y-114350891D01*
X142321727Y-114351037D01*
X142160550Y-114351037D01*
X142160550Y-114509081D01*
X142408906Y-114509081D01*
X142490315Y-114509194D01*
X142552186Y-114509704D01*
X142597560Y-114510862D01*
X142629474Y-114512922D01*
X142650969Y-114516138D01*
X142665085Y-114520764D01*
X142674860Y-114527051D01*
X142679839Y-114531659D01*
X142696918Y-114558552D01*
X142702417Y-114582459D01*
X142694565Y-114611659D01*
X142679839Y-114633259D01*
X142671982Y-114640058D01*
X142661840Y-114645338D01*
X142646684Y-114649290D01*
X142623787Y-114652105D01*
X142590419Y-114653974D01*
X142543853Y-114655090D01*
X142481361Y-114655643D01*
X142400214Y-114655825D01*
X142358106Y-114655837D01*
X142267930Y-114655757D01*
X142197604Y-114655390D01*
X142144399Y-114654544D01*
X142105588Y-114653028D01*
X142078441Y-114650651D01*
X142060230Y-114647221D01*
X142048228Y-114642546D01*
X142039706Y-114636436D01*
X142036372Y-114633259D01*
X142029773Y-114625662D01*
X142024601Y-114615862D01*
X142020682Y-114601231D01*
X142017844Y-114579144D01*
X142015913Y-114546974D01*
X142014716Y-114502095D01*
X142014080Y-114441881D01*
X142013831Y-114363705D01*
X142013794Y-114290915D01*
X142013828Y-114197699D01*
X142014063Y-114124423D01*
X142014698Y-114068450D01*
X142015934Y-114027143D01*
X142017972Y-113997864D01*
X142021011Y-113977976D01*
X142025251Y-113964842D01*
X142030893Y-113955824D01*
X142038137Y-113948285D01*
X142039922Y-113946604D01*
X142048583Y-113939164D01*
X142058646Y-113933401D01*
X142072903Y-113929104D01*
X142094145Y-113926056D01*
X142125164Y-113924043D01*
X142168751Y-113922852D01*
X142227697Y-113922267D01*
X142304794Y-113922075D01*
X142359527Y-113922059D01*
X142448734Y-113922138D01*
G37*
X142448734Y-113922138D02*
X142518142Y-113922510D01*
X142570531Y-113923377D01*
X142608681Y-113924938D01*
X142635369Y-113927395D01*
X142653375Y-113930949D01*
X142665479Y-113935802D01*
X142674459Y-113942153D01*
X142677710Y-113945076D01*
X142697485Y-113976134D01*
X142701046Y-114011820D01*
X142688037Y-114043502D01*
X142682022Y-114049905D01*
X142672293Y-114056113D01*
X142656627Y-114060902D01*
X142632120Y-114064506D01*
X142595867Y-114067156D01*
X142544963Y-114069087D01*
X142476502Y-114070531D01*
X142413911Y-114071410D01*
X142166194Y-114074459D01*
X142162809Y-114139370D01*
X142159423Y-114204281D01*
X142327570Y-114204281D01*
X142400569Y-114204911D01*
X142454011Y-114207545D01*
X142490900Y-114213301D01*
X142514240Y-114223296D01*
X142527034Y-114238648D01*
X142532286Y-114260474D01*
X142533083Y-114280730D01*
X142530605Y-114305584D01*
X142521251Y-114323898D01*
X142502145Y-114336629D01*
X142470410Y-114344733D01*
X142423169Y-114349168D01*
X142357545Y-114350891D01*
X142321727Y-114351037D01*
X142160550Y-114351037D01*
X142160550Y-114509081D01*
X142408906Y-114509081D01*
X142490315Y-114509194D01*
X142552186Y-114509704D01*
X142597560Y-114510862D01*
X142629474Y-114512922D01*
X142650969Y-114516138D01*
X142665085Y-114520764D01*
X142674860Y-114527051D01*
X142679839Y-114531659D01*
X142696918Y-114558552D01*
X142702417Y-114582459D01*
X142694565Y-114611659D01*
X142679839Y-114633259D01*
X142671982Y-114640058D01*
X142661840Y-114645338D01*
X142646684Y-114649290D01*
X142623787Y-114652105D01*
X142590419Y-114653974D01*
X142543853Y-114655090D01*
X142481361Y-114655643D01*
X142400214Y-114655825D01*
X142358106Y-114655837D01*
X142267930Y-114655757D01*
X142197604Y-114655390D01*
X142144399Y-114654544D01*
X142105588Y-114653028D01*
X142078441Y-114650651D01*
X142060230Y-114647221D01*
X142048228Y-114642546D01*
X142039706Y-114636436D01*
X142036372Y-114633259D01*
X142029773Y-114625662D01*
X142024601Y-114615862D01*
X142020682Y-114601231D01*
X142017844Y-114579144D01*
X142015913Y-114546974D01*
X142014716Y-114502095D01*
X142014080Y-114441881D01*
X142013831Y-114363705D01*
X142013794Y-114290915D01*
X142013828Y-114197699D01*
X142014063Y-114124423D01*
X142014698Y-114068450D01*
X142015934Y-114027143D01*
X142017972Y-113997864D01*
X142021011Y-113977976D01*
X142025251Y-113964842D01*
X142030893Y-113955824D01*
X142038137Y-113948285D01*
X142039922Y-113946604D01*
X142048583Y-113939164D01*
X142058646Y-113933401D01*
X142072903Y-113929104D01*
X142094145Y-113926056D01*
X142125164Y-113924043D01*
X142168751Y-113922852D01*
X142227697Y-113922267D01*
X142304794Y-113922075D01*
X142359527Y-113922059D01*
X142448734Y-113922138D01*
G36*
X141040157Y-113922058D02*
G01*
X141079639Y-113922459D01*
X141195328Y-113925251D01*
X141292217Y-113933542D01*
X141373609Y-113948224D01*
X141442805Y-113970185D01*
X141503108Y-114000314D01*
X141557820Y-114039502D01*
X141577361Y-114056524D01*
X141609778Y-114096355D01*
X141639008Y-114150405D01*
X141661537Y-114210315D01*
X141673849Y-114267731D01*
X141675128Y-114288948D01*
X141667111Y-114347761D01*
X141645629Y-114412005D01*
X141614529Y-114472813D01*
X141577662Y-114521322D01*
X141571674Y-114527174D01*
X141520949Y-114568313D01*
X141465403Y-114600427D01*
X141401832Y-114624357D01*
X141327034Y-114640945D01*
X141237806Y-114651033D01*
X141130946Y-114655461D01*
X141082000Y-114655837D01*
X141019766Y-114655537D01*
X140976000Y-114654284D01*
X140946597Y-114651546D01*
X140927449Y-114646793D01*
X140914451Y-114639493D01*
X140907483Y-114633259D01*
X140900902Y-114625686D01*
X140895740Y-114615916D01*
X140891825Y-114601332D01*
X140888985Y-114579318D01*
X140887048Y-114547256D01*
X140885844Y-114502528D01*
X140885200Y-114442518D01*
X140884945Y-114364609D01*
X140884906Y-114288948D01*
X140884658Y-114188033D01*
X140884711Y-114107419D01*
X140885671Y-114068814D01*
X141031661Y-114068814D01*
X141031661Y-114509081D01*
X141124794Y-114508996D01*
X141180835Y-114507388D01*
X141239529Y-114503248D01*
X141288500Y-114497456D01*
X141289990Y-114497218D01*
X141369136Y-114478082D01*
X141430526Y-114448279D01*
X141477223Y-114405870D01*
X141506893Y-114359953D01*
X141525175Y-114309018D01*
X141523757Y-114261192D01*
X141502540Y-114209925D01*
X141461039Y-114156891D01*
X141403530Y-114117592D01*
X141328778Y-114091323D01*
X141278820Y-114082027D01*
X141222112Y-114075499D01*
X141162009Y-114070774D01*
X141110889Y-114068809D01*
X141107861Y-114068800D01*
X141031661Y-114068814D01*
X140885671Y-114068814D01*
X140886268Y-114044843D01*
X140890530Y-113998047D01*
X140898698Y-113964770D01*
X140911972Y-113942751D01*
X140931554Y-113929731D01*
X140958645Y-113923449D01*
X140994446Y-113921645D01*
X141040157Y-113922058D01*
G37*
X141040157Y-113922058D02*
X141079639Y-113922459D01*
X141195328Y-113925251D01*
X141292217Y-113933542D01*
X141373609Y-113948224D01*
X141442805Y-113970185D01*
X141503108Y-114000314D01*
X141557820Y-114039502D01*
X141577361Y-114056524D01*
X141609778Y-114096355D01*
X141639008Y-114150405D01*
X141661537Y-114210315D01*
X141673849Y-114267731D01*
X141675128Y-114288948D01*
X141667111Y-114347761D01*
X141645629Y-114412005D01*
X141614529Y-114472813D01*
X141577662Y-114521322D01*
X141571674Y-114527174D01*
X141520949Y-114568313D01*
X141465403Y-114600427D01*
X141401832Y-114624357D01*
X141327034Y-114640945D01*
X141237806Y-114651033D01*
X141130946Y-114655461D01*
X141082000Y-114655837D01*
X141019766Y-114655537D01*
X140976000Y-114654284D01*
X140946597Y-114651546D01*
X140927449Y-114646793D01*
X140914451Y-114639493D01*
X140907483Y-114633259D01*
X140900902Y-114625686D01*
X140895740Y-114615916D01*
X140891825Y-114601332D01*
X140888985Y-114579318D01*
X140887048Y-114547256D01*
X140885844Y-114502528D01*
X140885200Y-114442518D01*
X140884945Y-114364609D01*
X140884906Y-114288948D01*
X140884658Y-114188033D01*
X140884711Y-114107419D01*
X140885671Y-114068814D01*
X141031661Y-114068814D01*
X141031661Y-114509081D01*
X141124794Y-114508996D01*
X141180835Y-114507388D01*
X141239529Y-114503248D01*
X141288500Y-114497456D01*
X141289990Y-114497218D01*
X141369136Y-114478082D01*
X141430526Y-114448279D01*
X141477223Y-114405870D01*
X141506893Y-114359953D01*
X141525175Y-114309018D01*
X141523757Y-114261192D01*
X141502540Y-114209925D01*
X141461039Y-114156891D01*
X141403530Y-114117592D01*
X141328778Y-114091323D01*
X141278820Y-114082027D01*
X141222112Y-114075499D01*
X141162009Y-114070774D01*
X141110889Y-114068809D01*
X141107861Y-114068800D01*
X141031661Y-114068814D01*
X140885671Y-114068814D01*
X140886268Y-114044843D01*
X140890530Y-113998047D01*
X140898698Y-113964770D01*
X140911972Y-113942751D01*
X140931554Y-113929731D01*
X140958645Y-113923449D01*
X140994446Y-113921645D01*
X141040157Y-113922058D01*
D12*
%TO.C,BT1*%
X138755000Y-86372000D02*
X122955000Y-86372000D01*
X122955000Y-75172000D02*
X138755000Y-75172000D01*
X140755000Y-88372000D02*
X158755000Y-88372000D01*
X140755000Y-73172000D02*
X158755000Y-73172000D01*
X102955000Y-73172000D02*
X120955000Y-73172000D01*
X158755000Y-73172000D02*
X158755000Y-88372000D01*
X102955000Y-88372000D02*
X120955000Y-88372000D01*
X102955000Y-73172000D02*
X102955000Y-88372000D01*
X102235000Y-72207000D02*
X159475000Y-72207000D01*
X102235000Y-89337000D02*
X102235000Y-72207000D01*
X159475000Y-89337000D02*
X102235000Y-89337000D01*
X159475000Y-72207000D02*
X159475000Y-89337000D01*
X152165000Y-79712000D02*
X152165000Y-81712000D01*
X155165000Y-76712000D02*
X155165000Y-84712000D01*
X154165000Y-83712000D02*
X154165000Y-77712000D01*
X153165000Y-78712000D02*
X153165000Y-82712000D01*
X122955000Y-75172000D02*
G75*
G02*
X120955000Y-73172000I0J2000000D01*
G01*
X140755000Y-73172000D02*
G75*
G02*
X138755000Y-75172000I-2000000J0D01*
G01*
X138755000Y-86372000D02*
G75*
G02*
X140755000Y-88372000I0J-2000000D01*
G01*
X120955000Y-88372000D02*
G75*
G02*
X122955000Y-86372000I2000000J0D01*
G01*
%TO.C,C1*%
X115252260Y-112069440D02*
X115252260Y-110673440D01*
X115252260Y-115315440D02*
X115252260Y-113919440D01*
X121492260Y-112069440D02*
X121492260Y-110673440D01*
X121492260Y-115315440D02*
X121492260Y-113919440D01*
X121492260Y-110673440D02*
X115252260Y-110673440D01*
X121492260Y-115315440D02*
X115252260Y-115315440D01*
%TO.C,C2*%
X121560840Y-94362980D02*
X115320840Y-94362980D01*
X121560840Y-89720980D02*
X115320840Y-89720980D01*
X121560840Y-94362980D02*
X121560840Y-92966980D01*
X121560840Y-91116980D02*
X121560840Y-89720980D01*
X115320840Y-94362980D02*
X115320840Y-92966980D01*
X115320840Y-91116980D02*
X115320840Y-89720980D01*
%TO.C,C3*%
X109355880Y-105019160D02*
G75*
G03*
X109355880Y-105019160I-2620000J0D01*
G01*
X109315880Y-105019160D02*
X104155880Y-105019160D01*
X109315880Y-105059160D02*
X104155880Y-105059160D01*
X109314880Y-105099160D02*
X104156880Y-105099160D01*
X109313880Y-105139160D02*
X104157880Y-105139160D01*
X109311880Y-105179160D02*
X104159880Y-105179160D01*
X109308880Y-105219160D02*
X104162880Y-105219160D01*
X109304880Y-105259160D02*
X107775880Y-105259160D01*
X105695880Y-105259160D02*
X104166880Y-105259160D01*
X109300880Y-105299160D02*
X107775880Y-105299160D01*
X105695880Y-105299160D02*
X104170880Y-105299160D01*
X109296880Y-105339160D02*
X107775880Y-105339160D01*
X105695880Y-105339160D02*
X104174880Y-105339160D01*
X109291880Y-105379160D02*
X107775880Y-105379160D01*
X105695880Y-105379160D02*
X104179880Y-105379160D01*
X109285880Y-105419160D02*
X107775880Y-105419160D01*
X105695880Y-105419160D02*
X104185880Y-105419160D01*
X109278880Y-105459160D02*
X107775880Y-105459160D01*
X105695880Y-105459160D02*
X104192880Y-105459160D01*
X109271880Y-105499160D02*
X107775880Y-105499160D01*
X105695880Y-105499160D02*
X104199880Y-105499160D01*
X109263880Y-105539160D02*
X107775880Y-105539160D01*
X105695880Y-105539160D02*
X104207880Y-105539160D01*
X109255880Y-105579160D02*
X107775880Y-105579160D01*
X105695880Y-105579160D02*
X104215880Y-105579160D01*
X109246880Y-105619160D02*
X107775880Y-105619160D01*
X105695880Y-105619160D02*
X104224880Y-105619160D01*
X109236880Y-105659160D02*
X107775880Y-105659160D01*
X105695880Y-105659160D02*
X104234880Y-105659160D01*
X109226880Y-105699160D02*
X107775880Y-105699160D01*
X105695880Y-105699160D02*
X104244880Y-105699160D01*
X109215880Y-105740160D02*
X107775880Y-105740160D01*
X105695880Y-105740160D02*
X104255880Y-105740160D01*
X109203880Y-105780160D02*
X107775880Y-105780160D01*
X105695880Y-105780160D02*
X104267880Y-105780160D01*
X109190880Y-105820160D02*
X107775880Y-105820160D01*
X105695880Y-105820160D02*
X104280880Y-105820160D01*
X109177880Y-105860160D02*
X107775880Y-105860160D01*
X105695880Y-105860160D02*
X104293880Y-105860160D01*
X109163880Y-105900160D02*
X107775880Y-105900160D01*
X105695880Y-105900160D02*
X104307880Y-105900160D01*
X109149880Y-105940160D02*
X107775880Y-105940160D01*
X105695880Y-105940160D02*
X104321880Y-105940160D01*
X109133880Y-105980160D02*
X107775880Y-105980160D01*
X105695880Y-105980160D02*
X104337880Y-105980160D01*
X109117880Y-106020160D02*
X107775880Y-106020160D01*
X105695880Y-106020160D02*
X104353880Y-106020160D01*
X109100880Y-106060160D02*
X107775880Y-106060160D01*
X105695880Y-106060160D02*
X104370880Y-106060160D01*
X109083880Y-106100160D02*
X107775880Y-106100160D01*
X105695880Y-106100160D02*
X104387880Y-106100160D01*
X109064880Y-106140160D02*
X107775880Y-106140160D01*
X105695880Y-106140160D02*
X104406880Y-106140160D01*
X109045880Y-106180160D02*
X107775880Y-106180160D01*
X105695880Y-106180160D02*
X104425880Y-106180160D01*
X109025880Y-106220160D02*
X107775880Y-106220160D01*
X105695880Y-106220160D02*
X104445880Y-106220160D01*
X109003880Y-106260160D02*
X107775880Y-106260160D01*
X105695880Y-106260160D02*
X104467880Y-106260160D01*
X108982880Y-106300160D02*
X107775880Y-106300160D01*
X105695880Y-106300160D02*
X104488880Y-106300160D01*
X108959880Y-106340160D02*
X107775880Y-106340160D01*
X105695880Y-106340160D02*
X104511880Y-106340160D01*
X108935880Y-106380160D02*
X107775880Y-106380160D01*
X105695880Y-106380160D02*
X104535880Y-106380160D01*
X108910880Y-106420160D02*
X107775880Y-106420160D01*
X105695880Y-106420160D02*
X104560880Y-106420160D01*
X108884880Y-106460160D02*
X107775880Y-106460160D01*
X105695880Y-106460160D02*
X104586880Y-106460160D01*
X108857880Y-106500160D02*
X107775880Y-106500160D01*
X105695880Y-106500160D02*
X104613880Y-106500160D01*
X108830880Y-106540160D02*
X107775880Y-106540160D01*
X105695880Y-106540160D02*
X104640880Y-106540160D01*
X108800880Y-106580160D02*
X107775880Y-106580160D01*
X105695880Y-106580160D02*
X104670880Y-106580160D01*
X108770880Y-106620160D02*
X107775880Y-106620160D01*
X105695880Y-106620160D02*
X104700880Y-106620160D01*
X108739880Y-106660160D02*
X107775880Y-106660160D01*
X105695880Y-106660160D02*
X104731880Y-106660160D01*
X108706880Y-106700160D02*
X107775880Y-106700160D01*
X105695880Y-106700160D02*
X104764880Y-106700160D01*
X108672880Y-106740160D02*
X107775880Y-106740160D01*
X105695880Y-106740160D02*
X104798880Y-106740160D01*
X108636880Y-106780160D02*
X107775880Y-106780160D01*
X105695880Y-106780160D02*
X104834880Y-106780160D01*
X108599880Y-106820160D02*
X107775880Y-106820160D01*
X105695880Y-106820160D02*
X104871880Y-106820160D01*
X108561880Y-106860160D02*
X107775880Y-106860160D01*
X105695880Y-106860160D02*
X104909880Y-106860160D01*
X108520880Y-106900160D02*
X107775880Y-106900160D01*
X105695880Y-106900160D02*
X104950880Y-106900160D01*
X108478880Y-106940160D02*
X107775880Y-106940160D01*
X105695880Y-106940160D02*
X104992880Y-106940160D01*
X108434880Y-106980160D02*
X107775880Y-106980160D01*
X105695880Y-106980160D02*
X105036880Y-106980160D01*
X108388880Y-107020160D02*
X107775880Y-107020160D01*
X105695880Y-107020160D02*
X105082880Y-107020160D01*
X108340880Y-107060160D02*
X107775880Y-107060160D01*
X105695880Y-107060160D02*
X105130880Y-107060160D01*
X108289880Y-107100160D02*
X107775880Y-107100160D01*
X105695880Y-107100160D02*
X105181880Y-107100160D01*
X108235880Y-107140160D02*
X107775880Y-107140160D01*
X105695880Y-107140160D02*
X105235880Y-107140160D01*
X108178880Y-107180160D02*
X107775880Y-107180160D01*
X105695880Y-107180160D02*
X105292880Y-107180160D01*
X108118880Y-107220160D02*
X107775880Y-107220160D01*
X105695880Y-107220160D02*
X105352880Y-107220160D01*
X108054880Y-107260160D02*
X107775880Y-107260160D01*
X105695880Y-107260160D02*
X105416880Y-107260160D01*
X107986880Y-107300160D02*
X107775880Y-107300160D01*
X105695880Y-107300160D02*
X105484880Y-107300160D01*
X107913880Y-107340160D02*
X105557880Y-107340160D01*
X107833880Y-107380160D02*
X105637880Y-107380160D01*
X107746880Y-107420160D02*
X105724880Y-107420160D01*
X107650880Y-107460160D02*
X105820880Y-107460160D01*
X107540880Y-107500160D02*
X105930880Y-107500160D01*
X107412880Y-107540160D02*
X106058880Y-107540160D01*
X107253880Y-107580160D02*
X106217880Y-107580160D01*
X107019880Y-107620160D02*
X106451880Y-107620160D01*
X108210880Y-102214385D02*
X108210880Y-102714385D01*
X108460880Y-102464385D02*
X107960880Y-102464385D01*
%TO.C,D1*%
X107272460Y-95879920D02*
G75*
G03*
X107272460Y-95879920I-2500000J0D01*
G01*
X103227460Y-98439920D02*
X106317460Y-98439920D01*
X104772922Y-92889920D02*
G75*
G03*
X103227630Y-98439920I-462J-2990000D01*
G01*
X104771998Y-92889920D02*
G75*
G02*
X106317290Y-98439920I462J-2990000D01*
G01*
%TO.C,Q1*%
X139137000Y-106755340D02*
X139137000Y-103155340D01*
X139125478Y-106793818D02*
G75*
G02*
X134687000Y-104955340I-1838478J1838478D01*
G01*
X139125478Y-103116862D02*
G75*
G03*
X134687000Y-104955340I-1838478J-1838478D01*
G01*
%TO.C,R1*%
X121592100Y-110180640D02*
X121592100Y-108340640D01*
X121592100Y-108340640D02*
X117752100Y-108340640D01*
X117752100Y-108340640D02*
X117752100Y-110180640D01*
X117752100Y-110180640D02*
X121592100Y-110180640D01*
X122542100Y-109260640D02*
X121592100Y-109260640D01*
X116802100Y-109260640D02*
X117752100Y-109260640D01*
%TO.C,R2*%
X119039400Y-96553540D02*
X119039400Y-94713540D01*
X119039400Y-94713540D02*
X115199400Y-94713540D01*
X115199400Y-94713540D02*
X115199400Y-96553540D01*
X115199400Y-96553540D02*
X119039400Y-96553540D01*
X119989400Y-95633540D02*
X119039400Y-95633540D01*
X114249400Y-95633540D02*
X115199400Y-95633540D01*
%TO.C,R3*%
X134221420Y-98572320D02*
X135171420Y-98572320D01*
X139961420Y-98572320D02*
X139011420Y-98572320D01*
X135171420Y-99492320D02*
X139011420Y-99492320D01*
X135171420Y-97652320D02*
X135171420Y-99492320D01*
X139011420Y-97652320D02*
X135171420Y-97652320D01*
X139011420Y-99492320D02*
X139011420Y-97652320D01*
%TO.C,R4*%
X149217580Y-93245940D02*
X150167580Y-93245940D01*
X154957580Y-93245940D02*
X154007580Y-93245940D01*
X150167580Y-94165940D02*
X154007580Y-94165940D01*
X150167580Y-92325940D02*
X150167580Y-94165940D01*
X154007580Y-92325940D02*
X150167580Y-92325940D01*
X154007580Y-94165940D02*
X154007580Y-92325940D01*
%TO.C,SW1*%
X144465780Y-95106100D02*
X138345780Y-95106100D01*
X138345780Y-95106100D02*
X138345780Y-91406100D01*
X138345780Y-91406100D02*
X144465780Y-91406100D01*
X144465780Y-91406100D02*
X144465780Y-95106100D01*
%TO.C,T1*%
X151811307Y-101871520D02*
G75*
G03*
X151811307Y-101871520I-1403567J0D01*
G01*
X155008827Y-101871520D02*
G75*
G03*
X155008827Y-101871520I-4601087J0D01*
G01*
%TO.C,U1*%
X111954000Y-103415340D02*
X111954000Y-104665340D01*
X111954000Y-104665340D02*
X129854000Y-104665340D01*
X129854000Y-104665340D02*
X129854000Y-100165340D01*
X129854000Y-100165340D02*
X111954000Y-100165340D01*
X111954000Y-100165340D02*
X111954000Y-101415340D01*
X111954000Y-101415340D02*
G75*
G02*
X111954000Y-103415340I0J-1000000D01*
G01*
%TO.C,BT1*%
D10*
X104049285Y-71280571D02*
X104192142Y-71328190D01*
X104239761Y-71375809D01*
X104287380Y-71471047D01*
X104287380Y-71613904D01*
X104239761Y-71709142D01*
X104192142Y-71756761D01*
X104096904Y-71804380D01*
X103715952Y-71804380D01*
X103715952Y-70804380D01*
X104049285Y-70804380D01*
X104144523Y-70852000D01*
X104192142Y-70899619D01*
X104239761Y-70994857D01*
X104239761Y-71090095D01*
X104192142Y-71185333D01*
X104144523Y-71232952D01*
X104049285Y-71280571D01*
X103715952Y-71280571D01*
X104573095Y-70804380D02*
X105144523Y-70804380D01*
X104858809Y-71804380D02*
X104858809Y-70804380D01*
X106001666Y-71804380D02*
X105430238Y-71804380D01*
X105715952Y-71804380D02*
X105715952Y-70804380D01*
X105620714Y-70947238D01*
X105525476Y-71042476D01*
X105430238Y-71090095D01*
X159844047Y-80783428D02*
X160605952Y-80783428D01*
X101074047Y-80783428D02*
X101835952Y-80783428D01*
X101455000Y-81164380D02*
X101455000Y-80402476D01*
%TO.C,C1*%
X118202413Y-113338882D02*
X118154794Y-113386501D01*
X118011937Y-113434120D01*
X117916699Y-113434120D01*
X117773841Y-113386501D01*
X117678603Y-113291263D01*
X117630984Y-113196025D01*
X117583365Y-113005549D01*
X117583365Y-112862692D01*
X117630984Y-112672216D01*
X117678603Y-112576978D01*
X117773841Y-112481740D01*
X117916699Y-112434120D01*
X118011937Y-112434120D01*
X118154794Y-112481740D01*
X118202413Y-112529359D01*
X119154794Y-113434120D02*
X118583365Y-113434120D01*
X118869080Y-113434120D02*
X118869080Y-112434120D01*
X118773841Y-112576978D01*
X118678603Y-112672216D01*
X118583365Y-112719835D01*
%TO.C,C2*%
X118254493Y-92414362D02*
X118206874Y-92461981D01*
X118064017Y-92509600D01*
X117968779Y-92509600D01*
X117825921Y-92461981D01*
X117730683Y-92366743D01*
X117683064Y-92271505D01*
X117635445Y-92081029D01*
X117635445Y-91938172D01*
X117683064Y-91747696D01*
X117730683Y-91652458D01*
X117825921Y-91557220D01*
X117968779Y-91509600D01*
X118064017Y-91509600D01*
X118206874Y-91557220D01*
X118254493Y-91604839D01*
X118635445Y-91604839D02*
X118683064Y-91557220D01*
X118778302Y-91509600D01*
X119016398Y-91509600D01*
X119111636Y-91557220D01*
X119159255Y-91604839D01*
X119206874Y-91700077D01*
X119206874Y-91795315D01*
X119159255Y-91938172D01*
X118587826Y-92509600D01*
X119206874Y-92509600D01*
%TO.C,C3*%
X103473522Y-105180426D02*
X103521141Y-105228045D01*
X103568760Y-105370902D01*
X103568760Y-105466140D01*
X103521141Y-105608998D01*
X103425903Y-105704236D01*
X103330665Y-105751855D01*
X103140189Y-105799474D01*
X102997332Y-105799474D01*
X102806856Y-105751855D01*
X102711618Y-105704236D01*
X102616380Y-105608998D01*
X102568760Y-105466140D01*
X102568760Y-105370902D01*
X102616380Y-105228045D01*
X102663999Y-105180426D01*
X102568760Y-104847093D02*
X102568760Y-104228045D01*
X102949713Y-104561379D01*
X102949713Y-104418521D01*
X102997332Y-104323283D01*
X103044951Y-104275664D01*
X103140189Y-104228045D01*
X103378284Y-104228045D01*
X103473522Y-104275664D01*
X103521141Y-104323283D01*
X103568760Y-104418521D01*
X103568760Y-104704236D01*
X103521141Y-104799474D01*
X103473522Y-104847093D01*
%TO.C,D1*%
X101264840Y-96618015D02*
X100264840Y-96618015D01*
X100264840Y-96379920D01*
X100312460Y-96237062D01*
X100407698Y-96141824D01*
X100502936Y-96094205D01*
X100693412Y-96046586D01*
X100836269Y-96046586D01*
X101026745Y-96094205D01*
X101121983Y-96141824D01*
X101217221Y-96237062D01*
X101264840Y-96379920D01*
X101264840Y-96618015D01*
X101264840Y-95094205D02*
X101264840Y-95665634D01*
X101264840Y-95379920D02*
X100264840Y-95379920D01*
X100407698Y-95475158D01*
X100502936Y-95570396D01*
X100550555Y-95665634D01*
%TO.C,Q1*%
X134274619Y-105050578D02*
X134227000Y-105145816D01*
X134131761Y-105241054D01*
X133988904Y-105383911D01*
X133941285Y-105479149D01*
X133941285Y-105574387D01*
X134179380Y-105526768D02*
X134131761Y-105622006D01*
X134036523Y-105717244D01*
X133846047Y-105764863D01*
X133512714Y-105764863D01*
X133322238Y-105717244D01*
X133227000Y-105622006D01*
X133179380Y-105526768D01*
X133179380Y-105336292D01*
X133227000Y-105241054D01*
X133322238Y-105145816D01*
X133512714Y-105098197D01*
X133846047Y-105098197D01*
X134036523Y-105145816D01*
X134131761Y-105241054D01*
X134179380Y-105336292D01*
X134179380Y-105526768D01*
X134179380Y-104145816D02*
X134179380Y-104717244D01*
X134179380Y-104431530D02*
X133179380Y-104431530D01*
X133322238Y-104526768D01*
X133417476Y-104622006D01*
X133465095Y-104717244D01*
%TO.C,R1*%
X119500353Y-109718100D02*
X119167020Y-109241910D01*
X118928924Y-109718100D02*
X118928924Y-108718100D01*
X119309877Y-108718100D01*
X119405115Y-108765720D01*
X119452734Y-108813339D01*
X119500353Y-108908577D01*
X119500353Y-109051434D01*
X119452734Y-109146672D01*
X119405115Y-109194291D01*
X119309877Y-109241910D01*
X118928924Y-109241910D01*
X120452734Y-109718100D02*
X119881305Y-109718100D01*
X120167020Y-109718100D02*
X120167020Y-108718100D01*
X120071781Y-108860958D01*
X119976543Y-108956196D01*
X119881305Y-109003815D01*
%TO.C,R2*%
X116962893Y-96075760D02*
X116629560Y-95599570D01*
X116391464Y-96075760D02*
X116391464Y-95075760D01*
X116772417Y-95075760D01*
X116867655Y-95123380D01*
X116915274Y-95170999D01*
X116962893Y-95266237D01*
X116962893Y-95409094D01*
X116915274Y-95504332D01*
X116867655Y-95551951D01*
X116772417Y-95599570D01*
X116391464Y-95599570D01*
X117343845Y-95170999D02*
X117391464Y-95123380D01*
X117486702Y-95075760D01*
X117724798Y-95075760D01*
X117820036Y-95123380D01*
X117867655Y-95170999D01*
X117915274Y-95266237D01*
X117915274Y-95361475D01*
X117867655Y-95504332D01*
X117296226Y-96075760D01*
X117915274Y-96075760D01*
%TO.C,R3*%
X136947613Y-99045020D02*
X136614280Y-98568830D01*
X136376184Y-99045020D02*
X136376184Y-98045020D01*
X136757137Y-98045020D01*
X136852375Y-98092640D01*
X136899994Y-98140259D01*
X136947613Y-98235497D01*
X136947613Y-98378354D01*
X136899994Y-98473592D01*
X136852375Y-98521211D01*
X136757137Y-98568830D01*
X136376184Y-98568830D01*
X137280946Y-98045020D02*
X137899994Y-98045020D01*
X137566660Y-98425973D01*
X137709518Y-98425973D01*
X137804756Y-98473592D01*
X137852375Y-98521211D01*
X137899994Y-98616449D01*
X137899994Y-98854544D01*
X137852375Y-98949782D01*
X137804756Y-98997401D01*
X137709518Y-99045020D01*
X137423803Y-99045020D01*
X137328565Y-98997401D01*
X137280946Y-98949782D01*
%TO.C,R4*%
X151925993Y-93703400D02*
X151592660Y-93227210D01*
X151354564Y-93703400D02*
X151354564Y-92703400D01*
X151735517Y-92703400D01*
X151830755Y-92751020D01*
X151878374Y-92798639D01*
X151925993Y-92893877D01*
X151925993Y-93036734D01*
X151878374Y-93131972D01*
X151830755Y-93179591D01*
X151735517Y-93227210D01*
X151354564Y-93227210D01*
X152783136Y-93036734D02*
X152783136Y-93703400D01*
X152545040Y-92655781D02*
X152306945Y-93370067D01*
X152925993Y-93370067D01*
%TO.C,SW1*%
X140139586Y-93790401D02*
X140282443Y-93838020D01*
X140520539Y-93838020D01*
X140615777Y-93790401D01*
X140663396Y-93742782D01*
X140711015Y-93647544D01*
X140711015Y-93552306D01*
X140663396Y-93457068D01*
X140615777Y-93409449D01*
X140520539Y-93361830D01*
X140330062Y-93314211D01*
X140234824Y-93266592D01*
X140187205Y-93218973D01*
X140139586Y-93123735D01*
X140139586Y-93028497D01*
X140187205Y-92933259D01*
X140234824Y-92885640D01*
X140330062Y-92838020D01*
X140568158Y-92838020D01*
X140711015Y-92885640D01*
X141044348Y-92838020D02*
X141282443Y-93838020D01*
X141472920Y-93123735D01*
X141663396Y-93838020D01*
X141901491Y-92838020D01*
X142806253Y-93838020D02*
X142234824Y-93838020D01*
X142520539Y-93838020D02*
X142520539Y-92838020D01*
X142425300Y-92980878D01*
X142330062Y-93076116D01*
X142234824Y-93123735D01*
%TO.C,T1*%
X149781355Y-101331780D02*
X150352783Y-101331780D01*
X150067069Y-102331780D02*
X150067069Y-101331780D01*
X151209926Y-102331780D02*
X150638498Y-102331780D01*
X150924212Y-102331780D02*
X150924212Y-101331780D01*
X150828974Y-101474638D01*
X150733736Y-101569876D01*
X150638498Y-101617495D01*
%TO.C,U1*%
X110406380Y-103177244D02*
X111215904Y-103177244D01*
X111311142Y-103129625D01*
X111358761Y-103082006D01*
X111406380Y-102986768D01*
X111406380Y-102796292D01*
X111358761Y-102701054D01*
X111311142Y-102653435D01*
X111215904Y-102605816D01*
X110406380Y-102605816D01*
X111406380Y-101605816D02*
X111406380Y-102177244D01*
X111406380Y-101891530D02*
X110406380Y-101891530D01*
X110549238Y-101986768D01*
X110644476Y-102082006D01*
X110692095Y-102177244D01*
%TD*%
M02*
