M48
; DRILL file {KiCad (5.1.6)-1} date 12/28/20 15:25:58
; FORMAT={-:-/ absolute / inch / decimal}
; #@! TF.CreationDate,2020-12-28T15:25:58+01:00
; #@! TF.GenerationSoftware,Kicad,Pcbnew,(5.1.6)-1
; #@! TF.FileFunction,Plated,1,2,PTH
FMAT,2
INCH
T1C0.0276
T2C0.0295
T3C0.0315
T4C0.0354
T5C0.0394
T6C0.0402
T7C0.0984
%
G90
G05
T1
X4.518Y-4.396
X4.107Y-3.602
X4.407Y-3.602
X4.918Y-3.605
X5.218Y-3.605
X4.818Y-4.396
T2
X5.029Y-4.262
X5.029Y-4.312
X5.029Y-4.362
T3
X4.176Y-3.7626
X4.176Y-3.861
X4.52Y-3.604
X4.7169Y-3.604
X4.518Y-4.254
X4.7149Y-4.254
X4.419Y-3.775
X4.419Y-4.075
X4.519Y-3.775
X4.519Y-4.075
X4.619Y-3.775
X4.619Y-4.075
X4.719Y-3.775
X4.719Y-4.075
X4.819Y-3.775
X4.819Y-4.075
X4.919Y-3.775
X4.919Y-4.075
X5.019Y-3.775
X5.019Y-4.075
T4
X4.176Y-4.027
X4.176Y-4.127
T5
X5.3768Y-3.8629
X5.3768Y-4.296
X5.613Y-3.8629
X5.613Y-4.296
T6
X4.158Y-3.142
X6.2049Y-3.142
T7
X6.245Y-2.66
X4.06Y-4.46
X6.245Y-4.46
X4.06Y-2.655
T0
M30
